<?xml version="1.0" encoding="UTF-8"?><svg xmlns="http://www.w3.org/2000/svg" viewBox="0 0 146.46 12.34"><defs><style>.x{fill:#e6e6e6;}</style></defs><g id="a"/><g id="b"><g id="c"><g id="d" transform="translate(0 0)"><path id="e" class="x" d="M0,12.06V.01H2.23c1.61-.09,3.21,.41,4.48,1.41,1.35,1.15,2.11,2.85,2.05,4.63,.06,1.79-.73,3.5-2.11,4.63-1.24,1.03-2.83,1.53-4.44,1.39H0Zm.67-.59h1.62c1.41,.08,2.8-.36,3.91-1.24,1.23-1.04,1.91-2.58,1.86-4.18,.05-1.49-.53-2.93-1.6-3.96C5.31,1.08,3.82,.55,2.29,.6H.67V11.47Z"/><path id="f" class="x" d="M11.38,12.15V2.62h4.73v.6h-4.07v3.4h3.95v.61h-3.95v4.32h4.07v.6h-4.73Z"/><path id="g" class="x" d="M19.29,4.12V12.16h-.67V2.53l7.78,8.15V2.62h.67V12.27l-7.78-8.15Z"/><rect id="h" class="x" x="30.16" y="2.62" width=".67" height="9.53"/><path id="i" class="x" d="M36.12,12.33c-.74,.04-1.47-.23-2.01-.74-.39-.41-.67-.91-.82-1.45l.64-.18c.1,.43,.31,.82,.61,1.15h0c.42,.42,1,.65,1.59,.62,.63,.03,1.24-.22,1.68-.68,.36-.42,.56-.95,.55-1.51,.02-.51-.19-.99-.56-1.33-.38-.31-.8-.55-1.25-.73l-.9-.42-.09-.04c-.44-.17-.84-.43-1.18-.74-.42-.37-.65-.91-.62-1.47,0-1.31,1.06-2.36,2.37-2.36,.07,0,.14,0,.21,0,.52-.02,1.04,.12,1.48,.41,.32,.22,.6,.51,.8,.85l-.51,.34c-.14-.23-.32-.43-.52-.61h0c-.36-.27-.81-.41-1.26-.39-.96-.08-1.81,.64-1.89,1.6,0,.05,0,.11,0,.16-.02,.39,.14,.77,.44,1.03,.33,.29,.7,.52,1.11,.67l.96,.42c.54,.21,1.04,.51,1.47,.9,.44,.43,.68,1.03,.65,1.65,.04,1.53-1.16,2.8-2.69,2.84-.08,0-.16,0-.24,0"/><path id="j" class="x" d="M41.54,12.15V2.62h4.73v.6h-4.06v3.4h3.95v.61h-3.95v4.32h4.06v.6h-4.73Z"/><path id="k" class="x" d="M53.08,12.06V.01h.67V11.47h3.53v.59h-4.2Z"/><rect id="l" class="x" x="59.28" y="2.62" width=".67" height="9.53"/><path id="m" class="x" d="M67.33,12.15l-3.04-4.37h-.62v4.37h-.67V2.62h1.38c.8-.06,1.6,.12,2.3,.51,.65,.47,1.03,1.23,1,2.03,.07,1.32-.94,2.46-2.26,2.53h-.05l-.39,.03,3.15,4.43h-.8Zm-3.66-4.91h.92c1.51,0,2.42-.76,2.42-2.05,.05-.68-.3-1.33-.9-1.66-.48-.24-1.01-.35-1.55-.32h-.89V7.24Z"/><path id="n" class="x" d="M77.55,12.16l-1.17-2.81h-4.54l-1.2,2.81h-.74l4.25-9.68,4.14,9.68h-.74Zm-5.46-3.42h4.05l-2.01-4.78-2.04,4.78Z"/><rect id="o" class="x" x="79.28" y="5.94" width="2.85" height=".67"/><path id="p" class="x" d="M90.85,12.06l-3.9-5.61h-.94v5.61h-.67V.01h1.68c1.01-.07,2.02,.15,2.9,.64,.81,.58,1.27,1.53,1.24,2.53,.09,1.65-1.18,3.07-2.84,3.16h-.04l-.67,.05,4.04,5.67h-.8Zm-4.83-6.12h1.28c2,0,3.2-1.02,3.2-2.72,.06-.91-.41-1.77-1.21-2.21-.63-.31-1.33-.46-2.03-.41h-1.24V5.94Z"/><path id="q" class="x" d="M100.49,12.16l-1.17-2.81h-4.54l-1.2,2.81h-.74l4.25-9.68,4.14,9.68h-.74Zm-5.46-3.42h4.05l-2.01-4.78-2.04,4.78Z"/><path id="r" class="x" d="M103.89,12.15V3.22h-2.42v-.6h5.51v.6h-2.42V12.15h-.67Z"/><rect id="s" class="x" x="108.88" y="2.62" width=".67" height="9.53"/><path id="t" class="x" d="M113.28,4.12V12.16h-.67V2.53l7.78,8.15V2.62h.66V12.27l-7.78-8.15Z"/><path id="u" class="x" d="M128.54,12.33c-1.31,.01-2.58-.49-3.52-1.41-.94-.93-1.46-2.21-1.45-3.53-.02-1.33,.51-2.6,1.45-3.54,1.97-1.87,5.06-1.87,7.04,0,.94,.93,1.47,2.21,1.45,3.54,.02,1.33-.51,2.6-1.45,3.53-.94,.91-2.21,1.42-3.52,1.41m0-9.27c-1.14,0-2.23,.45-3.02,1.26-1.66,1.71-1.66,4.43,0,6.14,1.65,1.67,4.34,1.69,6.01,.04l.04-.04c1.66-1.71,1.66-4.43,0-6.14-.8-.81-1.89-1.27-3.02-1.26"/><path id="v" class="x" d="M136.04,12.15V2.62h4.1v.6h-3.44v3.39h3.32v.61h-3.32v4.94h-.66Z"/><path id="w" class="x" d="M142.36,12.15V2.62h4.1v.6h-3.44v3.39h3.32v.61h-3.32v4.94h-.66Z"/></g></g></g></svg>