<svg id="Grupo_137" data-name="Grupo 137" xmlns="http://www.w3.org/2000/svg" xmlns:xlink="http://www.w3.org/1999/xlink" width="135.103" height="77.25" viewBox="0 0 135.103 77.25">
  <defs>
    <clipPath id="clip-path">
      <rect id="Rectángulo_94" data-name="Rectángulo 94" width="135.103" height="77.25" fill="#e6e6e6"/>
    </clipPath>
  </defs>
  <g id="Grupo_136" data-name="Grupo 136" clip-path="url(#clip-path)">
    <path id="Trazado_106" data-name="Trazado 106" d="M53.916,4.751l1.518-.366-.184-.774a4.144,4.144,0,0,1-.125-1.485,2.105,2.105,0,0,1,.372-.985,1.941,1.941,0,0,1,.717-.592,4.68,4.68,0,0,1,.934-.329A5.918,5.918,0,0,1,58.607,0l.38,1.605a2.93,2.93,0,0,0-.44.019,4.657,4.657,0,0,0-.532.1,1.273,1.273,0,0,0-.66.368.9.9,0,0,0-.111.847l.225.955L59.2,3.477l.361,1.533-1.733.417,1.843,7.788-2.039.491L55.8,5.919l-1.517.366Z" transform="translate(-31.449 0)" fill="#e6e6e6"/>
    <path id="Trazado_107" data-name="Trazado 107" d="M117.913,30.837a5.215,5.215,0,0,1-1.4-1.533,4.375,4.375,0,0,1-.583-1.749,4.491,4.491,0,0,1,.2-1.842,6.1,6.1,0,0,1,.954-1.826,6.011,6.011,0,0,1,1.458-1.422,4.415,4.415,0,0,1,1.7-.709,4.282,4.282,0,0,1,1.827.074,5.666,5.666,0,0,1,3.249,2.457,4.4,4.4,0,0,1,.583,1.749,4.526,4.526,0,0,1-.2,1.842,6.516,6.516,0,0,1-2.413,3.248,4.419,4.419,0,0,1-1.7.708,4.292,4.292,0,0,1-1.828-.073,5.171,5.171,0,0,1-1.85-.924M118.9,29.5a2.4,2.4,0,0,0,1.148.5,2.53,2.53,0,0,0,1.137-.112,3.356,3.356,0,0,0,1.034-.573,4.746,4.746,0,0,0,.858-.892,4.849,4.849,0,0,0,.6-1.073,3.289,3.289,0,0,0,.255-1.162,2.661,2.661,0,0,0-.218-1.127,2.418,2.418,0,0,0-.794-.97,2.384,2.384,0,0,0-1.146-.5,2.575,2.575,0,0,0-1.134.1,3.242,3.242,0,0,0-1.033.573,4.851,4.851,0,0,0-1.46,1.964A3.448,3.448,0,0,0,117.9,27.4a2.6,2.6,0,0,0,.214,1.134,2.42,2.42,0,0,0,.793.971" transform="translate(-67.609 -12.57)" fill="#e6e6e6"/>
    <path id="Trazado_108" data-name="Trazado 108" d="M156.656,90.047V92.03h-1.838v.037a2.121,2.121,0,0,1,.753.362,3.506,3.506,0,0,1,.671.648,3.3,3.3,0,0,1,.487.844,2.53,2.53,0,0,1,.183.945,4.224,4.224,0,0,1-.017.51c-.012.092-.027.188-.037.287h-2.021c.024-.148.045-.3.064-.454a3.591,3.591,0,0,0,.027-.454,2.427,2.427,0,0,0-.211-1.009,2.324,2.324,0,0,0-.625-.826,3,3,0,0,0-1.02-.555,4.325,4.325,0,0,0-1.4-.2h-4.519V90.047Z" transform="translate(-85.837 -52.187)" fill="#e6e6e6"/>
    <path id="Trazado_109" data-name="Trazado 109" d="M126.75,144a3.651,3.651,0,0,0-.819-.705,2.584,2.584,0,0,0-.946-.372,2.215,2.215,0,0,0-1,.058,2.589,2.589,0,0,0-1.008.581,2.541,2.541,0,0,0-.852,1.282,2.376,2.376,0,0,0,.152,1.455l-1.492,1.319a3.988,3.988,0,0,1-.418-2.845,4.194,4.194,0,0,1,.548-1.323,5.15,5.15,0,0,1,.974-1.142,4.981,4.981,0,0,1,1.734-1.04,4.062,4.062,0,0,1,1.776-.19,4.319,4.319,0,0,1,1.716.6,6.412,6.412,0,0,1,1.561,1.332,5.8,5.8,0,0,1,1.023,1.671,5.015,5.015,0,0,1,.36,1.823,4.367,4.367,0,0,1-1.536,3.365,4.239,4.239,0,0,1-1.822.981,4.385,4.385,0,0,1-1.93.042,5.019,5.019,0,0,1-1.811-.779,5.483,5.483,0,0,1-1.465-1.477Zm-2.77,4.292a3.393,3.393,0,0,0,.788.585,2.543,2.543,0,0,0,.885.29,2.348,2.348,0,0,0,.916-.07,2.174,2.174,0,0,0,.865-.48,2.535,2.535,0,0,0,.625-.812,2.315,2.315,0,0,0,.229-.917,2.663,2.663,0,0,0-.138-.948,2.855,2.855,0,0,0-.494-.893Z" transform="translate(-70.152 -81.748)" fill="#e6e6e6"/>
    <path id="Trazado_110" data-name="Trazado 110" d="M64.157,169.272l-2.24-.419-1.033-7.679-.038-.005-3.606,6.807-2.131-.4,5.075-8.794,2.311.434Z" transform="translate(-32.145 -92.022)" fill="#e6e6e6"/>
    <path id="Trazado_111" data-name="Trazado 111" d="M8.665,125.829a3.652,3.652,0,0,0,.869-.641,2.646,2.646,0,0,0,.578-.841,2.269,2.269,0,0,0,.176-.995,2.627,2.627,0,0,0-.328-1.124,2.528,2.528,0,0,0-1.038-1.135,2.331,2.331,0,0,0-1.438-.189l-.925-1.771a3.914,3.914,0,0,1,2.84.25,4.24,4.24,0,0,1,1.149.846,5.239,5.239,0,0,1,.875,1.221,5.065,5.065,0,0,1,.6,1.944,4.155,4.155,0,0,1-.228,1.787,4.387,4.387,0,0,1-.978,1.546,6.379,6.379,0,0,1-1.646,1.222,5.677,5.677,0,0,1-1.848.616A4.866,4.866,0,0,1,5.48,128.5a4.312,4.312,0,0,1-2.886-2.289,4.313,4.313,0,0,1-.525-2.016,4.5,4.5,0,0,1,.408-1.9,5.067,5.067,0,0,1,1.17-1.6A5.423,5.423,0,0,1,5.411,119.6Zm-3.5-3.714a3.385,3.385,0,0,0-.748.637,2.563,2.563,0,0,0-.484.8,2.4,2.4,0,0,0-.145.914,2.189,2.189,0,0,0,.262.96,2.536,2.536,0,0,0,.638.8,2.267,2.267,0,0,0,.831.438,2.594,2.594,0,0,0,.947.084,2.788,2.788,0,0,0,.976-.278Z" transform="translate(-1.207 -68.952)" fill="#e6e6e6"/>
    <path id="Trazado_112" data-name="Trazado 112" d="M0,55.315l.833-1.8L2.5,54.3l.015-.033a2.141,2.141,0,0,1-.53-.649,3.545,3.545,0,0,1-.335-.874,3.312,3.312,0,0,1-.087-.972,2.54,2.54,0,0,1,.231-.934,4.194,4.194,0,0,1,.231-.454l.153-.245L4,51c-.084.123-.166.253-.248.383a3.623,3.623,0,0,0-.215.4,2.446,2.446,0,0,0-.234,1.006,2.362,2.362,0,0,0,.22,1.013,3.1,3.1,0,0,0,.69.939,4.433,4.433,0,0,0,1.179.782l4.093,1.93L8.6,59.373Z" transform="translate(0 -29.059)" fill="#e6e6e6"/>
    <path id="Trazado_113" data-name="Trazado 113" d="M205.839,91.722a1.165,1.165,0,0,0-.415-.789,1.345,1.345,0,0,0-.857-.267,1.746,1.746,0,0,0-.507.082,1.2,1.2,0,0,0-.5.3,1.717,1.717,0,0,0-.378.621,2.975,2.975,0,0,0-.151,1.039,3.054,3.054,0,0,0,.081.7,1.912,1.912,0,0,0,.259.621,1.406,1.406,0,0,0,.458.441,1.293,1.293,0,0,0,.68.169,1.231,1.231,0,0,0,.89-.337,1.574,1.574,0,0,0,.437-.947h1.23a2.733,2.733,0,0,1-.825,1.681,2.5,2.5,0,0,1-1.731.582,2.828,2.828,0,0,1-1.16-.223,2.453,2.453,0,0,1-.847-.609,2.6,2.6,0,0,1-.523-.92,3.622,3.622,0,0,1-.178-1.154,3.979,3.979,0,0,1,.173-1.187,2.723,2.723,0,0,1,.518-.963,2.425,2.425,0,0,1,.857-.642,2.873,2.873,0,0,1,1.2-.234,3.324,3.324,0,0,1,.922.125,2.425,2.425,0,0,1,.777.375,2.006,2.006,0,0,1,.555.632,2.177,2.177,0,0,1,.259.9Z" transform="translate(-117.712 -51.978)" fill="#e6e6e6"/>
    <path id="Trazado_114" data-name="Trazado 114" d="M220.213,95.618a3.018,3.018,0,0,1-1.192-.223,2.535,2.535,0,0,1-.885-.615,2.63,2.63,0,0,1-.55-.936,3.856,3.856,0,0,1,0-2.384,2.637,2.637,0,0,1,.55-.936,2.534,2.534,0,0,1,.885-.615,3.292,3.292,0,0,1,2.384,0,2.538,2.538,0,0,1,.885.615,2.638,2.638,0,0,1,.55.936,3.857,3.857,0,0,1,0,2.384,2.631,2.631,0,0,1-.55.936,2.539,2.539,0,0,1-.885.615,3.018,3.018,0,0,1-1.192.223m0-.98a1.4,1.4,0,0,0,.712-.174,1.5,1.5,0,0,0,.5-.457,2.006,2.006,0,0,0,.286-.637,2.88,2.88,0,0,0,0-1.442,1.933,1.933,0,0,0-.286-.637,1.527,1.527,0,0,0-.5-.452,1.542,1.542,0,0,0-1.423,0,1.522,1.522,0,0,0-.5.452,1.924,1.924,0,0,0-.286.637,2.88,2.88,0,0,0,0,1.442,2,2,0,0,0,.286.637,1.5,1.5,0,0,0,.5.457,1.4,1.4,0,0,0,.712.174" transform="translate(-126.808 -51.978)" fill="#e6e6e6"/>
    <rect id="Rectángulo_92" data-name="Rectángulo 92" width="1.23" height="7.771" transform="translate(97.76 35.717)" fill="#e6e6e6"/>
    <rect id="Rectángulo_93" data-name="Rectángulo 93" width="1.23" height="7.771" transform="translate(100.811 35.717)" fill="#e6e6e6"/>
    <path id="Trazado_115" data-name="Trazado 115" d="M249.851,92.973a2.189,2.189,0,0,0,.091.632,1.557,1.557,0,0,0,.275.533,1.318,1.318,0,0,0,.464.365,1.515,1.515,0,0,0,.669.136,1.464,1.464,0,0,0,.868-.234,1.379,1.379,0,0,0,.491-.7h1.165a2.337,2.337,0,0,1-.906,1.42,2.458,2.458,0,0,1-.75.37,3,3,0,0,1-.868.125,2.931,2.931,0,0,1-1.165-.217,2.411,2.411,0,0,1-.858-.61,2.585,2.585,0,0,1-.528-.936,3.831,3.831,0,0,1-.178-1.2,3.414,3.414,0,0,1,.188-1.137,2.92,2.92,0,0,1,.54-.947,2.58,2.58,0,0,1,.847-.647,2.551,2.551,0,0,1,1.122-.239,2.481,2.481,0,0,1,1.181.278,2.6,2.6,0,0,1,.868.735,2.989,2.989,0,0,1,.5,1.05,3.248,3.248,0,0,1,.081,1.224Zm2.869-.816a2.02,2.02,0,0,0-.124-.566,1.514,1.514,0,0,0-.28-.473,1.394,1.394,0,0,0-.431-.327,1.265,1.265,0,0,0-.566-.125,1.461,1.461,0,0,0-.588.114,1.343,1.343,0,0,0-.453.315,1.571,1.571,0,0,0-.3.473,1.666,1.666,0,0,0-.124.588Z" transform="translate(-145.02 -51.978)" fill="#e6e6e6"/>
    <path id="Trazado_116" data-name="Trazado 116" d="M268.393,91.722a1.166,1.166,0,0,0-.415-.789,1.345,1.345,0,0,0-.857-.267,1.746,1.746,0,0,0-.507.082,1.2,1.2,0,0,0-.5.3,1.717,1.717,0,0,0-.378.621,2.975,2.975,0,0,0-.151,1.039,3.052,3.052,0,0,0,.081.7,1.912,1.912,0,0,0,.259.621,1.406,1.406,0,0,0,.458.441,1.293,1.293,0,0,0,.68.169,1.231,1.231,0,0,0,.89-.337,1.574,1.574,0,0,0,.437-.947h1.23a2.733,2.733,0,0,1-.825,1.681,2.5,2.5,0,0,1-1.731.582,2.828,2.828,0,0,1-1.16-.223,2.452,2.452,0,0,1-.847-.609,2.6,2.6,0,0,1-.523-.92,3.622,3.622,0,0,1-.178-1.154,3.981,3.981,0,0,1,.172-1.187,2.724,2.724,0,0,1,.518-.963,2.425,2.425,0,0,1,.857-.642,2.873,2.873,0,0,1,1.2-.234,3.325,3.325,0,0,1,.922.125,2.425,2.425,0,0,1,.777.375,2.005,2.005,0,0,1,.555.632,2.177,2.177,0,0,1,.259.9Z" transform="translate(-154.2 -51.978)" fill="#e6e6e6"/>
    <path id="Trazado_117" data-name="Trazado 117" d="M279.373,87.724h.928V86.037h1.23v1.687h1.111v.925H281.53v3a3.007,3.007,0,0,0,.016.337.585.585,0,0,0,.075.24.362.362,0,0,0,.178.147.867.867,0,0,0,.324.049c.086,0,.173,0,.259-.006a1.249,1.249,0,0,0,.259-.038v.958l-.4.043a3.532,3.532,0,0,1-.4.022,2.71,2.71,0,0,1-.782-.092,1.036,1.036,0,0,1-.464-.272.937.937,0,0,1-.226-.452,3.368,3.368,0,0,1-.07-.621V88.649h-.928Z" transform="translate(-162.957 -49.863)" fill="#e6e6e6"/>
    <path id="Trazado_118" data-name="Trazado 118" d="M290.581,84.949h1.23v1.176h-1.23Zm0,2.144h1.23V92.72h-1.23Z" transform="translate(-169.495 -49.232)" fill="#e6e6e6"/>
    <path id="Trazado_119" data-name="Trazado 119" d="M296.581,90.049h1.338l1.413,4.321h.022l1.359-4.321h1.273l-2,5.627h-1.381Z" transform="translate(-172.995 -52.188)" fill="#e6e6e6"/>
    <path id="Trazado_120" data-name="Trazado 120" d="M312.6,92.973a2.189,2.189,0,0,0,.091.632,1.558,1.558,0,0,0,.275.533,1.318,1.318,0,0,0,.464.365,1.515,1.515,0,0,0,.669.136,1.464,1.464,0,0,0,.868-.234,1.379,1.379,0,0,0,.491-.7h1.165a2.338,2.338,0,0,1-.906,1.42,2.459,2.459,0,0,1-.75.37,3,3,0,0,1-.868.125,2.931,2.931,0,0,1-1.165-.217,2.411,2.411,0,0,1-.858-.61,2.585,2.585,0,0,1-.528-.936,3.829,3.829,0,0,1-.178-1.2,3.414,3.414,0,0,1,.188-1.137,2.921,2.921,0,0,1,.54-.947,2.579,2.579,0,0,1,.847-.647,2.551,2.551,0,0,1,1.122-.239,2.481,2.481,0,0,1,1.181.278,2.6,2.6,0,0,1,.868.735,2.987,2.987,0,0,1,.5,1.05,3.248,3.248,0,0,1,.081,1.224Zm2.869-.816a2.022,2.022,0,0,0-.124-.566,1.514,1.514,0,0,0-.28-.473,1.393,1.393,0,0,0-.431-.327,1.265,1.265,0,0,0-.566-.125,1.461,1.461,0,0,0-.588.114,1.342,1.342,0,0,0-.453.315,1.57,1.57,0,0,0-.3.473,1.665,1.665,0,0,0-.124.588Z" transform="translate(-181.622 -51.978)" fill="#e6e6e6"/>
  </g>
</svg>
