<svg id="Componente_34_1" data-name="Componente 34 – 1" xmlns="http://www.w3.org/2000/svg" xmlns:xlink="http://www.w3.org/1999/xlink" width="625.763" height="719.522" viewBox="0 0 625.763 719.522">
  <defs>
    <clipPath id="clip-path">
      <rect id="Rectángulo_139" data-name="Rectángulo 139" width="399.231" height="399.231" fill="none"/>
    </clipPath>
    <clipPath id="clip-path-2">
      <rect id="Rectángulo_137" data-name="Rectángulo 137" width="20.05" height="270.854" fill="none"/>
    </clipPath>
    <clipPath id="clip-path-3">
      <rect id="Rectángulo_138" data-name="Rectángulo 138" width="20.051" height="277.584" fill="none"/>
    </clipPath>
    <clipPath id="clip-path-5">
      <rect id="Rectángulo_141" data-name="Rectángulo 141" width="337.335" height="337.335" fill="none"/>
    </clipPath>
    <clipPath id="clip-path-6">
      <rect id="Rectángulo_142" data-name="Rectángulo 142" width="232.135" height="214.248" fill="none"/>
    </clipPath>
  </defs>
  <text id="THE_TIME_IS_NOW" data-name="THE TIME IS NOW" transform="translate(107.996 253.28)" fill="#e6e6e6" font-size="41" font-family="PrintveticaRegular, Printvetica"><tspan x="0" y="0">THE TIME IS NOW</tspan></text>
  <g id="Grupo_172" data-name="Grupo 172" transform="translate(180.854 48.654) rotate(-7)">
    <g id="Grupo_169" data-name="Grupo 169" transform="translate(0 0)">
      <g id="Grupo_168" data-name="Grupo 168" clip-path="url(#clip-path)">
        <path id="Trazado_185" data-name="Trazado 185" d="M385.8,0H13.436A13.436,13.436,0,0,0,0,13.436V385.8a13.435,13.435,0,0,0,13.436,13.435H385.8A13.435,13.435,0,0,0,399.232,385.8V13.436A13.436,13.436,0,0,0,385.8,0" transform="translate(0 0)" fill="#242424"/>
        <g id="Grupo_164" data-name="Grupo 164" transform="translate(72.787 65.409)" style="mix-blend-mode: normal;isolation: isolate">
          <g id="Grupo_163" data-name="Grupo 163">
            <g id="Grupo_162" data-name="Grupo 162" clip-path="url(#clip-path-2)">
              <text id="films_advertising_installations" data-name="films — advertising — installations" transform="translate(6.701 0) rotate(90)" fill="#e6e6e6" font-size="15" font-family="HelveticaNeue-Light, Helvetica Neue" font-weight="300"><tspan x="0" y="0" letter-spacing="0.03em">f</tspan><tspan y="0" letter-spacing="0.029em">il</tspan><tspan y="0" letter-spacing="0.03em">ms — </tspan><tspan y="0" letter-spacing="0.029em">a</tspan><tspan y="0" letter-spacing="0.03em">dv</tspan><tspan y="0" letter-spacing="0.029em">e</tspan><tspan y="0" letter-spacing="0.03em">rt</tspan><tspan y="0" letter-spacing="0.029em">i</tspan><tspan y="0" letter-spacing="0.03em">sin</tspan><tspan y="0" letter-spacing="0.029em">g</tspan><tspan y="0" letter-spacing="0.03em"> </tspan><tspan y="0" letter-spacing="0.029em">— </tspan><tspan y="0" letter-spacing="0.03em">inst</tspan><tspan y="0" letter-spacing="0.029em">a</tspan><tspan y="0" letter-spacing="0.03em">l</tspan><tspan y="0" letter-spacing="0.029em">la</tspan><tspan y="0" letter-spacing="0.03em">t</tspan><tspan y="0" letter-spacing="0.029em">io</tspan><tspan y="0" letter-spacing="0.03em">n</tspan><tspan y="0">s</tspan></text>
            </g>
          </g>
        </g>
        <g id="Grupo_167" data-name="Grupo 167" transform="translate(47.26 62.038)" style="mix-blend-mode: normal;isolation: isolate">
          <g id="Grupo_166" data-name="Grupo 166">
            <g id="Grupo_165" data-name="Grupo 165" clip-path="url(#clip-path-3)">
              <text id="photographyv_SFX_multimedia" data-name="photographyv— SFX — multimedia" transform="translate(13.35 277.584) rotate(-90)" fill="#e6e6e6" font-size="15" font-family="HelveticaNeue-Light, Helvetica Neue" font-weight="300"><tspan x="0" y="0" letter-spacing="0.03em">photo</tspan><tspan y="0" letter-spacing="0.029em">g</tspan><tspan y="0" letter-spacing="0.03em">r</tspan><tspan y="0" letter-spacing="0.029em">a</tspan><tspan y="0" letter-spacing="0.03em">ph</tspan><tspan y="0" letter-spacing="0.029em">yv</tspan><tspan y="0" letter-spacing="0.03em">— SFX —</tspan><tspan y="0" letter-spacing="0.029em"> </tspan><tspan y="0" letter-spacing="0.03em">mu</tspan><tspan y="0" letter-spacing="0.029em">l</tspan><tspan y="0" letter-spacing="0.03em">ti</tspan><tspan y="0" letter-spacing="0.029em">me</tspan><tspan y="0" letter-spacing="0.03em">d</tspan><tspan y="0" letter-spacing="0.029em">i</tspan><tspan y="0">a</tspan></text>
            </g>
          </g>
        </g>
      </g>
    </g>
    <text id="Let_s" data-name="Let’s" transform="translate(128.963 114.312)" fill="#e6e6e6" font-size="71" font-family="PrintveticaRegular, Printvetica"><tspan x="0" y="0">L</tspan><tspan y="0" letter-spacing="-0.009em">e</tspan><tspan y="0">t’s</tspan></text>
    <text id="start" transform="translate(128.963 181.248)" fill="#e6e6e6" font-size="71" font-family="PrintveticaRegular, Printvetica"><tspan x="0" y="0">start</tspan></text>
    <text id="a" transform="translate(128.963 247.184)" fill="#e6e6e6" font-size="69" font-family="PrintveticaRegular, Printvetica"><tspan x="0" y="0">a</tspan></text>
    <text id="project" transform="translate(128.963 315.121)" fill="#e6e6e6" font-size="71" font-family="PrintveticaRegular, Printvetica"><tspan x="0" y="0">p</tspan><tspan y="0" letter-spacing="-0.011em">r</tspan><tspan y="0">oject</tspan></text>
    <g id="Grupo_171" data-name="Grupo 171" transform="translate(0 0)">
      <g id="Grupo_170" data-name="Grupo 170" clip-path="url(#clip-path)">
        <line id="Línea_30" data-name="Línea 30" x2="159.186" transform="translate(192.789 233.411)" fill="none" stroke="#052cab" stroke-width="13"/>
      </g>
    </g>
  </g>
  <g id="Grupo_174" data-name="Grupo 174" transform="translate(0 384.702) rotate(-7)">
    <g id="Grupo_173" data-name="Grupo 173" transform="translate(0 0)" clip-path="url(#clip-path-5)">
      <path id="Trazado_186" data-name="Trazado 186" d="M337.335,168.668A168.668,168.668,0,1,1,168.668,0,168.667,168.667,0,0,1,337.335,168.668" fill="#052cab"/>
      <path id="Trazado_187" data-name="Trazado 187" d="M487.336,216.071l-1.512,2.312-2.393-1.316,1.447-2.4Z" transform="translate(-216.297 -96.048)" fill="#e6e6e6"/>
      <path id="Trazado_188" data-name="Trazado 188" d="M506.867,292.661l-1.443,2.535L503,293.646l1.421-2.381Z" transform="translate(-225.053 -130.318)" fill="#e6e6e6"/>
      <path id="Trazado_189" data-name="Trazado 189" d="M439.691,186.052l-2.284,3.959-3.825-2.4,2.187-4.026Z" transform="translate(-193.994 -82.139)" fill="#e6e6e6"/>
      <path id="Trazado_190" data-name="Trazado 190" d="M459.285,260.733l-.456,3.68-3.034,2.079-4.066.313-2.015-3.633.44-3.91,3.114-2.68,4.133.668Z" transform="translate(-201.211 -114.801)" fill="#e6e6e6"/>
      <path id="Trazado_191" data-name="Trazado 191" d="M478.387,338.092l-2.358,4.658-4.526-2.9,2.57-4.773Z" transform="translate(-210.96 -149.919)" fill="#e6e6e6"/>
      <path id="Trazado_192" data-name="Trazado 192" d="M120.164,391.428l1.434-2.187,2.261,1.244L122.5,392.8Z" transform="translate(-53.764 -174.155)" fill="#e6e6e6"/>
      <path id="Trazado_193" data-name="Trazado 193" d="M100.8,314.787l1.337-2.213,2.288,1.289-1.337,2.444Z" transform="translate(-45.099 -139.852)" fill="#e6e6e6"/>
      <path id="Trazado_194" data-name="Trazado 194" d="M165.943,419.445l2.309-3.617,3.653,2.1-2.147,3.814Z" transform="translate(-74.246 -186.05)" fill="#e6e6e6"/>
      <path id="Trazado_195" data-name="Trazado 195" d="M143.455,341.249l-.08-3.961,3.39-2.322,3.782.931,2.587,2.886-.98,3.718-2.718,2.946-4.175-.648Z" transform="translate(-64.149 -149.871)" fill="#e6e6e6"/>
      <path id="Trazado_196" data-name="Trazado 196" d="M125.453,266.406l2.979-4.668,4.8,2.685-2.993,4.406Z" transform="translate(-56.13 -117.107)" fill="#e6e6e6"/>
      <path id="Trazado_197" data-name="Trazado 197" d="M411.772,228.782l-.6,4.133-1.836,3.644-3.44,2.714-4.465-.219-4.108-1.961-1.719-4.191.475-4.229,2.385-3.258,3.251-2.546,4.382-.413,3.119,3.032Z" transform="translate(-177.002 -99.532)" fill="#e6e6e6"/>
      <path id="Trazado_198" data-name="Trazado 198" d="M431.45,303.916l-.029,4.51-2.439,3.749-3.886,2.033-4.659,1.043-3.935-2.826-1.727-4.259.52-4.273,2.025-3.672,3.649-2.208,4.654-1.2,3.749,3.056Z" transform="translate(-185.578 -132.799)" fill="#e6e6e6"/>
      <path id="Trazado_199" data-name="Trazado 199" d="M450.068,385.633l-.506,3.282-2.632,2.047-3.693.141-1.631-3.314-.022-3.611,3.083-2.093,3.6.539Z" transform="translate(-197.574 -170.953)" fill="#e6e6e6"/>
      <path id="Trazado_200" data-name="Trazado 200" d="M386.068,153.734l3.451.271,2.514,2.741-.474,3.86-3.185,2.176-3.5-.959-2.379-2.646.558-3.619Z" transform="translate(-171.137 -68.784)" fill="#e6e6e6"/>
      <path id="Trazado_201" data-name="Trazado 201" d="M383.583,270.7l.779,4.38-.507,4.574-3.8,2.82-2.135,4.153-4.808-.4-3.9.675-4.653,1.016-2.576-4.065-4.718-1.625-1.355-4.473.836-4.461.637-4.176,1.023-4.62,4.5-1.632,3.56-2.742,4.429.847,4.033.9,3.821,1.793,3.414,2.824Z" transform="translate(-159.24 -116.383)" fill="#e6e6e6"/>
      <path id="Trazado_202" data-name="Trazado 202" d="M401.776,351.4l-.413,4.013.409,4.648-3.343,3.112-4.081,1.738-4.439.6-3.4-2.983-4.257-1.553-1.117-4.311-1.239-4.342,3.106-3.4,2.277-3.323,3.871-1.085,3.839-.351,4.592-.277,1.967,4.156Z" transform="translate(-169.973 -153.857)" fill="#e6e6e6"/>
      <path id="Trazado_203" data-name="Trazado 203" d="M338.668,126.414l4.825,2.7-3,4.464-4.61-2.525Z" transform="translate(-150.282 -56.56)" fill="#e6e6e6"/>
      <path id="Trazado_204" data-name="Trazado 204" d="M350.232,191.213l4.082.05,3.936,1.095,3.933,2.117.5,4.48.775,4.035-1.686,3.77-2.235,3.642-4.047,1.421-4.3,1.145L347.06,211.2l-3.5-2.8-2.231-4.009L342.713,200l1.612-3.6,1.73-4.016Z" transform="translate(-152.719 -85.553)" fill="#e6e6e6"/>
      <path id="Trazado_205" data-name="Trazado 205" d="M418.719,439.529l-4.16-2.268,2.488-4.29,4.092,2.613Z" transform="translate(-185.482 -193.72)" fill="#e6e6e6"/>
      <path id="Trazado_206" data-name="Trazado 206" d="M355.285,316.487l.246,4.328-.6,4.253-2.624,3.4-2.508,3.128-3.033,2.705-3.832,1.41-4.025-.608-4.414,1.848-3.561-2.6-4.248-1.627-2.534-3.722-1.2-4.267-.826-4.32,1.672-4.092,2.225-3.46,3.007-2.552,1.867-4.289,4.436-.14,3.952-1.175,4.264.054,2.915,3.441,4.4.924,2.574,3.441Z" transform="translate(-144.127 -136.329)" fill="#e6e6e6"/>
      <path id="Trazado_207" data-name="Trazado 207" d="M292.29,100.9l2.292,1.313-1.384,2.248-2.451-1.27Z" transform="translate(-130.086 -45.145)" fill="#e6e6e6"/>
      <path id="Trazado_208" data-name="Trazado 208" d="M304.393,165.62l4.518.133,4.363,1.815,1.547,4.447.912,4.685-2.426,4.334-4.49,1.946-4.607-.5-4.263-1.9-2.471-4.138-.055-4.884,3.139-3.577Z" transform="translate(-133.073 -74.102)" fill="#e6e6e6"/>
      <path id="Trazado_209" data-name="Trazado 209" d="M316.225,228.943l4.049-1.539,4.5-.091,4.012,2.045,2.01,4.211,3.874,2.272-.649,4.636.834,3.737,1.837,4.491-2.105,3.945-4.3,1.854-2.013,4.148-4.66-.716-3.735,1.68-3.686-1.786-4.765.756-3.107-3.089-2.782-3.311-.272-4.381-.821-3.965-.929-4.463,2.484-3.7,2.271-3.734,3.6-2.521Z" transform="translate(-135.8 -101.705)" fill="#e6e6e6"/>
      <path id="Trazado_210" data-name="Trazado 210" d="M391.091,487.32l-2.148-1.453,1.168-2.39,2.434,1.473Z" transform="translate(-174.021 -216.317)" fill="#e6e6e6"/>
      <path id="Trazado_211" data-name="Trazado 211" d="M367.326,412.429l-4.289.117-3.317-2.611-3.238-3.2.22-4.666,2.614-3.716,4.108-1.231,3.93.056,4.281,1.125,2.376,3.963-1.115,4.355-1.416,4.2Z" transform="translate(-159.497 -177.682)" fill="#e6e6e6"/>
      <path id="Trazado_212" data-name="Trazado 212" d="M309.435,286.223l-.509,3.978.526,3.91-1.525,3.614-3.314,2.314-.816,4.423-4.1.811-3.3,1.893-3.8.022-3.978,1.07-3.4-2.2-3.892-1.1-1.661-3.831-1.347-3.393-1.859-3.105-.382-3.6L277,287.56l-.792-4.138,1.858-3.482,3.463-2,3.256-1.724,3.54-.707,3.4-2.807,3.819,1.245,3.5,1.442,3.871,1.048,1.216,4.151,1.789,2.983Z" transform="translate(-123.52 -122.012)" fill="#e6e6e6"/>
      <path id="Trazado_213" data-name="Trazado 213" d="M260.392,142l4.178.763,2.657,3.307-1.26,3.872-3.019,2.088-3.756-.209-2.8-2.988,1.094-3.927Z" transform="translate(-114.714 -63.536)" fill="#e6e6e6"/>
      <path id="Trazado_214" data-name="Trazado 214" d="M271.168,204.807l4.116-1.39,3.781,2.209,3.344,2.108,3.138,2.61,1.395,3.859,1.707,4.126-2.044,3.942-1.98,3.643-3.251,2.558-3.83,1.351-4.1,1.983-3.811-2.483-4.679-.569-1.306-4.567-3.3-3.206.914-4.424.164-4.305,3.162-2.975,2.934-2.713Z" transform="translate(-116.486 -91.013)" fill="#e6e6e6"/>
      <path id="Trazado_215" data-name="Trazado 215" d="M341.37,459.451l-3.838-.327-2.517-3.113,1.047-3.744,2.928-2.155L343,449.92l2.462,3.429-1,3.9Z" transform="translate(-149.893 -201.303)" fill="#e6e6e6"/>
      <path id="Trazado_216" data-name="Trazado 216" d="M316.079,383.589l-4.445-.544-3.809-1.711-3.892-1.439-2.285-3.461-1.958-3.6-2.289-4.244,2.154-4.177,3.035-3.079,2.856-2.933,3.615-2.345,4.415-1.5,3.895,2.781,4.753.64,2.287,4.06.863,4.271.049,4.084,1,4.672-3.819,2.8-3.215,2.431Z" transform="translate(-133.063 -158.638)" fill="#e6e6e6"/>
      <path id="Trazado_217" data-name="Trazado 217" d="M230.69,267.1l-.485-3.914.907-3.807,1.274-3.687,1.654-3.879,2.888-3.4,4.108-1.848,4.479.764,3.964,1.237,3.224,2.366,4.207,1.123,1.865,3.759,2.4,3.511.831,4.245.088,4.512-4.288,2.7-1.072,4.282L253.8,278.48l-4.212,1.63-4.466-.451-3.669-2.521-4-.516-3.682-1.98L232.8,270.4Z" transform="translate(-102.998 -110.32)" fill="#e6e6e6"/>
      <path id="Trazado_218" data-name="Trazado 218" d="M216.618,120.153l2.17,1.381-1.246,2.244-2.115-1.387Z" transform="translate(-96.386 -53.759)" fill="#e6e6e6"/>
      <path id="Trazado_219" data-name="Trazado 219" d="M228.766,184.345l4.325,1.132,4.01,1.553,2.087,3.885-.71,4.2-2.168,3.36-3.461,1.884-3.929-.041-4.006-1.4-2.544-3.721,1.326-4.238,1.09-4.3Z" transform="translate(-99.493 -82.48)" fill="#e6e6e6"/>
      <path id="Trazado_220" data-name="Trazado 220" d="M315.154,506.815l-2.231-1.6,1.22-2.371,2.2,1.5Z" transform="translate(-140.008 -224.985)" fill="#e6e6e6"/>
      <path id="Trazado_221" data-name="Trazado 221" d="M292.059,431.654l-4.635-1.094-4.1-1.9-1.91-4.118.013-4.443,1.872-4.242,4.45-1.126,4.405-1,4.474,1.942,1.279,4.662-.222,4.33-1.3,4.6Z" transform="translate(-125.909 -185.115)" fill="#e6e6e6"/>
      <path id="Trazado_222" data-name="Trazado 222" d="M266.48,353.886l-3.762.36-4.433,1.978-3.3-3.075-3.752-1.942-.96-4.3-2.98-3.108-1.7-4.189,2.016-4.087,2.177-3.49,1.04-4.585,3.875-2.243,4.32-.612,4.079-.929,3.669,2.394,4.926-1.045,1.679,4.591,2.861,2.734,2.29,3.5,1.75,4.194-1.418,4.273-2.421,3.55-3.129,2.628-2.844,2.808Z" transform="translate(-109.881 -144.815)" fill="#e6e6e6"/>
      <path id="Trazado_223" data-name="Trazado 223" d="M204.706,316.8l-.448-4.128-.653-4.685,3.8-2.867,2.161-4.194,4.361-1.547,4.463.933,4.307.247,3.534,2.5,3.412,2.82.5,4.441,2.5,4.19-3.4,3.681-1.66,3.685-3.125,2.606-3.418,2.8-4.445.79-4.212-1.591-4.125-1.773-1.751-4.2Z" transform="translate(-91.097 -133.948)" fill="#e6e6e6"/>
      <path id="Trazado_224" data-name="Trazado 224" d="M189.269,241.732l.7-4.307,1.261-3.9,3.139-2.552,3.045-3.425,4.57-.225,3.354,3.133,4.1,1.633.418,4.4L212,240.6l-2.215,3.937-2.986,3.04-3.749,2.046-4.174-.675-4.055-.768L192.186,245Z" transform="translate(-84.683 -101.708)" fill="#e6e6e6"/>
      <path id="Trazado_225" data-name="Trazado 225" d="M186.131,166.085l3.7,2.135-2.23,3.629-4.154-2Z" transform="translate(-82.078 -74.31)" fill="#e6e6e6"/>
      <path id="Trazado_226" data-name="Trazado 226" d="M266,478.361l-4.269-3.052,2.355-4.455,4.306,2.757Z" transform="translate(-117.102 -210.669)" fill="#e6e6e6"/>
      <path id="Trazado_227" data-name="Trazado 227" d="M241.9,402.426l-4.371,1.056-4.3-1.571-2.91-3.413-2.126-3.839,1.132-4.229.348-4.235,3.1-2.94,3.914-1.281,4.1-1.1,4.074,1.45,3.675,2.545.256,4.537,1.364,4.022-1.562,4-2.3,3.895Z" transform="translate(-102.1 -170.413)" fill="#e6e6e6"/>
      <path id="Trazado_228" data-name="Trazado 228" d="M185.43,368.332l.244-4.375,1.909-4.027,4.076-1.8,4.2.481,4.09,1.531,1.286,4.163,1.213,4.369-3.13,3.283-3.392,2.915-4.634-.014-3.766-2.592Z" transform="translate(-82.965 -160.234)" fill="#e6e6e6"/>
      <path id="Trazado_229" data-name="Trazado 229" d="M165.488,292.05l0-4.616,1.919-4.439,4.5-1.739,4.369.852,3.932,1.786,2.039,3.884-.433,4.245-1.526,4.174-3.934,2.5-4.635-.378-3.966-2.275Z" transform="translate(-74.041 -125.84)" fill="#e6e6e6"/>
      <path id="Trazado_230" data-name="Trazado 230" d="M153.52,217.1l.025-3.715,3.129-2.274,3.525,1.021,2.624,2.6-.764,3.712-3.01,1.99-3.643-.226Z" transform="translate(-68.688 -94.456)" fill="#e6e6e6"/>
      <path id="Trazado_231" data-name="Trazado 231" d="M217.139,449.452l-3.361-.3-2.364-2.681.48-3.671,3.029-2.037,3.4.742,2.072,2.678-.383,3.435Z" transform="translate(-94.591 -197.205)" fill="#e6e6e6"/>
    </g>
  </g>
  <g id="Grupo_176" data-name="Grupo 176" transform="matrix(0.961, -0.276, 0.276, 0.961, 0.001, 92.018)">
    <g id="Grupo_175" data-name="Grupo 175" transform="translate(0 0)" clip-path="url(#clip-path-6)">
      <path id="Trazado_232" data-name="Trazado 232" d="M1.514,196.2,105.369,6.342a12.194,12.194,0,0,1,21.4,0L230.622,196.2a12.194,12.194,0,0,1-10.7,18.046H12.211A12.194,12.194,0,0,1,1.514,196.2" transform="translate(0 0)" fill="#e6e6e6"/>
      <path id="Trazado_233" data-name="Trazado 233" d="M18.555,212.758a4.362,4.362,0,0,1-3.827-6.456L118.583,16.442a4.362,4.362,0,0,1,7.654,0L230.094,206.3a4.362,4.362,0,0,1-3.827,6.456Z" transform="translate(-6.344 -6.341)" fill="none" stroke="#1a1a1a" stroke-width="7"/>
      <path id="Trazado_234" data-name="Trazado 234" d="M217.786,214.851c-.619-.113-1.451-.243-2.255-.367l-.244-.038a.957.957,0,0,0,.077-.348.914.914,0,0,0-.082-.439c1.433-.185,2.037-.337,2.046-1.126a.821.821,0,0,0-.207-.585l.3-.037c.839-.11,1.706-.223,1.686-1.076-.019-.828-.88-.928-1.509-1-.461-.053-1.07-.1-1.662-.149.573-.093,1.137-.188,1.579-.274.758-.148,1.617-.315,1.553-1.158-.06-.785-.8-.867-1.627-.891a.8.8,0,0,0,.214-.684,1.174,1.174,0,0,0-.183-.506c.514-.3,1.038-.647.942-1.3-.123-.837-1-.811-1.764-.787-.544.016-1.266.06-1.965.1-.325.02-.711.044-1.084.064a.975.975,0,0,0-.016-.237,1.042,1.042,0,0,0-.07-.23c.327-.1.663-.21.948-.3.644-.2,1.311-.411,1.806-.584.676-.236,1.517-.529,1.337-1.353a1.5,1.5,0,0,0-.619-.843l-.065-.051a3.486,3.486,0,0,0-.177-.407,1.857,1.857,0,0,1-.1-.212h0c-.208-.817-1.09-.7-1.8-.609-.442.058-1.006.148-1.573.241a.937.937,0,0,0-.036-.39,1.475,1.475,0,0,0-.6-.763l-.045-.033c-.01-.022-.022-.043-.034-.062.307-.148.633-.3.9-.427.543-.254,1.1-.517,1.521-.731.512-.263,1.2-.614,1.107-1.267.011-.031.024-.066.035-.093a1.493,1.493,0,0,0,.1-1.082,1.871,1.871,0,0,0-.456-.653c-.032-.034-.078-.081-.1-.109-.3-.672-1.074-.6-1.9-.522-.156.014-.388.036-.549.043.661-.5,1.021-.923.751-1.523-.291-.646-1.014-.616-1.595-.591-.085,0-.206.008-.3.009a.823.823,0,0,0-.264-.106c.394-.394.528-.747.3-1.2a.891.891,0,0,0-.443-.425c.461-.433.741-.8.665-1.224l.048-.111a1.565,1.565,0,0,0,.155-1.147c0-.034.01-.075.014-.106a1.519,1.519,0,0,0-.129-1.052c-.446-.735-1.2-.371-2.078.049-.572.275-1.327.663-2.057,1.038l-.33.17c.214-.184.415-.359.584-.513.429-.391,1.076-.982.611-1.665-.441-.645-1.189-.388-1.981-.116-.143.049-.354.122-.5.165-.461-.124-1.076.173-1.935.587l-.051.025a1.889,1.889,0,0,0,.146-.682c.135-.182.365-.459.517-.643.569-.685,1-1.2.966-1.679.059-.108.143-.249.2-.346.349-.582.744-1.242.264-1.807-.543-.639-1.268-.166-1.851.215-.42.275-.964.656-1.491,1.027-.307.215-.686.482-1.03.717-.018-.029-.038-.057-.06-.086s-.012-.046-.018-.069a1.584,1.584,0,0,0-.366-.738,1,1,0,0,0-.256-.2l.023-.031c.752-1.034,1.194-1.642.972-2.165.008-.04.018-.082.025-.116a1.376,1.376,0,0,0-.228-1.391.775.775,0,0,0-.921-.2.788.788,0,0,0-.243-.974,1.673,1.673,0,0,1-.133-.171,2.533,2.533,0,0,0-.405-.467,1.437,1.437,0,0,0-1.094-.263l-.074,0a.8.8,0,0,0-.259-.079c.852-1.428,1.08-1.983.457-2.463-.668-.515-1.27.1-1.8.64-.3.305-.669.7-1.043,1.107a.833.833,0,0,0-.15-.2l-.017-.061a1.478,1.478,0,0,0-.537-.855.979.979,0,0,0-.474-.174c.205-.684.31-1.3-.262-1.672-.6-.383-1.108,0-1.712.565a.977.977,0,0,0-.346-.342.844.844,0,0,0-.561-.135l.061-.156c.225-.588.534-1.394-.195-1.793a3.015,3.015,0,0,0-.319-.148c.018-.1.037-.211.053-.3.15-.819.292-1.592-.4-1.938-.768-.386-1.236.353-1.731,1.134-.337.531-.768,1.253-1.184,1.952-.446.747-1.017,1.7-1.358,2.22a.53.53,0,0,1-.061-.023c-.051-.023-.1-.044-.149-.061.065-.269.148-.584.213-.831.427-1.612.621-2.348-.184-2.687a.869.869,0,0,0-.7-.007.979.979,0,0,0-.6-1.076,1.785,1.785,0,0,0-.344-.091c0-.07,0-.138.007-.195.025-.663.05-1.295-.347-1.636-.013-.044-.028-.094-.039-.133a1.412,1.412,0,0,0-.825-1.1c-.689-.22-1.02.185-1.582,1.313a.868.868,0,0,0-.479-.311.84.84,0,0,0-.612.03c.008-.083.016-.162.023-.238.05-.567.127-1.423-.669-1.618-.832-.2-1.128.629-1.416,1.433-.164.459-.359,1.049-.555,1.649.06-.6.119-1.2.15-1.667.041-.6.086-1.254-.306-1.581-.024-.072-.051-.16-.072-.228-.151-.5-.339-1.114-.986-1.225-.583-.1-.889.306-1.083.749a.767.767,0,0,0-.7-.535c-.708-.1-1.058.537-1.365,1.1-.049.09-.121.22-.178.315a1.243,1.243,0,0,0-.51.691.766.766,0,0,0-.681-.393c-.852-.069-1.038.674-1.4,2.156-.153-1.508-.289-2.1-1.065-2.129-.032-.008-.1-.034-.151-.051a2.051,2.051,0,0,0-.69-.153,1.666,1.666,0,0,1-.212-.043,2.826,2.826,0,0,0-.617-.088,1.01,1.01,0,0,0-.742.335,1.381,1.381,0,0,0-.374-.375c-.058-.133-.131-.325-.181-.456-.283-.747-.553-1.449-1.307-1.408-.483.029-.716.265-.852.8a.8.8,0,0,0-.849-.427,1.423,1.423,0,0,0-1.006.745l-.061.088c-.476.2-.6.775-.69,1.544a1.661,1.661,0,0,0-.341.024c-.191-.551-.48-1.066-1.147-.956a.841.841,0,0,0-.563.327.8.8,0,0,0-.7-.264.879.879,0,0,0-.412.126,1.153,1.153,0,0,0-.707-.275H159.7l-.088-.046a1.5,1.5,0,0,0-1.059-.221.923.923,0,0,0-.342.153.871.871,0,0,0-.508-.009.774.774,0,0,0-.618.545,1.128,1.128,0,0,0-.118.024c-.647.177-.763.826-.855,1.347-.011.061-.025.138-.039.207a.9.9,0,0,0-.805-.007c-.735.338-.588,1.037-.241,2.276-.086-.084-.177-.173-.267-.263a1.647,1.647,0,0,0-.558-.559c-.81-.8-1.316-1.2-1.935-.771-.466.321-.5.7-.2,1.407a.99.99,0,0,0-.883-.215c-.439-.558-.808-.773-1.322-.542a1.406,1.406,0,0,0-.7,1.116c-.007.032-.015.071-.024.108-.275.269-.288.672-.183,1.222a2.141,2.141,0,0,0-.039.291c-.019.018-.038.035-.056.056a.9.9,0,0,0-.057,1.155.78.78,0,0,0-.237.291c-.61-.758-1.01-1.023-1.56-.732-.032.007-.09.015-.135.022a1.881,1.881,0,0,0-.714.217,1.913,1.913,0,0,0-.433.361,1.564,1.564,0,0,0-1.043-.172l-.094-.028a1.407,1.407,0,0,0-1.234.054.809.809,0,0,0-.407.645c-.561-.5-.945-.619-1.41-.29-.7.5-.279,1.239.166,2.026.3.528.716,1.221,1.12,1.891l.092.154c-.873-.8-1.384-1.146-1.973-.679-.634.5-.281,1.249.128,2.115l.083.177c-.731-.569-1.245-.829-1.756-.408-.029.012-.08.03-.118.044a1.814,1.814,0,0,0-.661.36.828.828,0,0,0-.3.542l0,0a1.681,1.681,0,0,0-1.283-.476c-.07-.021-.154-.049-.219-.07a1.425,1.425,0,0,0-1.559.107.778.778,0,0,0-.262.732c-.453-.284-1.021-.532-1.478-.056-.032.022-.1.061-.155.088a2.079,2.079,0,0,0-.6.433,1.443,1.443,0,0,0-.248,1.195l.012.1c-.27.558.19,1.141.9,2.036.18.228.43.547.563.741a2.542,2.542,0,0,0,.448,1.105l.074.125a3.3,3.3,0,0,0-1.711-.646c-.22-.082-.582-.244-.82-.35-1.121-.5-1.862-.832-2.343-.16s.135,1.263.585,1.7c.332.32.786.726,1.225,1.118.458.409,1.112.994,1.4,1.29a2,2,0,0,0,.251.633l-.162-.062c-1.127-.432-1.872-.717-2.311,0a1.123,1.123,0,0,0-.133.312l-.227-.073c-1.131-.367-1.878-.61-2.287.107a.8.8,0,0,0-.111.651l-.15-.059c-.769-.3-1.563-.606-1.957.144s.322,1.236,1.083,1.741c.514.341,1.214.778,1.89,1.2l.454.283c-.8-.159-1.417-.191-1.707.44a.9.9,0,0,0-.1.5c-.436-.148-.848-.284-1.2-.394-.956-.3-1.782-.56-2.116.237-.327.779.433,1.208,1.1,1.587.173.1.367.2.576.317-.15,0-.36-.012-.5-.019-.814-.041-1.583-.081-1.841.638-.225.624.229,1.091.594,1.467.05.051.116.119.168.176a2.052,2.052,0,0,0,.815,1.064c.067.057.162.138.235.2.135.484.749.815,1.577,1.261l.22.119a1.3,1.3,0,0,0-1.022.843,1.256,1.256,0,0,0,.278,1.078c-.471-.044-1.039-.107-1.484-.156-.652-.072-1.326-.148-1.835-.187-.7-.055-1.572-.122-1.742.7s.555,1.12,1.875,1.655c.3.123.729.3.963.41a2.42,2.42,0,0,0,.77.7c.061.041.139.093.2.139a1.641,1.641,0,0,0,.843.743,1.014,1.014,0,0,0-.188.75l-.746-.018c-.785-.02-1.6-.039-2.2-.039-.906,0-1.762,0-1.848.856a1.154,1.154,0,0,1-.046,1.721c-.056.852.7,1.028,2.2,1.379.356.083.862.2,1.123.284a3.241,3.241,0,0,0,1.516.573v0l-.087.053a2.266,2.266,0,0,0-.575.445c-.366.08-1.093.185-1.606.26-2.12.308-2.834.412-2.813,1.3.02.853.9.925,1.742,1,.477.039,1.086.075,1.7.108-.761.118-1.546.239-2.132.346-.885.162-1.72.315-1.655,1.167s.835.919,2.37,1.061c.353.033.849.078,1.126.123l0,0a1.071,1.071,0,0,0-.62,1.069,1.266,1.266,0,0,0,.125.406l-.03.016c-.672.338-1.368.688-1.244,1.436.118.716.71.824,1.771.851a.908.908,0,0,0-.043.531c.168.837.881.812,2.579.7.025.154.051.313.078.474-.362.172-1.049.449-1.542.647-.508.2-1.033.416-1.425.592-.514.231-1.292.58-1.077,1.367.222.811.99.747,2.387.629.225-.019.517-.043.756-.057-.682.385-1.037.7-.989,1.18l-.036.074a1.432,1.432,0,0,0-.172,1.138c.279.8,1.117.612,1.856.448.391-.086.875-.207,1.374-.333a.915.915,0,0,0,.068.414.985.985,0,0,0,.155.27l-.426.24c-.506.284-1.029.578-1.416.815-.429.262-1.048.641-1,1.226-.017.036-.038.077-.054.109a1.43,1.43,0,0,0-.165,1.26c.354.787,1.168.509,2.11.186.264-.09.564-.2.884-.313a.954.954,0,0,0,.942,1.04.946.946,0,0,0-.153.445c-.052.071-.118.156-.165.217a2.124,2.124,0,0,0-.55,1.091c-.067.09-.159.206-.223.286-.4.5-.855,1.069-.494,1.687s1.019.5,1.795.307a1.024,1.024,0,0,0,.159.511c.474.749,1.113.446,3.011-.454l.284-.134c0,.018.01.035.017.052l-.014.06a1.388,1.388,0,0,0,.133,1.153.976.976,0,0,0,.242.242l-.218.211c-1.542,1.5-2.062,2-1.524,2.707.481.63,1.226.316,2.089-.049.17-.072.424-.179.593-.24.48.083,1.118-.285,2.11-.858.267-.154.623-.36.888-.5a1.6,1.6,0,0,0-.038.318c-.288.365-.965,1.107-1.439,1.627-.444.487-.9.991-1.237,1.382-.458.537-1.027,1.2-.463,1.824a1.524,1.524,0,0,0,.95.424l.036.006.045.078a2.524,2.524,0,0,0,.374.529c.593.607,1.294.061,1.912-.42.234-.183.507-.4.794-.638l-.3.417c-.328.45-.666.916-.91,1.28-.317.473-.8,1.188-.195,1.742.621.573,1.288,0,1.877-.505.144-.123.3-.263.47-.413a.756.756,0,0,0,.194.376c.007.027.013.057.019.082a2.236,2.236,0,0,0,.155.492c-.033.109-.078.243-.109.338-.21.628-.448,1.339.119,1.793a2.527,2.527,0,0,1,.209.209,3.588,3.588,0,0,0,.418.4.93.93,0,0,0,1.076.054.9.9,0,0,0,.378.9c.719.517,1.211-.017,2.672-1.6.371-.4.9-.982,1.17-1.227a3.346,3.346,0,0,0,1.2-.821l.128-.114a1.908,1.908,0,0,0,.022.671c-.123.345-.425,1.029-.638,1.509-.864,1.952-1.155,2.61-.392,3.063a.866.866,0,0,0,1.1-.161.819.819,0,0,0,.449.862c.643.353,1.181-.131,1.7-.611.019.02.038.041.059.061.006.041.01.084.014.119a1.843,1.843,0,0,0,.31.968c0,.067.009.146.012.207.024.472.057,1.118.645,1.389.244.113.537.244.783.353.768.337,1.218-.416,1.58-1.02.264-.44.594-1.036.913-1.611l.026-.047c-.371,1.577-.455,2.2.3,2.488a.961.961,0,0,0,1.125-.355.867.867,0,0,0,.572.56,1.383,1.383,0,0,0,1.224-.281l.068-.044a.705.705,0,0,0,.334-.073c-.106.691-.229,1.543.573,1.769s1.114-.393,1.77-1.9a.907.907,0,0,0,.381.189c.826.2,1.147-.539,1.677-1.769l.113-.26a1.226,1.226,0,0,0,.88.875c.048.009.093.019.138.03,0,.4-.019.984-.035,1.416-.076,2.151-.1,2.876.777,3.011.833.127,1.064-.7,1.267-1.431.092-.332.194-.737.3-1.162,0,.049,0,.1,0,.141.009.541.017,1.1.041,1.525.03.526.079,1.406.891,1.488.833.085,1.059-.684,1.432-1.956.075-.254.176-.6.256-.834l.081-.031a1.308,1.308,0,0,0,.9.484c.6.027.889-.42,1.1-.924.033.212.064.429.091.613.253,1.746.368,2.546,1.234,2.545h.008a.855.855,0,0,0,.882-.708.773.773,0,0,0,.617.414l.07.051a1.743,1.743,0,0,0,.731.356l.073.064a1.509,1.509,0,0,0,.986.474q.04,0,.081,0c.535-.041.764-.381.9-.964a.875.875,0,0,0,.414.171c.238.038.576.072.848.1l.166.017c.04,0,.078.006.114.006a.779.779,0,0,0,.579-.239.892.892,0,0,0,.344.083l.052,0c.62,0,.936-.549,1.215-1.035.045-.077.109-.19.161-.271a1.059,1.059,0,0,0,.477-.708c.411,1,.717,1.438,1.395,1.3a.834.834,0,0,0,.763.2c.564-.107.754-.573.866-1.137a1.025,1.025,0,0,0,.982.215.8.8,0,0,0,.609-.708.934.934,0,0,0,.227-.121.845.845,0,0,0,1.084.256,1,1,0,0,0,.271-.179.935.935,0,0,0,.727-.072c.633-.338.493-.989.288-1.552.041.031.083.061.125.088.3.517.707,1.068,1.384.8a.877.877,0,0,0,.425-.324.8.8,0,0,0,.649-.181c.022-.017.039-.034.059-.051l.015,0c.057.042.123.094.175.134a1.437,1.437,0,0,0,1.479.432c.158-.071.313-.156.464-.238.106-.058.211-.116.309-.162.768-.362.491-1.173.224-1.957-.071-.208-.154-.443-.244-.691a2.181,2.181,0,0,0,.324-.289,1.07,1.07,0,0,0,.134-.19.819.819,0,0,0,.83-.017c.711-.382.5-1.149.243-2.12-.009-.034-.019-.07-.029-.109.239.322.468.626.664.875.34.431.745.944,1.247.944h.008c.069.04.152.092.215.132.448.279,1.005.627,1.568.271.5-.313.53-.7.238-1.48a.8.8,0,0,0,.759-.124,1.411,1.411,0,0,0,.515-1.153c0-.027,0-.06.008-.091.344-.416.131-.974-.437-2.064.112.113.22.224.318.324.417.425.847.866,1.185,1.187.455.433,1.079,1.025,1.727.513.67-.53.217-1.246-.262-2-.32-.506-.766-1.169-1.2-1.81l-.33-.49a1.018,1.018,0,0,0,.588-.675,1.616,1.616,0,0,0,.659.154c.188.114.488.323.686.461.971.677,1.614,1.125,2.213.559s.094-1.281-.322-1.847c-.215-.292-.489-.647-.775-1.011.5.394,1.007.8,1.4,1.091.564.417,1.266.937,1.846.33.494-.518.188-1.165-.081-1.736-.04-.086-.1-.208-.14-.306a2.063,2.063,0,0,0-.269-1.168l-.009-.021.024.014c1.27.738,1.97,1.145,2.514.488s-.057-1.278-.534-1.786c-.261-.279-.6-.619-.944-.966a.936.936,0,0,0,.323-.276,3.842,3.842,0,0,0,.282-.434,2.706,2.706,0,0,1,.149-.24c.364-.488.145-.978-.193-1.458l.433.215c1.752.871,2.408,1.2,2.9.464.45-.675-.108-1.263-.813-2.008-.141-.149-.353-.372-.478-.522,0-.023-.009-.045-.014-.067.554.136.918.063,1.181-.382a.825.825,0,0,0,.122-.64c.451.14,1.088.252,1.417-.349a.835.835,0,0,0,.118-.558c.165.064.321.124.465.178.779.29,1.584.591,1.966-.169s-.333-1.227-.9-1.614l-.048-.033a.694.694,0,0,0,.183-.1l.21-.009c.49-.019,1.162-.045,1.429-.654.339-.77-.423-1.223-1.036-1.586-.448-.266-1.054-.6-1.64-.922-.37-.2-.835-.459-1.234-.687a1.011,1.011,0,0,0,.995-.633,1.057,1.057,0,0,0,.07-.372,2.184,2.184,0,0,0,1.6-.215c.07-.011.153-.02.217-.028.495-.059,1.171-.139,1.379-.786a.85.85,0,0,0,.017-.555c.255.048.494.092.707.128.829.139,1.686.283,1.917-.536s-.486-1.16-1.785-1.788l-.307-.149a1.059,1.059,0,0,0,.135-.317.864.864,0,0,0-.022-.544c.211.019.409.034.586.046.588.038,1.475.094,1.644-.716.173-.832-.64-1.1-1.426-1.353-.537-.175-1.258-.387-1.956-.591l-.113-.033a.964.964,0,0,0,.116-.33,1.936,1.936,0,0,0,.025-.215c.254-.012.551-.019.786-.025,1.538-.039,2.31-.059,2.426-.908.111-.819-.537-1.045-2.1-1.478.782.006,1.585.012,2.19,0,.914-.018,1.778-.034,1.848-.889s-.79-1.013-1.7-1.18m-2.526-13.763a.881.881,0,0,1,.054.127,1.106,1.106,0,0,0,.064.19c-.392.13-.844.272-1.236.4l-.135-.528c.457-.074.924-.144,1.253-.184M180.317,170.48l.051-.143a.864.864,0,0,0,.388.208c.526.139.851-.109,1.18-.651a.86.86,0,0,0,.477.328c.8.243,1.117-.364,1.894-1.991-.024.731,0,1.4.658,1.632a1.776,1.776,0,0,0,.244.067c-.018.124-.036.25-.051.35-.154,1.019-.275,1.823.475,2.122a.883.883,0,0,0,.376.071c-.272,1.1-.3,1.661.359,1.949a2.333,2.333,0,0,0,.534.153,1.049,1.049,0,0,1,.165.039,2.646,2.646,0,0,0,.494.164,1.174,1.174,0,0,1,.2.059c.761.367,1.205-.332,1.719-1.143.337-.531.768-1.253,1.184-1.951l.332-.555a.985.985,0,0,0,.225.158c.046.025.093.048.14.068-.166.423-.409.995-.593,1.426-.233.547-.474,1.112-.64,1.546-.223.584-.53,1.382.181,1.788.744.425,1.244-.2,2.239-1.432l.045-.055a1,1,0,0,0,.215.177.9.9,0,0,0,1.013-.022.865.865,0,0,0,.4.643,1.172,1.172,0,0,0,1.075.077c-.082.2-.209.478-.3.668-.471,1.026-.811,1.767-.153,2.257.561.417,1.074.051,1.537-.4a.838.838,0,0,0,.3.432c.629.5,1.241.024,2.087-.64.152-.119.376-.3.539-.411a2.109,2.109,0,0,0,.434.008c-.217.333-.548.8-.794,1.151-1.228,1.741-1.642,2.328-1,2.924.537.495,1,.264,2.074-.6-.684.959-.966,1.5-.445,2.035a1.2,1.2,0,0,0,1.19.248,1.409,1.409,0,0,0,.072.15l0,.018a1.359,1.359,0,0,0,.232,1.163c.545.619,1.264.15,1.841-.227.24-.157.522-.349.817-.554-.458.567-.752,1.014-.649,1.448l-.029.074a1.583,1.583,0,0,0-.121,1.092c0,.009,0,.019-.007.028a1.351,1.351,0,0,0,.137,1.162c.455.62,1.1.38,2.116-.106l-.178.16c-.425.388-1.068.974-.621,1.654a1.757,1.757,0,0,0,.506.485c.024.017.049.033.072.05.454.668,1.193.313,2.047-.1.571-.275,1.324-.661,2.052-1.036.537-.276,1.178-.605,1.711-.868a2.068,2.068,0,0,0-.164.566c-.163.158-.43.389-.608.544-.9.78-1.494,1.295-1.109,2.011a.92.92,0,0,0,.276.32c-.885.671-1.286,1.094-.967,1.742.364.738,1.138.539,2.309.239.116-.03.26-.067.4-.1-.568.454-.838.839-.6,1.389.288.672,1.034.626,1.693.585.107-.006.261-.016.377-.018a2.682,2.682,0,0,0,1.549.118c.132-.013.316-.03.467-.039.045.051.088.1.129.139a2.836,2.836,0,0,0-.1.3c-.389.212-1.144.565-1.681.816s-1.106.518-1.524.732c-.558.286-1.322.678-1.066,1.453a1.158,1.158,0,0,0,.712.7c0,.059,0,.121.006.185a4.9,4.9,0,0,0-.939.6c-.03-.081-.06-.162-.089-.237-.217-.558-.582-1.493-1.439-1.274-.643.164-.736.766-.723,1.248a.857.857,0,0,0-.1-.04c-.043-.072-.09-.156-.126-.222-.261-.47-.7-1.257-1.527-1.047-.747.191-.806.927-.752,1.736a.854.854,0,0,0-.19-.014,1.364,1.364,0,0,0-.8-.332,1.3,1.3,0,0,0-1.333-.559c-.845.215-.735,1.211-.682,1.69s.152,1.071.25,1.656c.066.392.15.9.206,1.307a1.528,1.528,0,0,0-.218.04,1.11,1.11,0,0,0-.8,1.1c-.086-.187-.181-.414-.249-.578-.415-.992-.807-1.93-1.712-1.7a.982.982,0,0,0-.4.2c-.414-1.026-.789-1.638-1.562-1.442-.751.191-.819.958-.811,1.574a1.136,1.136,0,0,0-.255.007c-.239-.495-.811-.586-1.352-.642a1.255,1.255,0,0,0,0-.278l.034-.071a1.442,1.442,0,0,0,.18-1.091c-.237-.779-1.108-.659-1.628-.588-.421.057-.97.155-1.5.249l-.273.049a2.145,2.145,0,0,0,.8-.858c.133-.1.342-.245.482-.34.721-.492,1.346-.92,1.148-1.621,0-.034.008-.086.012-.123a1.742,1.742,0,0,0-.054-.818,1.039,1.039,0,0,0-.184-.32.865.865,0,0,0-.046-.485c-.2-.549-.668-.621-1.18-.557a.809.809,0,0,0,.091-.812,1.394,1.394,0,0,0-1.064-.756l-.106-.029a.944.944,0,0,0-.733-.265.771.771,0,0,0,.118-.9,1.116,1.116,0,0,0-.089-.168.8.8,0,0,0-.013-.687,1.129,1.129,0,0,0-1.108-.613c0-.02-.011-.04-.015-.061a3,3,0,0,0-.178-.542.865.865,0,0,0-.344-.4,1.016,1.016,0,0,0-.092-.3.943.943,0,0,0-1.006-.528c-.033-.065-.065-.129-.1-.193.078-.077.161-.157.225-.219.556-.534,1.084-1.041.834-1.674,0-.031,0-.072.006-.1a1.613,1.613,0,0,0-.14-.9,1.016,1.016,0,0,0-.758-.521.871.871,0,0,0,.13-1.047,4.16,4.16,0,0,0-.3-.443c-.07-.094-.135-.183-.176-.253-.367-.632-1.1-.5-1.743-.385-.1.018-.239.043-.35.059a1.129,1.129,0,0,0-.724-.025.8.8,0,0,0-.085-.8.842.842,0,0,0-.431-.378c.121-.1.235-.195.34-.283.563-.475,1.142-.965.938-1.561.007-.033.014-.068.021-.1a1.437,1.437,0,0,0-.115-1.186.8.8,0,0,0-.662-.378.985.985,0,0,0-.084-.142.935.935,0,0,0-.791-.4.993.993,0,0,0-.04-1.112c-.393-.519-.914-.422-1.685-.079a.858.858,0,0,0-.012-.188c.031-.074.071-.162.1-.23.218-.481.49-1.079.064-1.591a1.436,1.436,0,0,0-1.214-.4h-.111c-.392-.245-.865-.087-1.48.227a.689.689,0,0,0-.082-.313c0-.032.008-.065.011-.092a1.669,1.669,0,0,0-.1-.985c-.008-.018-.018-.034-.028-.051s-.026-.043-.041-.064a1.046,1.046,0,0,0-.072-.09c-.01-.012-.018-.024-.029-.035a1.05,1.05,0,0,0-.132-.115.713.713,0,0,0-.554-.171c.37-.5.763-1.1.386-1.613a2.627,2.627,0,0,0,.771-1.354m8.733,77.766c.048-.07.1-.142.15-.224a1.046,1.046,0,0,0-.008-1.1l.113.044c.054.428.459.828,1.015,1.336-.006.04-.009.082-.01.124a1.728,1.728,0,0,0-1.255-.17l0-.006m5.025-30c-1.749.417-2.474.589-2.4,1.451.042.492.324.721.858.85a.831.831,0,0,0-.184.624.892.892,0,0,0,.559.79,1.216,1.216,0,0,0-.214.721.636.636,0,0,1,.612,1.089l-.116.066c-.072.041-.151.087-.232.139-.716.109-1.306.3-1.3,1.006a.793.793,0,0,0,.4.726.849.849,0,0,0-.449.773.809.809,0,0,0,.2.579c0,.056-.011.112-.013.174a.9.9,0,0,0,.362.761v0a1.243,1.243,0,0,0,.433.942,1.479,1.479,0,0,0-.171.582c-.036.572.247.829,1.015,1.055a1.475,1.475,0,0,0,.516.85,2.458,2.458,0,0,0-.121.518.836.836,0,0,0,.24.719.974.974,0,0,0-.618.345l-.138.047c-.411.137-1.031.344-1.127.991a.819.819,0,0,0,.354.835c-.014.028-.031.06-.046.088a1.98,1.98,0,0,0-.24.615c-.153.843.566,1.1,2.14,1.662.218.078.488.174.729.265a1.506,1.506,0,0,0-1.18.348l-.141.038c-.4.107-1.011.269-1.167.881a.906.906,0,0,0,.4,1.01.862.862,0,0,0-.262.186c-.96-.123-1.606-.181-1.969.116l-.177.016c-.46.038-1.155.094-1.377.748a.884.884,0,0,0,.4,1.061c-.04.107-.08.208-.121.311l-.082.208a.872.872,0,0,1-.077,1.519,1.363,1.363,0,0,0,.119,1.183l.012.024c0,.018,0,.035-.006.052-.1-.039-.2-.075-.292-.107-.529-.188-1.329-.471-1.722.234a2.105,2.105,0,0,0-.2.532,1.073,1.073,0,0,1-.03.108,1.337,1.337,0,0,0,.273,1.482l-.015.022-.133.188a1,1,0,0,0-.117.221c-.666-.308-1.284-.51-1.727.035-.531.652.051,1.261.726,1.967.277.29.618.634.978.994a1.251,1.251,0,0,0,.031.569l-.077.006c-.13-.078-.3-.194-.423-.274l-.248-.164c-.776-.651-1.242-.951-1.663-.837a1.245,1.245,0,0,0-1.246.083c-.456.351-.39.822-.184,1.3a1.058,1.058,0,0,0-.3.13.807.807,0,0,0-.4.547,1.294,1.294,0,0,0-.427-.119.816.816,0,0,0,.125-.747.913.913,0,0,0-.414-.584.945.945,0,0,0,.4-1.048,2.106,2.106,0,0,0-.238-.584.464.464,0,0,1-.065-.157,1.287,1.287,0,0,0-1.041-.9,1.414,1.414,0,0,0-1.139-.53l.064-.027c.8-.34,1.567-.664,1.677-1.276l.045-.032a1.361,1.361,0,0,0,.726-1.413c-.2-.8-.877-.818-2.52-.551.719-.319,1.5-.684,1.494-1.383a1.28,1.28,0,0,0,.3-1.158c-.246-.966-1.143-.8-4.111-.238l-.153.029a1.035,1.035,0,0,0-.033-.333,2.138,2.138,0,0,0-.11-.328l.068-.036c.386-.2.971-.514,1.121-1.032.081-.048.178-.1.248-.138.486-.263,1.3-.7,1.086-1.538-.236-.928-1.222-.794-2.712-.591l-.116.015c1.147-.443,1.643-.8,1.455-1.533a1.03,1.03,0,0,0-.936-.771.872.872,0,0,0,.043-.125c.081-.048.176-.1.246-.136.487-.263,1.3-.7,1.09-1.54a1.394,1.394,0,0,0-.524-.787c-.283-.848-1.244-.682-3.459-.3l-.266.045a1.062,1.062,0,0,0-.034-.322,2.724,2.724,0,0,0-.186-.522,1.041,1.041,0,0,1-.082-.228,1.308,1.308,0,0,0-.68-.843c-.008-.019-.017-.038-.027-.056.372-.13.773-.264,1.1-.374.644-.216,1.31-.438,1.807-.632.561-.218,1.5-.582,1.28-1.441a.869.869,0,0,0-.892-.7.833.833,0,0,0,.107-.738c-.232-.907-1.22-.8-2.364-.676-.247.027-.62.067-.855.075a3.293,3.293,0,0,0-2.15-.13l-.149.018a1.48,1.48,0,0,0,.619-.82c.059-.036.124-.073.177-.1.417-.24,1.192-.686.987-1.52,0-.01,0-.019.006-.028a1.653,1.653,0,0,0-.02-.775,1.19,1.19,0,0,0-.114-.289l.3-.115c1.412-.537,2.346-.892,2.109-1.82a1.082,1.082,0,0,1-.5-1.512,1.189,1.189,0,0,0-1.212-.828,1.14,1.14,0,0,0,0-.421,1.438,1.438,0,0,0,.062-.915c-.23-.9-1.233-.8-2.295-.693l-.327.032a1.458,1.458,0,0,0-.045-.3,1.028,1.028,0,0,0-.135-.314l.049-.017c.639-.214,1.3-.435,1.792-.628a2.256,2.256,0,0,0,1.21-.813.976.976,0,0,0,.4-.022c.932-.238.794-1.21.564-2.819,0-.014,0-.029-.006-.043a1.249,1.249,0,0,0,1.354.726,1.3,1.3,0,0,0,.9-1.11,1.462,1.462,0,0,0,.492-1.2l.033.077c.411.969.8,1.884,1.7,1.655a1.107,1.107,0,0,0,.364-.164c.358.808.763,1.55,1.574,1.343.857-.218.823-1.19.8-1.833,0-.1-.009-.247-.008-.367a1.412,1.412,0,0,0,.394-.632,2.236,2.236,0,0,0,.531-.075c.747-.191.807-.908.744-1.75a1.092,1.092,0,0,0,.789-.175c.159.458.318.906.461,1.26.2.486.565,1.39,1.413,1.174s.822-1.2.8-1.844v-.017c.367.978.67,1.553,1.155,1.662l.057.086c.217.331.669,1.02,1.45.821.866-.22.817-.991.481-2.947a.984.984,0,0,0,.4-.024c.019,0,.036-.012.054-.017a.945.945,0,0,0,.012.44,1,1,0,0,0,.747.733.818.818,0,0,0-.146.722c.146.679.817.81,1.357.915.069.013.156.03.231.047a1.139,1.139,0,0,0,.717.293.789.789,0,0,0-.164.693,1.56,1.56,0,0,1-.018.162,2.95,2.95,0,0,0-.031.352c-.444.253-.863.554-.9,1.04l-.032.047a1.427,1.427,0,0,0-.31,1.03c.078.5.362.7.938.788a.753.753,0,0,0-.162.346c-.18.04-.353.08-.508.118-.95.228-1.772.426-1.664,1.269.1.814.96.836,1.586.852.372.01.84.007,1.317,0a.935.935,0,0,0-.027.364.989.989,0,0,0,.084.313l-.045.011M167.809,254c.1-.086.2-.18.3-.295a.692.692,0,0,0,.025.067c-.106.123-.207.238-.287.321l-.054.013c.006-.036.009-.071.013-.106m4.766-2.724a.911.911,0,0,0-.739-.02.8.8,0,0,0-.437-.581.871.871,0,0,0-.512-.12.846.846,0,0,0-.4-.964c-.681-.432-1.242.192-1.614.605-.283.314-.639.742-.982,1.156l-.018.022a1.716,1.716,0,0,0,.065-.771c.061-.153.16-.371.228-.519.362-.792.705-1.54.081-2.038-.467-.374-.9-.221-1.5.237a.93.93,0,0,0-.259-.355.869.869,0,0,1-1.02-1.042.836.836,0,0,0-.633-.256.854.854,0,0,0-.028-.917c0-.011,0-.022,0-.034a1.463,1.463,0,0,0-.349-.855c-.464-.5-1.033-.25-1.509.048a.834.834,0,0,0-.082-.272c.37-.443.705-.987.265-1.515a.823.823,0,0,0-.776-.311.88.88,0,0,0-.164-.812c-.449-.575-1.152-.346-1.716-.161-.086.028-.21.069-.307.1a2.159,2.159,0,0,0-1.4.417c-.183.1-.39.219-.608.346a.992.992,0,0,0-.171-.423.948.948,0,0,0-.23-.232l.008-.007c.427-.37.868-.752,1.191-1.055.417-.391,1.048-.981.6-1.656-.332-.5-.8-.449-1.331-.239a.919.919,0,0,0-.78-1.022,1.059,1.059,0,0,0,.075-.735c.371-.432.573-.852.29-1.339-.391-.674-1-.516-2.341.01.271-.19.528-.373.74-.532.5-.375,1.184-.887.8-1.61a1.351,1.351,0,0,0-1.156-.611l-.072-.008a.806.806,0,0,0-.267-.148.912.912,0,0,0,.234-1.125c-.366-.745-1.2-.47-1.862-.25-.4.133-.911.317-1.425.506a.969.969,0,0,0-.094-.352.873.873,0,0,0-.34-.395c.811-.567,1.134-.954.868-1.562a1.4,1.4,0,0,0-.377-.493c.515-.393.682-.714.519-1.169a.992.992,0,0,0,.128-.958,1.526,1.526,0,0,0-.587-.671l-.048-.034a2.137,2.137,0,0,0-.145-.254c.566-.42,1.017-.85.782-1.486a.835.835,0,0,0-.672-.574.825.825,0,0,0,.151-.847,1.506,1.506,0,0,0-.577-.707l-.042-.031c-.281-.613-.916-.561-2.374-.29,0-.024,0-.051,0-.076,1-.508,1.4-.845,1.21-1.5.025,0,.05-.009.076-.015.873-.222.816-1.191.77-1.969-.008-.143-.02-.349-.022-.5a.814.814,0,0,0,.064-.082,1.132,1.132,0,0,0,.71.548l.028.039a1.353,1.353,0,0,0,1.406.708c.788-.2.847-1.04.875-1.444l.009-.124c.437-.385.4-1.131.371-1.705,0-.07-.008-.156-.011-.243a2.859,2.859,0,0,0,.3-.062c.79-.2.847-1.045.874-1.452,0-.019,0-.041,0-.063.071-.034.132-.07.19-.1a.369.369,0,0,1,.142-.06,1.079,1.079,0,0,0,.306-.129l.056.163c.2.571.4,1.16.58,1.6s.5,1.246,1.216,1.2a1.4,1.4,0,0,0,.643.239l.038.055c.216.322.665.99,1.439.792a.831.831,0,0,0,.6-.5.89.89,0,0,0,1.021.434,1.281,1.281,0,0,0,.9-.994c.589-.369.47-1.288.312-2.5-.018-.135-.039-.3-.059-.467a1.305,1.305,0,0,0,.287-.04,1,1,0,0,0,.361-.167c.158.478.313.935.452,1.306.246.658.581,1.552,1.393,1.4a1.434,1.434,0,0,0,.916.062.937.937,0,0,0,.64-.513c.366.487,1.129.456,1.713.43h.01a1.474,1.474,0,0,0,.046.355c.23.9,1.233.8,2.3.694l.349-.034v.019a1.266,1.266,0,0,0-.348,1.195,1.077,1.077,0,0,0,.957.8,1.054,1.054,0,0,0-.016.6,1.084,1.084,0,0,0,.136.319l-.019.007c-1.412.537-2.345.892-2.109,1.82a1.206,1.206,0,0,0,.843.85c0,.031,0,.062-.006.1l-.133.077c-.335.193-.9.52-1.007,1.064l-.073.049c-.3.2-.885.6-.819,1.264a1.324,1.324,0,0,0-.172,1.045c.233.915,1.222.8,2.474.65.14-.017.317-.038.49-.056-.894.382-1.269.735-1.1,1.389a.834.834,0,0,0,.4.572.966.966,0,0,0-.553,1.1,1.294,1.294,0,0,0,1.094.9,1.368,1.368,0,0,0,.536.508c.019.062.039.116.057.162l-.053.03c-.465.26-1.244.7-1.033,1.522.243.954,1.192.791,3.486.4.367-.064.827-.142,1.23-.2a1.307,1.307,0,0,0-.534.714l-.147.089c-.4.239-1.134.682-.928,1.488a1.027,1.027,0,0,0,.155.346c-1.734.613-2.517.943-2.289,1.837.218.855,1.185.823,1.824.8.108,0,.262-.008.383-.007.334.3.918.3,1.7.216l-.022.012c-.5.265-1.337.708-1.122,1.549a2.245,2.245,0,0,0,.09.282c-.1.048-.2.095-.286.132-.786.357-1.678.761-1.453,1.644.246.966,1.142.8,4.11.239l.6-.112a1.705,1.705,0,0,0-.822.753c-.178.092-.458.213-.644.294-.892.386-1.814.786-1.586,1.681.236.925,1.106.8,3.39.4-.765.348-1.366.742-1.175,1.491a1.649,1.649,0,0,0,.352.69l.022.026s0,0,0,.008c.206.809,1.078.841,1.546.858l.168.007a1.4,1.4,0,0,0,.723.443c-.135.06-.276.12-.386.167-.964.41-1.875.8-1.646,1.7a1.025,1.025,0,0,0,.161.355l-.306.107a1.164,1.164,0,0,0-.4-.074.919.919,0,0,0-.863.589,1.671,1.671,0,0,0-.655.517c-.05-.61-.23-.985-.759-1.1a.912.912,0,0,0-.639.087h0a.827.827,0,0,0-.582.039.807.807,0,0,0-.544-.585,1,1,0,0,0-.875.1,1.094,1.094,0,0,0-.413-.329m-29.267-44.446c.485-.094,1.005-.19,1.436-.269l.113-.02a1.264,1.264,0,0,0,.708.426c-.375.1-.834.206-1.253.3a1.539,1.539,0,0,0-1-.44m7.564-36.123.059.088v.016l-.04-.029-.02-.075m13.041.2a1.148,1.148,0,0,0,.188-.045,1.389,1.389,0,0,0,.559.586,1.31,1.31,0,0,0,.722.612c.716.224,1.169-.414,1.5-.88.046-.065.111-.155.167-.23a1.329,1.329,0,0,0,.311-.128,1.053,1.053,0,0,0,.477.436.99.99,0,0,0,.309.086c-.159.653-.225,1.212.189,1.557a1.382,1.382,0,0,0,.577.763.918.918,0,0,0,.429.136.977.977,0,0,0,.186.154.879.879,0,0,1,1.069.863.851.851,0,0,0,.461.17,1.024,1.024,0,0,0,.162.153,1.588,1.588,0,0,0,.723.283l.051.008c.614.418,1.2-.126,1.682-.566l.077-.072a.945.945,0,0,0,.183.053,1.114,1.114,0,0,0,.147,1.348.775.775,0,0,0,.8.214.811.811,0,0,0,.228.845c.517.517,1,.3,2.132-.534-1.117,1.328-1.51,1.869-.963,2.482s1.274.138,1.758-.171c.254-.162.556-.366.869-.582-.207.215-.4.421-.563.6-.42.464-1,1.1-.483,1.735.539.667,1.207.285,2.671-.553l.4-.227a1.6,1.6,0,0,0,1-.153c.014.013.029.029.044.041l-.4.393c-1.207,1.193-1.759,1.737-1.262,2.436a.926.926,0,0,0,.22.223.842.842,0,0,0,.159.445.884.884,0,0,0,.364.318l-.092.076c-.634.536-1.289,1.09-.831,1.794.283.435.639.5,1.255.3a.882.882,0,0,0,.133.595,1.37,1.37,0,0,0,1.4.48l.149-.009a2.175,2.175,0,0,0,1.542-.026l.106-.025c-.146.108-.287.213-.41.309-.49.38-1.16.9-.768,1.615.306.556.773.562,1.627.306a.87.87,0,0,0,.094.49c.006.03.012.087.017.13a1.938,1.938,0,0,0,.178.678,1.456,1.456,0,0,1,.059.2,3.091,3.091,0,0,0,.115.388,1.015,1.015,0,0,0-.339,1.076.865.865,0,0,0-.27,1.107c.325.7.965.6,2.184.275-.334.188-.65.37-.911.528-.592.359-1.329.8-1,1.566a1.372,1.372,0,0,0,.879.712l.043.016a1.04,1.04,0,0,0,.982.3,5.525,5.525,0,0,0,.829-.035l.288-.025-.012.007c-.555.312-1.316.739-1.023,1.508.213.561.705.617,1.235.541a.817.817,0,0,0-.015.648.786.786,0,0,0,.626.571.8.8,0,0,0-.227.927,1.007,1.007,0,0,1,.255,1.541c.164.519.528.664,1.192.639a1.058,1.058,0,0,0-.481.939.9.9,0,0,0-.653-.059c-.81.206-.819.894-.543,2.583-.6-1.685-.943-2.52-1.842-2.291-.817.208-.817,1.084-.77,1.85-.113-.321-.225-.625-.329-.88-.2-.486-.565-1.39-1.412-1.173-.6.151-.759.65-.788,1.2a1.009,1.009,0,0,0-.547-.006c-.9.23-.8,1.23-.7,2.289.015.145.034.338.048.515a2.52,2.52,0,0,0-.264.054,1.279,1.279,0,0,0-.9.974.907.907,0,0,0-.226.2,1.037,1.037,0,0,0-1.183-.582,1.1,1.1,0,0,0-.355.158c-.381-.887-.775-1.662-1.612-1.448-.179.045-.269.065-.359.085s-.208.046-.414.1c-.839.213-.831,1.152-.827,1.712,0,.079,0,.187,0,.282l-.057.054a1.2,1.2,0,0,0-.853-.506,1.279,1.279,0,0,0-1.257-.431c-.729.186-.8.821-.691,1.858a.863.863,0,0,0-.086-.016l0,0a1.325,1.325,0,0,0-1.362-.608.935.935,0,0,0-.451.246,1.463,1.463,0,0,0-.409-.09.786.786,0,0,0,.124-.428,1.367,1.367,0,0,0,.384-.842,1.3,1.3,0,0,0,.53-1.316,1.04,1.04,0,0,0-.351-.561,1.053,1.053,0,0,0,.362-1.079c-.2-.795-1.062-.846-1.475-.87l-.135-.009c-.309-.343-.894-.354-1.8-.237a.97.97,0,0,0-.013-.469c-.214-.839-1.151-.831-1.712-.826h-.068c.472-.275,1.006-.7.829-1.39a.927.927,0,0,0-.253-.454c.855-.372,1.27-.737,1.1-1.4a1.038,1.038,0,0,0-.145-.331c1.718-.617,2.575-.947,2.34-1.868-.223-.875-1.221-.724-2.023-.6-.639.1-1.483.26-2.3.417-.269.052-.572.111-.882.169a1.076,1.076,0,0,0-.035-.287,1.166,1.166,0,0,0-.745-.811v0c.34-.151.927-.362,1.349-.514,1.726-.621,2.676-.964,2.436-1.9-.207-.814-1.093-.84-1.568-.855l-.175-.006a1.413,1.413,0,0,0-.608-.442.89.89,0,0,0-.1-.149c1.166-.449,1.82-.822,1.618-1.616a.862.862,0,0,0-.334-.511c.525-.24,1.034-.6.866-1.265-.233-.913-1.253-.8-2.434-.66-.269.031-.679.078-.927.086a3.518,3.518,0,0,0-2.227-.1l-.253.031a1.1,1.1,0,0,0,0-.112,1.409,1.409,0,0,0,.249-.618l.132-.08c.4-.239,1.148-.684.943-1.493a1.326,1.326,0,0,0-.651-.835.883.883,0,0,0-.211-.3c.668-.33,1.05-.7.889-1.329a1.91,1.91,0,0,0-.088-.265c.152-.067.313-.133.437-.185,1.005-.418,1.954-.812,1.723-1.719a1.068,1.068,0,0,1-.549-1.5c-.218-.858-1.21-.731-1.8-.656-.417.053-.934.141-1.462.233.577-.3,1.2-.715,1.006-1.461-.237-.931-1.243-.79-2.766-.578l-.03,0c.693-.33,1.252-.731,1.069-1.447a1.028,1.028,0,0,0-.172-.37c1.152-.451,1.868-.819,1.656-1.65-.206-.808-1.029-.816-1.887-.749,1.063-.4,1.756-.719,1.85-1.289l.027-.02a1.347,1.347,0,0,0,.686-1.4.534.534,0,0,1-.022-.136.851.851,0,0,0,.484.057m27.94,32.719a1.527,1.527,0,0,0-.68-.8c.192-.026.4-.055.624-.088l.046-.007a.95.95,0,0,0,.039.338.91.91,0,0,0,.245.415c-.1.049-.187.1-.274.143m-23.939,11.261c0-.1-.008-.239-.007-.355a1.006,1.006,0,0,0,.085-.084,1.549,1.549,0,0,0,.257.217,2.08,2.08,0,0,0-.334.222m-4.538-31.577,0,.008,0,0s0,0,0-.007M161.5,171.067h.183a2.416,2.416,0,0,0-.3.266,1.157,1.157,0,0,0,.119-.265m.356-1.777a.849.849,0,0,0,.606-.238c.024.035.049.07.076.1.03.107.059.209.088.307a3.317,3.317,0,0,0-.988-.1h-.012c0-.032,0-.062,0-.094a1.158,1.158,0,0,0,.229.02m-11.1,10.035a1.357,1.357,0,0,0-.093-1.191l-.008-.018c0-.017,0-.033.007-.049l.212.088c.626.256,1.405.575,1.825-.128.405-.677-.159-1.256-.7-1.816-.09-.093-.219-.225-.313-.33-.058-.317-.347-.656-.88-1.152,0-.017,0-.033,0-.05.75.327,1.4.554,1.851,0a1.038,1.038,0,0,0,.171-.291l.079.057c.647.466,1.316.948,1.889.355.4-.409.346-.792-.1-1.473a1.079,1.079,0,0,0,1.254.013.37.37,0,0,1,.079-.033,1.987,1.987,0,0,0,.468-.234.887.887,0,0,0,.379-.938,1.018,1.018,0,0,0,.61,0c.666-.207.672-.862.612-1.4a1.728,1.728,0,0,0,.3.065c.258.568.586,1.019,1.226.857a.862.862,0,0,0,.4-.216.8.8,0,0,0,.746.268.834.834,0,0,0,.472-.2,1.264,1.264,0,0,0-.148.269c-.3.14-.848.343-1.239.487-1.561.578-2.5.926-2.265,1.862a1.323,1.323,0,0,0,1.175.906.827.827,0,0,0,.12.135c-.67.332-1.027.694-.869,1.313a1,1,0,0,0,.243.454c-.6.312-1.034.7-.87,1.347a1.865,1.865,0,0,0,.28.628.237.237,0,0,1,.05.109c.184.721.829.8,1.819.7l-.119.062c-.558.286-1.4.717-1.184,1.568s1.21.731,1.8.655c.523-.067,1.206-.188,1.866-.305.282-.05.613-.109.938-.164a1.123,1.123,0,0,0,.035.269,1.064,1.064,0,0,0,.18.381c-.843.366-1.532.767-1.332,1.553a1.8,1.8,0,0,0,.08.245c-.217.091-.459.185-.641.256-1.279.5-2.2.862-1.968,1.784.224.879,1.223.812,2.025.758.1-.007.224-.015.345-.021a1.243,1.243,0,0,0-.628,1.066,1.346,1.346,0,0,0-.259.8,1.27,1.27,0,0,0-.37,1.213c.234.92,1.262.791,2.563.628l.111-.014c-.154.055-.3.107-.432.159-.619.236-1.555.592-1.335,1.456.173.68.832.744,1.354.712a.883.883,0,0,0-.029.59c.221.866,1.2.818,1.915.782.119-.006.288-.014.425-.015a1.446,1.446,0,0,0,.568.393.86.86,0,0,0,.05.085c-1.628.586-2.555.926-2.427,1.77a1.358,1.358,0,0,0-.111.976,1.13,1.13,0,0,0,.214.436c-.466.281-.921.686-.754,1.341.223.875,1.221.724,2.023.6.236-.036.5-.08.779-.13a.985.985,0,0,0,.021.449,1.056,1.056,0,0,0,.149.337c-1.578.573-2.436.921-2.205,1.826.168.658.754.78,1.479.754a.969.969,0,0,0,0,.506,1.338,1.338,0,0,0,.621.825.93.93,0,0,0,.214.318c-.568.308-.95.684-.792,1.305.24.944,1.2.792,3.115.49.493-.078,1.19-.188,1.561-.212a1.128,1.128,0,0,0,.124.082,1,1,0,0,0-.22.929.821.821,0,0,1,.519,1.216,1.52,1.52,0,0,0-.336.565c-.3.136-.8.325-1.169.461-1.528.57-2.451.914-2.213,1.847.224.878,1.06.81,2.694.56.03.26.071.544.114.852.006.039.012.08.017.122a1.241,1.241,0,0,0-1.326-.649,1.3,1.3,0,0,0-.9,1.086,1.218,1.218,0,0,0-.463.913c-.167-.481-.348-1.036-.492-1.479-.234-.718-.476-1.461-.684-2.014-.254-.678-.6-1.607-1.47-1.386-.917.234-.8,1.235-.643,2.5.013.106.028.23.043.36a1.292,1.292,0,0,0-.3.041c-.73.186-.8.853-.71,1.81l0-.007c-.245-.761-.5-1.548-.713-2.132-.273-.743-.612-1.668-1.485-1.446s-.728,1.206-.626,1.925c.083.586.227,1.357.366,2.1.064.344.14.753.21,1.147l-.068,0a1.506,1.506,0,0,0-.418-.2c-.173-.4-.433-1.15-.617-1.685-.2-.571-.4-1.16-.58-1.6-.2-.485-.565-1.389-1.412-1.173-.827.211-.835,1.105-.841,1.64,0,.05,0,.111,0,.17-.056.029-.107.058-.154.087a.381.381,0,0,1-.143.061c-.769.2-.843,1-.871,1.418a2.826,2.826,0,0,0-.387.073c-.867.221-.818,1.2-.782,1.915.007.127.015.31.016.451a1.164,1.164,0,0,0-.253.4,1.115,1.115,0,0,0-.144-.062c-.111-.228-.261-.6-.361-.848-.448-1.111-.836-2.071-1.748-1.838a.955.955,0,0,0-.734.837,2.323,2.323,0,0,0-.219-.464l-.067-.116a1.842,1.842,0,0,1-.027-.257,3.293,3.293,0,0,0-.061-.5c-.175-.812-1.047-.747-1.747-.693l-.193.017a.794.794,0,0,0,.057-.331l.026-.052c.024-.049.051-.106.078-.169a.88.88,0,0,0-.122-1.39c.492-.255.675-.534.6-1.01a1.412,1.412,0,0,0-.618-.879l-.034-.025c-.236-.616-1.012-.633-2.317-.662h-.033c.218-.054.422-.1.6-.154.579-.155,1.218-.325,1.4-.807l.1-.076a1.359,1.359,0,0,0,.749-1.223.861.861,0,0,0-.365-.633.846.846,0,0,0,.58-.911c-.081-.84-.856-.905-2.263-1.023l-.35-.03a1.107,1.107,0,0,0,.011-.262.99.99,0,0,0-.064-.29l.168-.041c1.281-.314,2.054-.5,2.009-1.341a.8.8,0,0,0-.471-.727.813.813,0,0,0,.436-.779c-.021-.66-.507-.875-1.4-1.035a1.541,1.541,0,0,0-.723-.758c.01-.052.02-.108.029-.166l.024-.019.067-.052c.584-.091,1.233-.274,1.243-.985a.8.8,0,0,0-.5-.813.746.746,0,0,0,.3-.325l.066-.037a1.354,1.354,0,0,0,.855-1.061c0-.023,0-.044,0-.065a.794.794,0,0,0,.348-.661c.046-.705-.517-.965-1.349-1.22a1.264,1.264,0,0,0,.1-.382.9.9,0,0,0-.073-.485h.01c.57-.024,1.431-.059,1.527-.866.076-.64-.422-.967-.953-1.226a1.073,1.073,0,0,0,.094-.22c.477-.049.9-.219.989-.767a.874.874,0,0,1,.261-1.442c.11-.555-.215-.884-.738-1.174a1.083,1.083,0,0,0,.223-.443,1.9,1.9,0,0,0,.019-.675c0-.038-.01-.087-.011-.114a.869.869,0,0,0-.01-.455c.686.1,1.4.135,1.61-.586a.9.9,0,0,0-.425-1.04.829.829,0,0,0,.371-.474c.275-.806-.4-1.174-1.745-1.906-.192-.1-.433-.236-.643-.355.527.015.928-.1,1.128-.576a.925.925,0,0,0,.078-.4c1.029.272,1.594.309,1.9-.321m11.339,5.131,0-.008,0,0s0,0,0,.007m-11.042,43.175c-.109.014-.254.033-.386.048.127-.072.263-.151.4-.238a1.241,1.241,0,0,0,.12.174l-.129.017m-2.972-12a1.227,1.227,0,0,0-.3-.265,1.147,1.147,0,0,0-.027-.193,1.073,1.073,0,0,0-.066-.2c.2-.019.386-.036.551-.049.007.043.015.086.025.131a1.6,1.6,0,0,0,.087.266.865.865,0,0,0-.275.307m-3.317-25.677.437.024.36.02a1.058,1.058,0,0,0-.1.334.941.941,0,0,0,.014.351c-.3,0-.605,0-.892.006a.885.885,0,0,0,.185-.449.97.97,0,0,0,0-.286m2.034-4.336,0,.05c-.044.028-.092.061-.141.1-.029-.029-.057-.06-.09-.088a1.032,1.032,0,0,0,.144-.1l.081.046m32.515,61.64,0,.009,0,0s0,0,0-.007m3.716,6.368c.065.16.136.333.214.515l-.093.014a2.526,2.526,0,0,0-.3-.328,1.315,1.315,0,0,0,.178-.2m-16.533-85.151a1.055,1.055,0,0,0,1.149-.426c.009.021.019.041.03.062-.024.172-.072.423-.113.632a1.805,1.805,0,0,0-.868.462l-.076.062a1.569,1.569,0,0,0-1.007.754l-.061-.035a1.83,1.83,0,0,0-.232-.34c0-.321.036-.87.072-1.382.041-.127.083-.259.127-.4l.123-.384a2.153,2.153,0,0,0,.095.2,1.259,1.259,0,0,0,.761.8m26.088,77.566c-.192-.161-.414-.331-.66-.519l-.033-.025a8.829,8.829,0,0,0,1.163.239.962.962,0,0,0-.47.305m3.5-14.28c-.122-.042-.28-.1-.429-.151a1.912,1.912,0,0,0,.046-.275,1,1,0,0,0-.008-.259c.346.073.688.15.9.208a1.286,1.286,0,0,0,.09.092,1.1,1.1,0,0,0-.493.418l-.1-.035M175.2,169.309c.117-.449.249-1.048.376-1.627.022-.1.045-.206.07-.316.029,1.071.19,1.489.827,1.587.8.123,1.063-.679,1.254-1.264q.039-.119.08-.252c0,.046-.009.091-.013.134-.068.674-.138,1.371-.174,1.9-.044.646-.093,1.367.42,1.659l.012.022a2.124,2.124,0,0,0,.281.421,10.024,10.024,0,0,0-1.516,1.049l-.007.006c.019-.055.039-.108.055-.153.218-.61.466-1.3-.089-1.767a1.024,1.024,0,0,0-.094-.069.776.776,0,0,0-.334-.792,1.15,1.15,0,0,0-1.3-.02c.061-.174.108-.353.15-.516m-2.137.11a.736.736,0,0,0,.073-.034c.061.591.178.936.429,1.117a5.176,5.176,0,0,0-.4.371c-.059.059-.123.123-.187.189a.9.9,0,0,0-.606,0,.963.963,0,0,0-.213-.743l.029-.064a1.621,1.621,0,0,0,.828-.755l.048-.075m-3.086-3.227a2.352,2.352,0,0,0,.455.063c.033.008.1.033.15.051l.017.006c.05.355.1.9.14,1.294.031.327.059.616.088.875-.247.284-.532.664-.882,1.14a.9.9,0,0,0-.345-.289,1.03,1.03,0,0,0-.389-.109l0-.008c.17-.86.3-1.535,0-1.942-.007-.083-.013-.187-.017-.275a1.658,1.658,0,0,0,.782-.806m-24.908,7.066a1.4,1.4,0,0,0,1.348.082,2.091,2.091,0,0,0,.471-.414c-.078.546.528,1.079,1.831,2.22l.041.035.008.008-.065-.028c-.544-.235-1.107-.477-1.541-.645-.487-.188-1.192-.461-1.63-.029-.1-.319-.264-.691-.454-1.131l-.051-.117.041.018m.193,2.585a1.076,1.076,0,0,0,.182-.157,8.116,8.116,0,0,0,1.467,1.285l.387.3c-.625-.092-1.2-.141-1.552.22-.1-.217-.224-.442-.354-.67-.138-.244-.3-.523-.477-.819a.982.982,0,0,0,.347-.157m-1.962,2.743c-.017.034-.034.069-.049.107a1.208,1.208,0,0,0-.049.157c-.028-.1-.06-.2-.089-.287-.015-.046-.033-.1-.05-.156.082.067.16.125.237.179m-18.083,39.881a1.282,1.282,0,0,0-.127-.393c.551-.281,1.142-.611,1.065-1.3-.07-.623-.643-.87-1.023-1.032l-.032-.014c.492-.077.963-.154,1.347-.224.815-.149,1.587-.29,1.652-.983l.019-.029a1.447,1.447,0,0,0,.3-.883c-.034-.839-.865-.908-1.744-.981l-.317-.024c.006-.012.012-.024.017-.037l.071-.043a1.9,1.9,0,0,0,.685-.6l.2-.078c.481-.182,1.14-.43,1.16-1.132.024-.843-.737-1-2.12-1.295-.317-.066-.762-.16-1.006-.23a4.7,4.7,0,0,0-1.964-.7l-.288-.067a1.05,1.05,0,0,0,.078-.319.981.981,0,0,0,0-.206c.548.007,1.179.023,1.683.035.784.02,1.6.039,2.2.039.9,0,1.748,0,1.846-.841.067-.57-.311-.883-.79-1.128a.97.97,0,0,0,.17-.423c.117-.764-.611-1.1-1.315-1.425-.125-.057-.307-.141-.436-.208a2.28,2.28,0,0,0-.8-.744l-.074-.05c.267.028.518.051.738.068.694.054,1.558.121,1.74-.682a1.592,1.592,0,0,0-.062-.824c-.007-.023-.014-.046-.02-.069a1.09,1.09,0,0,0-.089-.6,1.1,1.1,0,0,0,.6-.571l.044-.038a1.537,1.537,0,0,0,.514-.714c.238-.791-.476-1.176-1.558-1.759-.228-.123-.574-.309-.774-.434a2.642,2.642,0,0,0-.745-.831c-.066-.056-.161-.136-.234-.2a1,1,0,0,0-.038-.125,1.911,1.911,0,0,0,.677-.115c.3.045.889.178,1.3.272,1.724.392,2.437.554,2.756-.245a.847.847,0,0,0,.057-.489c.808.241,1.437.338,1.735-.339.282-.642-.069-1.019-1.094-1.678h0a1.364,1.364,0,0,0,1.371-.586.9.9,0,0,0-.319-1.165.809.809,0,0,0,.473-.413c.386-.7-.291-1.246-.7-1.569-.107-.086-.227-.179-.355-.276a.916.916,0,0,0,.3-.32,1.159,1.159,0,0,0,.109-.246l.2.076c1.118.429,1.857.713,2.3.018a1.835,1.835,0,0,0,.24-.65c.007-.033.012-.067.021-.1a1.407,1.407,0,0,0-.228-1.494c-.028-.047-.064-.107-.094-.16a1.652,1.652,0,0,0-.633-1.1l.414.238c1.793,1.034,2.4,1.384,2.932.69.487-.63,0-1.25-.57-1.969-.1-.133-.259-.329-.358-.467a2.5,2.5,0,0,0-.451-1.118c-.047-.078-.114-.19-.164-.281.028-.477-.386-1-.971-1.745-.167-.213-.4-.506-.536-.7a2.273,2.273,0,0,0-.01-.522c.369.247.945.672,1.365.982,1.9,1.4,2.473,1.824,3.082,1.186.458-.48.283-.954-.343-1.818l.063.05c1.621,1.307,2.167,1.747,2.8,1.147.511-.482.3-1.016-.228-1.866.888.717,1.428,1.06,2,.572a.934.934,0,0,0,.338-.729,4.84,4.84,0,0,0,1.559,1.2c.211.129.481.295.7.436-.012.02-.021.044-.032.065-.526-.075-1.239-.1-1.459.589a.805.805,0,0,0,.13.787c-.579-.05-1.112.025-1.281.643-.187.684.295,1.038,1.163,1.478a.9.9,0,0,0-.277.48c-.175.746.5,1.133,1.154,1.507-.46-.03-.916-.058-1.277-.067-.531-.014-1.418-.037-1.565.769a.9.9,0,0,0,.361.911.845.845,0,0,0-.722.737.906.906,0,0,0,.219.758,1.033,1.033,0,0,0-.849.8c-.017.031-.046.08-.068.115a1.8,1.8,0,0,0-.3.758,1.4,1.4,0,0,0,.789,1.238c.041.029.092.066.136.1a.82.82,0,0,0,.267.357c-.6.129-.871.359-.9.868-.054.838.815,1,1.513,1.137l.242.044a1.1,1.1,0,0,0-.162.379l-.048.057c-.035.041-.074.088-.113.138a.8.8,0,0,0-.51.781.812.812,0,0,0,.2.611c-.635.086-1.478.214-1.479,1.03,0,.847.779.986,2.2,1.239.149.027.326.058.5.091a1.207,1.207,0,0,0-.029.289.938.938,0,0,0,.083.39c-1.926.323-2.655.466-2.618,1.329a.793.793,0,0,0,.38.685,1.217,1.217,0,0,1,.016.128,1.015,1.015,0,0,0,.3.661c-.624.223-.927.495-.886,1.046.058.771.828.932,1.643,1.1.129.027.308.065.453.1-.179.035-.35.07-.506.1-.84.178-1.638.348-1.667,1.063-.014.027-.031.056-.045.08a1.542,1.542,0,0,0-.268.961.9.9,0,0,0,.742.806.812.812,0,0,0-.377.843.9.9,0,0,0,.758.791.85.85,0,0,0,.8.722.768.768,0,0,0-.31.617l-.04.065a1.46,1.46,0,0,0-.3,1.052.894.894,0,0,1,.319,1.638.975.975,0,0,0,.088.251.823.823,0,0,0-.081.6c.139.679.818.819,1.364.933.074.015.178.037.264.057a.756.756,0,0,0,.149.122c-.765.359-1.062.673-.924,1.26a.889.889,0,0,0,.222.419,1.238,1.238,0,0,0-.157.392.885.885,0,0,0-.365.98c.008.033.019.061.029.091-.032.006-.064.008-.1.017a1.427,1.427,0,0,0-.257.092c-.078-.194-.156-.4-.217-.553-.508-1.317-.876-2.269-1.8-2.034-.636.162-.783.733-.809,1.274a1.093,1.093,0,0,0-.5.014c-.943.24-.792,1.2-.491,3.11.065.412.153.966.193,1.353a1.156,1.156,0,0,0-1.1-.308,1.3,1.3,0,0,0-.846.693l-.044.019c-.118-.31-.243-.661-.343-.943-.533-1.5-.849-2.386-1.459-2.534-.026-.04-.052-.081-.073-.116-.219-.351-.675-1.082-1.47-.88-.768.2-.806.918-.675,2.025a.943.943,0,0,0-.239-.015,1.3,1.3,0,0,0-1.085-.213c-.695.177-.814.853-.841,1.349l-.037-.061a1.938,1.938,0,0,0-.9-.9c-.088-.17-.2-.422-.274-.593-.382-.869-.776-1.768-1.669-1.541a1.26,1.26,0,0,0-.882,1.1c-.233-.308-.679-.4-1.34-.427a.882.882,0,0,0,.066-.512m36.327,34.457-.033-.033a1.508,1.508,0,0,0-.739-.453c-.659-.15-.994.3-1.375,1.122a1.032,1.032,0,0,0-.821-.205l.012-.072c.1-.688.236-1.544-.556-1.782-.837-.251-1.143.417-1.964,2.2-.1.224-.228.5-.347.748a1.059,1.059,0,0,0-.649-1.1.9.9,0,0,0-.446-.051c.245-1.14.235-1.65-.366-1.915-.022-.02-.042-.043-.063-.064a1.744,1.744,0,0,0-.587-.434c-.762-.32-1.208.427-1.567,1.027-.264.44-.593,1.035-.913,1.61-.224.4-.51.92-.752,1.337a1.5,1.5,0,0,0-.3-.849c-.006-.046-.012-.1-.017-.138a1.5,1.5,0,0,0-.523-1.164c-.014-.024-.028-.05-.043-.075a1.582,1.582,0,0,0-.617-.664.973.973,0,0,0-.258-.094l.179-.405c.281-.634.571-1.29.775-1.79.286-.7.61-1.5-.114-1.915s-1.22.239-1.7.878c.006-.036.01-.071.015-.1.074-.486.175-1.15-.4-1.52a2.56,2.56,0,0,0-.482-.234,1.185,1.185,0,0,1-.182-.081c-.659-.439-1.243.085-1.918.69-.13.117-.326.292-.458.4a2.118,2.118,0,0,0-1,.675c-.2.2-.425.439-.662.695a.912.912,0,0,0-.278-.322c-.623-.463-1.227,0-1.993.591l-.1.078,0-.007c.2-.595.4-1.208.021-1.657l-.019-.085a3.065,3.065,0,0,0-.082-.311c.166-.29.464-.751.68-1.084.98-1.515,1.386-2.142.742-2.715-.507-.45-1.02-.173-1.523.229.062-.107.128-.215.18-.3.514-.849.921-1.52.349-2.085-.595-.587-1.259-.069-1.9.432-.44.343-1.013.818-1.567,1.277-.467.387-1.089.9-1.538,1.253a1.647,1.647,0,0,0-.109-.128,1.12,1.12,0,0,0-.161-.141c.307-.348.674-.75.965-1.069.444-.487.9-.991,1.237-1.382.366-.43.805-.944.674-1.453l.026-.082a1.342,1.342,0,0,0-.106-1.352,1.451,1.451,0,0,0-.822-.447l-.031-.007c-.521-.486-1.175-.108-2.5.657l-.206.119.034-.036c.355-.374.949-1,.475-1.645a1.133,1.133,0,0,0-1.153-.383.919.919,0,0,0-.012-.093c.025-.045.054-.093.077-.133a1.387,1.387,0,0,0,.194-1.5c-.479-.729-1.165-.4-3,.465l-.554.261a1.013,1.013,0,0,0-.108-.244,1.033,1.033,0,0,0-1.159-.424.99.99,0,0,0,.036-.227c.051-.071.117-.156.164-.217a2.523,2.523,0,0,0,.528-.93c.153-.145.412-.362.584-.506.85-.712,1.465-1.227,1.092-1.95a.931.931,0,0,0-.244-.308c.142-.093.276-.183.4-.266.427-.3,1.141-.795.8-1.525-.362-.768-1.13-.505-2.1-.172-.448.153-1,.355-1.575.566,1.288-.749,1.66-1.106,1.385-1.778a.952.952,0,0,0-.2-.314c.775-.5,1.231-.9.986-1.56-.287-.779-1.117-.6-1.849-.433-.422.093-.955.227-1.5.364.921-.5,1.312-.842,1.108-1.5a.885.885,0,0,0-.649-.617c-.046-.321-.106-.678-.169-1.041l.007,0a3.6,3.6,0,0,0,.717-.554,1.268,1.268,0,0,0,1.2.7,1.357,1.357,0,0,0,.978.112,1.2,1.2,0,0,0,.829-1.19c.041.08.081.161.112.225.308.625.729,1.48,1.59,1.262.673-.172.785-.748.715-1.631l.148.413c.654,1.836.981,2.758,1.926,2.518a1.335,1.335,0,0,0,.826-.626,1.215,1.215,0,0,0,.42-.27,1.139,1.139,0,0,0,1.052.266,1.5,1.5,0,0,0,.748-.438c.9-.256.751-1.215.454-3.1-.027-.167-.056-.359-.086-.553a1.133,1.133,0,0,0,.29-.036.988.988,0,0,0,.4-.2c.39.937.774,1.528,1.525,1.337a1.325,1.325,0,0,0,.6-.325,1.178,1.178,0,0,0,1.009.2c.733-.187.807-.913.78-1.615.253-.038.538-.085.839-.135a.894.894,0,0,0,.01.522c.206.747.917.749,2,.674a.929.929,0,0,0,0,.245c-.419.3-.678.615-.607,1.057-.563.355-.763.675-.6,1.192.033.1.058.213.084.321.036.15.073.306.126.469a.838.838,0,0,0,.361.49l-.1.05c-.463.249-1.238.666-.971,1.435a.868.868,0,0,0,.915.613.975.975,0,0,0-.082.847.8.8,0,0,0,.423.5c-.543.309-1.241.733-.949,1.479.314.8,1.062.637,2.7.275.191-.043.419-.093.638-.139-.992.622-1.331.99-1.058,1.63a.859.859,0,0,0,.4.45c-.833.581-1.166.973-.889,1.585.247.546.8.6,1.353.573a.844.844,0,0,0,.066.611c.325.681,1.034.525,1.663.325.261-.038.551-.1.868-.174.119-.027.271-.061.417-.092a1.077,1.077,0,0,0,.094.268.973.973,0,0,0,.2.268l-.164.174a2.479,2.479,0,0,0-.749,1.128c-.1.116-.269.281-.379.391-.587.587-1.141,1.142-.77,1.817a.944.944,0,0,0,1.064.459.832.832,0,0,0,.024.864c.416.717,1.225.388,1.816.148.211-.086.453-.19.709-.3a.78.78,0,0,0,0,.1c-.406.331-.821.67-1.128.942-.393.348-1.051.93-.617,1.617.044.07.094.173.147.282a4.324,4.324,0,0,0,.256.475c.455.7,1.188.349,1.967-.045a1.483,1.483,0,0,0,.239.207.923.923,0,0,0,.14.3.9.9,0,0,0,.378.319c-.7.8-1.128,1.352-.674,1.972a.9.9,0,0,0,1.142.269c.425.53.926.4,1.988-.175a.859.859,0,0,0,.209.539.815.815,0,0,0,.732.329.971.971,0,0,0-.085,1.306,5.137,5.137,0,0,0,.367.373c.086.081.168.158.228.225a.852.852,0,0,0,.438.277c-.661.946-1.017,1.548-.481,2.105a.825.825,0,0,0,.548.281.983.983,0,0,0,.177.235c.538.537,1.047.277,2.18-.57a.844.844,0,0,0,.288.486.83.83,0,0,0,.558.248c-.122.181-.235.353-.333.508a2.543,2.543,0,0,0-.5,1.172,1.023,1.023,0,0,0-.5-.39m1.581,1.244.04-.011-.01.033c-.009-.008-.02-.014-.03-.022m2.647,1.79a1.964,1.964,0,0,0-.354-1.243c-.024-.1-.051-.232-.07-.323-.006-.028-.012-.055-.017-.083a3,3,0,0,0,.752-.339l.006.01c-.033.142-.081.323-.115.45-.177.66-.343,1.288,0,1.711a.8.8,0,0,0-.188.064c0-.086-.007-.168-.012-.246m5.526-.779c.2-.295.427-.616.575-.8a1.065,1.065,0,0,0,.318.694c-.1.419-.191.832-.266,1.188-.147-.565-.32-.926-.627-1.08m1.656,3.7a1.071,1.071,0,0,0-.162-.034l-.074-.053a2.833,2.833,0,0,0-.305-.2c-.023-.091-.048-.2-.072-.319.014,0,.027.012.043.017a.809.809,0,0,0,.647-.042c-.019.151-.039.308-.059.477-.006.049-.012.1-.018.155m7.872-2.5c0-.024,0-.049-.008-.073l0-.022.3-.053a.934.934,0,0,0-.286.148m8.269-1.316c-.111-.128-.264-.322-.367-.454l-.13-.165c.091.037.188.078.262.11a6.318,6.318,0,0,0,.655.253c.072.2.142.393.2.57a1.784,1.784,0,0,0-.623-.315m4.811-6.563c-.535.352-.5.817-.1,1.773l-.245-.332-.143-.194a3.934,3.934,0,0,0-.444-.74c-.057-.082-.141-.2-.2-.292a1.019,1.019,0,0,0-.187-.537.88.88,0,0,0,.91-.491,1.792,1.792,0,0,1,.14-.183c.04-.049.083-.1.127-.159.088,0,.166,0,.231,0a4.182,4.182,0,0,0,.769-.034,12.621,12.621,0,0,0,.831,1.73l.046.087c-.725-.731-1.164-1-1.731-.632m20.158-41.912c-.642.13-1.305.265-1.8.382-.679.161-1.524.361-1.447,1.186.057.608.5.786,1.106.847a.823.823,0,0,0-.132.532,1.344,1.344,0,0,0,.81,1.041l.066.039a.741.741,0,0,0,.061.1c-.747.108-1.384.279-1.379,1.019,0,.571.419.806.857.926a.85.85,0,0,0-.177.54.894.894,0,0,0,.14.53c-.5.148-.827.388-.86.9a.846.846,0,0,1,.026,1.457c-.067.67.514,1.016.9,1.246l.134.081a1.107,1.107,0,0,0,.6.512.823.823,0,0,0-.31.569,2.085,2.085,0,0,0-.022.224l-.3.017c-.934.048-1.741.088-1.89.875-.133.7.43.994,1.08,1.222a.849.849,0,0,0-.239.444c-.185.813.547,1.135,1.759,1.667l.19.083a1.069,1.069,0,0,0-.109.265.952.952,0,0,0-.031.365c-.5-.1-.977-.189-1.368-.255-.822-.139-1.672-.281-1.914.521-.218.726.248,1.049,1.523,1.657-.771-.06-1.409-.039-1.644.617a1.067,1.067,0,0,0-.064.383c-.585-.028-1.171.023-1.409.618a1.44,1.44,0,0,0-.008.935l.008.031c-.161.664.5,1.059,1.1,1.41.228.135.5.288.782.448-1.308-.393-1.9-.477-2.229.2a.83.83,0,0,0-.08.549c-.546-.155-1.044-.164-1.327.374a.879.879,0,0,1-.617,1.309.883.883,0,0,1-.877,1.157c-.435.705.146,1.249,1.027,2.072l.134.126c-.79-.328-1.2-.327-1.542.164a2.719,2.719,0,0,1-.188.231c-.085.1-.18.207-.277.343-.37.516-.1,1.031.268,1.535-.884-.433-1.535-.7-2.01-.1-.515.645.072,1.271.544,1.775.129.138.276.29.433.45a.955.955,0,0,0-.32.254,1.381,1.381,0,0,0-.168,1.28c.006.024.013.054.019.082a1.545,1.545,0,0,0,.147,1.123l-.113-.09c-.512-.406-1.041-.825-1.449-1.127-.493-.365-1.092-.809-1.625-.507h-.027a1.382,1.382,0,0,0-1.048.328c-.591.578-.078,1.276.333,1.837.159.215.349.464.553.727-.5-.257-1.08-.51-1.577-.074a.987.987,0,0,0-.253.342c-.517-.331-1.037-.551-1.521-.155-.617.506-.244,1.17.2,1.879a.792.792,0,0,0-.131.022l-.066-.021a1.993,1.993,0,0,0-.718-.123,2.159,2.159,0,0,0-.252-.485.909.909,0,0,0,.553-.542,1.645,1.645,0,0,0,.038-.913c-.006-.036-.015-.086-.019-.122a.786.786,0,0,0-.185-.763c.627.019.975-.132,1.135-.636.177-.558-.108-.907-.726-1.288a1.13,1.13,0,0,0,.159-.117c.14-.014.32-.025.447-.033.8-.048,1.553-.094,1.739-.827a.945.945,0,0,0-.449-1.059.824.824,0,0,0,.67-.685,1.582,1.582,0,0,0-.144-.951c-.012-.031-.028-.071-.04-.1a.808.808,0,0,0-.392-.79.855.855,0,0,0,.792-.754c.136-.826-.7-1.076-1.369-1.277-.4-.121-.916-.259-1.438-.4h.02c1.987-.024,2.73-.032,2.835-.907a.948.948,0,0,0-.28-.8,1.024,1.024,0,0,0,.731-.863c.065-.713-.579-1.032-1.147-1.312-.083-.041-.2-.1-.3-.15-.154-.281-.509-.451-1.11-.611a1.52,1.52,0,0,0-.771-.972l-.071-.05.032,0c.748-.042,1.521-.085,2.1-.135.837-.071,1.7-.145,1.725-.995.017-.617-.429-.848-1.023-.973a.872.872,0,0,0-.031-1.475c.491-.124.85-.349.868-.868.013-.033.035-.083.051-.12a1.785,1.785,0,0,0,.2-.8c-.027-.84-.884-.919-1.639-.989l-.207-.018c-.167-.578-.852-.74-1.572-.91-.151-.036-.377-.089-.527-.133a.871.871,0,0,0-.076-.074c.529-.214.814-.49.775-1.016a1.073,1.073,0,0,0-.042-.236c.153-.066.375-.15.527-.207.847-.317,1.578-.592,1.5-1.374a.823.823,0,0,0-.293-.6.987.987,0,0,0,0-.21.893.893,0,0,0-.428-.691.984.984,0,0,0,.56-.881c.6-.192,1.006-.465.922-1.081-.094-.69-.664-.834-1.612-.907a.718.718,0,0,0-.328-.354c.671-.283.9-.566.81-1.108a.821.821,0,0,0-.421-.629c.535-.282.808-.592.71-1.12a.818.818,0,0,0-.455-.629,1.188,1.188,0,0,0-.018-.133.8.8,0,0,0-.6-.683c0-.015,0-.029-.006-.045a1.52,1.52,0,0,0-.548-.821l-.062-.056c-.155-.428-.537-.574-1.092-.621a.849.849,0,0,0-.175-.273,1.129,1.129,0,0,0,.224-.034,3.33,3.33,0,0,0,.487-.16,1.656,1.656,0,0,1,.269-.088c.832-.212.818-1.11.771-1.876a1.217,1.217,0,0,0,.381-.038.982.982,0,0,0,.4-.2c.414,1.029.791,1.644,1.563,1.447a.957.957,0,0,0,.485-.281,1.309,1.309,0,0,0,.891.777l0,0a1.324,1.324,0,0,0,1.363.611c.837-.213.827-1.13.813-1.752a1.522,1.522,0,0,0,.369-.048c.845-.216.735-1.211.682-1.69s-.153-1.071-.25-1.656c-.039-.235-.085-.51-.128-.781h.024a1.4,1.4,0,0,0,.719.325l.043.063c.217.324.666,1,1.442.8.565-.144.737-.6.763-1.161.116.277.247.625.348.894.544,1.447.9,2.4,1.835,2.165a.868.868,0,0,0,.507-.329c.233.507.6,1.04,1.272.869a1.3,1.3,0,0,0,.138-.044c.148.8,1,.774,1.761.75.545-.017,1.269-.061,1.969-.1l.648-.039a.971.971,0,0,0,0,.272,1.092,1.092,0,0,0,.039.182c-.452.1-.986.208-1.409.293" transform="translate(-53.794 -72.713)" fill="#1a1a1a"/>
    </g>
  </g>
</svg>
