<?xml version="1.0" encoding="UTF-8"?><svg xmlns="http://www.w3.org/2000/svg" viewBox="0 0 103.07 103.02"><defs><style>.d{fill:#e6e6e6;}</style></defs><g id="a"/><g id="b"><g id="c"><g><g><circle class="d" cx="97.28" cy="29.57" r=".86"/><circle class="d" cx="102.2" cy="48.86" r=".87"/></g><g><circle class="d" cx="85.22" cy="22.36" r="1.48"/><circle class="d" cx="90.15" cy="41.69" r="2.37"/><circle class="d" cx="95.02" cy="60.78" r="1.67"/></g><g><circle class="d" cx="5.79" cy="73.44" r=".86"/><circle class="d" cx=".87" cy="54.16" r=".87"/></g><g><circle class="d" cx="17.85" cy="80.65" r="1.48"/><circle class="d" cx="12.92" cy="61.32" r="2.37"/><circle class="d" cx="8.05" cy="42.23" r="1.67"/></g><g><circle class="d" cx="78" cy="34.48" r="3.78"/><circle class="d" cx="82.87" cy="53.61" r="4.01"/><circle class="d" cx="87.81" cy="72.97" r="2.14"/><circle class="d" cx="73.11" cy="15.3" r="2.14"/></g><g><circle class="d" cx="70.73" cy="46.54" r="6.27"/><circle class="d" cx="75.65" cy="65.85" r="4.92"/><circle class="d" cx="60.95" cy="8.17" r="1.67"/><circle class="d" cx="65.87" cy="27.47" r="4.92"/><circle class="d" cx="80.59" cy="85.24" r="1.48"/></g><g><circle class="d" cx="63.52" cy="58.63" r="7.23"/><circle class="d" cx="48.8" cy=".87" r=".87"/><circle class="d" cx="53.73" cy="20.23" r="4.01"/><circle class="d" cx="58.64" cy="39.51" r="7.23"/><circle class="d" cx="73.37" cy="97.28" r=".86"/><circle class="d" cx="68.46" cy="78" r="3.78"/></g><g><circle class="d" cx="51.53" cy="51.48" r="7.71"/><circle class="d" cx="41.69" cy="12.9" r="2.37"/><circle class="d" cx="46.63" cy="32.25" r="6.27"/><circle class="d" cx="61.38" cy="90.12" r="2.37"/><circle class="d" cx="56.44" cy="70.77" r="6.27"/></g><g><circle class="d" cx="39.53" cy="44.39" r="7.23"/><circle class="d" cx="29.68" cy="5.74" r=".86"/><circle class="d" cx="34.59" cy="25.02" r="3.78"/><circle class="d" cx="54.25" cy="102.15" r=".87"/><circle class="d" cx="49.32" cy="82.79" r="4.01"/><circle class="d" cx="44.4" cy="63.51" r="7.23"/></g><g><circle class="d" cx="32.29" cy="56.48" r="6.27"/><circle class="d" cx="27.37" cy="37.18" r="4.92"/><circle class="d" cx="22.43" cy="17.79" r="1.48"/><circle class="d" cx="42.07" cy="94.86" r="1.67"/><circle class="d" cx="37.15" cy="75.56" r="4.92"/></g><g><circle class="d" cx="25.15" cy="68.51" r="3.78"/><circle class="d" cx="20.27" cy="49.39" r="4.01"/><circle class="d" cx="15.34" cy="30.03" r="2.14"/><circle class="d" cx="30.04" cy="87.69" r="2.14"/></g></g></g></g></svg>