<?xml version="1.0" encoding="UTF-8"?><svg xmlns="http://www.w3.org/2000/svg" viewBox="0 0 109.94 109.95"><defs><style>.d{fill:#e6e6e6;}</style></defs><g id="a"/><g id="b"><g id="c"><g><path class="d" d="M68.55,108.24c-29.37,7.49-59.35-10.32-66.84-39.69C-5.78,39.18,12.03,9.2,41.4,1.71c29.37-7.49,59.35,10.32,66.84,39.69,7.49,29.37-10.32,59.35-39.69,66.84ZM42.63,6.55C15.93,13.36-.25,40.62,6.55,67.31c6.81,26.7,34.06,42.88,60.76,36.08,26.7-6.81,42.88-34.06,36.08-60.76C96.59,15.93,69.33-.25,42.63,6.55Z"/><path class="d" d="M61.91,82.19c-11.02,2.81-22.27-3.87-25.07-14.89-2.61-10.24,8.28-35.32,9.53-38.15l1.29-2.91,2.52,1.94c2.45,1.88,24.01,18.69,26.62,28.93,2.81,11.02-3.87,22.27-14.89,25.07Zm-12.24-48.03c-3.62,8.78-9.62,25.48-7.99,31.91,2.13,8.35,10.65,13.41,18.99,11.28,8.35-2.13,13.4-10.65,11.28-18.99-1.64-6.43-14.9-18.22-22.29-24.19Z"/></g></g></g></svg>