<?xml version="1.0" encoding="UTF-8"?><svg xmlns="http://www.w3.org/2000/svg" viewBox="0 0 101.16 100.06"><defs><style>.d{fill:#e6e6e6;}</style></defs><g id="a"/><g id="b"><g id="c"><polygon class="d" points="101.16 51.28 101.03 46.23 61.58 47.23 96.69 29.22 94.38 24.72 59.27 42.73 83.09 11.27 79.06 8.22 55.24 39.68 63.05 1 58.1 0 50.29 38.68 40.55 .44 35.65 1.69 45.4 39.93 20.02 9.71 16.15 12.96 41.53 43.18 5.55 26.96 3.48 31.56 39.45 47.78 0 48.78 .13 53.83 39.58 52.84 4.46 70.85 6.77 75.34 41.88 57.33 18.06 88.79 22.09 91.84 45.91 60.38 38.1 99.06 43.05 100.06 50.86 61.38 60.61 99.62 65.51 98.37 55.76 60.13 81.13 90.36 85 87.11 59.63 56.88 95.6 73.11 97.68 68.5 61.71 52.28 101.16 51.28"/></g></g></svg>