<?xml version="1.0" encoding="UTF-8"?><svg xmlns="http://www.w3.org/2000/svg" viewBox="0 0 108.86 108.82"><defs><style>.d{fill:#e6e6e6;}</style></defs><g id="a"/><g id="b"><g id="c"><g><path class="d" d="M60.89,70.43c-1.62,1.15-2.43,1.36-4.52,1.14,.73,.98,1.13,2.03,1.06,3.22-.06,1.2-.54,2.23-1.4,3.06-1.38,1.33-3.49,1.65-5.2,.78-1.98-1-2.67-2.64-2.34-5.56-2.28,1.73-4.25,1.94-6.1,.69-1.54-1.05-2.59-3.16-1.73-5.65-2.08,1.91-4.26,2.25-6.49,.45-1.48-1.2-1.9-3.29-1.17-5.06,.82-1.98,2.5-2.85,5.12-2.69-.35-.75-.84-1.49-1.03-2.31-.2-.83-.1-1.73-.13-2.56-.82,.72-1.88,1.21-3.14,1.16-1.25-.05-2.3-.53-3.14-1.45-1.38-1.51-1.53-3.73-.39-5.43,1.12-1.67,3.22-2.37,5.13-1.69,2.15,.75,3.08,2.53,2.83,5.38,2.04-1.35,2.19-1.4,4.06-1.46-.24-.65-.57-1.3-.7-1.98-.14-.69-.08-1.41-.11-2.15-.96,.72-2.07,1.13-3.35,.98-1.26-.15-2.29-.71-3.07-1.7-1.23-1.56-1.29-3.75-.14-5.37,1.17-1.65,3.25-2.32,5.16-1.67,2.08,.72,3.11,2.48,2.99,5.11,.63-.31,1.25-.72,1.92-.92,.69-.21,1.43-.23,2.19-.34-.92-1.39-1.11-2.93-.56-4.59-.89,.9-1.93,1.43-3.18,1.47-1.25,.05-2.33-.38-3.22-1.26-1.46-1.44-1.7-3.72-.58-5.44,1.12-1.72,3.3-2.42,5.21-1.68,2.16,.84,3.01,2.71,2.54,5.65,1.56-1.67,3.4-2.14,5.57-1.43-1.86-2.49-1.95-4.62-.28-6.37,1.45-1.51,3.77-1.78,5.52-.63,1.76,1.16,2.44,3.44,1.6,5.37-.75,1.72-2.8,3.19-5.41,2.38,.39,.63,.93,1.26,1.22,1.99,.29,.73,.33,1.55,.49,2.34,1.2-.81,2.57-1.11,4.18-.78-.94-1.24-1.31-2.52-1-3.96,.21-.98,.7-1.8,1.46-2.46,1.52-1.31,3.73-1.47,5.41-.38,1.69,1.1,2.45,3.16,1.87,5.09-.65,2.18-2.37,3.23-5.28,3.19,.97,1.16,1.38,2.47,1.26,4.04,1.37-.88,2.78-1.12,4.42-.67-.9-1.07-1.38-2.17-1.28-3.47,.1-1.3,.66-2.38,1.69-3.19,1.56-1.24,3.75-1.26,5.36-.07,1.58,1.17,2.2,3.25,1.51,5.1-.78,2.08-2.58,3.03-5.37,2.76,1.3,1.41,1.75,3.01,1.3,4.95,1.01-.81,2.04-1.26,3.23-1.21,1.21,.04,2.24,.48,3.09,1.33,1.38,1.38,1.69,3.49,.8,5.23-1.02,1.97-2.76,2.65-5.6,2.19,1.78,2.21,2.08,4.03,1,5.93-1.07,1.87-2.83,2.55-5.57,2.15,1.71,2.49,1.85,4.38,.46,6.19-1.19,1.54-3.28,2.16-5.13,1.51-2.09-.73-3.07-2.42-3.01-5.23Zm-15.06-5.17c-.93-1.19-1.26-2.44-1.15-3.91-1.34,.87-2.72,1.07-4.29,.73,1.26,1.5,1.53,3.07,.99,4.8,1.19-1.28,2.63-1.8,4.45-1.62Zm20.59-9.39c.25,.66,.56,1.25,.7,1.88,.14,.63,.1,1.3,.15,1.99,1.38-.95,2.91-1.17,4.54-.65-1.32-1.26-1.78-2.77-1.42-4.64-1.2,1.08-2.5,1.53-3.97,1.42Zm-13.85,10.33c-1.29,.61-1.5,.9-3.83,.83,.93,1.36,1.19,2.82,.65,4.55,1.3-1.32,2.74-1.76,4.49-1.51-.99-1.15-1.37-2.41-1.31-3.87Zm14.33,.78c-1.17-1.17-1.6-2.59-1.45-4.29-1.14,.9-2.36,1.23-3.78,1.15,.8,1.28,1.03,2.58,.75,4.05,1.4-1.06,2.86-1.35,4.48-.92Zm-12.05-17.92c-.67-1.07-.92-2.23-.79-3.58-1.11,.8-2.27,1.04-3.59,.95,.8,1.11,1.08,2.25,1.03,3.5,.56-.23,1.05-.49,1.57-.63,.55-.14,1.13-.16,1.78-.24Zm-9.04,5.41c.7,1.07,.98,2.17,.89,3.47,1.1-.73,2.21-1.02,3.49-.95-.68-1.05-.93-2.13-.86-3.38-1.1,.71-2.23,.95-3.52,.86Zm17.07-.65c-.73-1.11-.99-2.2-.88-3.48-1.1,.73-2.22,1.01-3.49,.95,.69,1.06,.95,2.14,.87,3.38,1.09-.7,2.2-.95,3.5-.85Zm-8.16,8.58l3.28-.84c-.62-.93-.85-2.02-.8-3.25-1.05,.7-2.14,.92-3.34,.87,.68,1.06,.93,2.13,.86,3.21Z"/><path class="d" d="M64.82,78.21c.56,2.25-.82,4.54-3.08,5.1-2.23,.55-4.5-.83-5.06-3.06-.56-2.25,.82-4.54,3.08-5.1,2.23-.55,4.5,.83,5.06,3.06Z"/><path class="d" d="M83.39,46.8c.52,2.18-.85,4.42-3.01,4.92-2.19,.51-4.42-.87-4.91-3.03-.5-2.17,.85-4.37,2.99-4.89,2.18-.53,4.42,.83,4.93,3Z"/><path class="d" d="M28.26,56.62c2.14-.57,4.37,.73,4.95,2.89,.58,2.15-.76,4.42-2.93,4.97-2.16,.54-4.37-.77-4.93-2.92-.55-2.15,.75-4.37,2.91-4.94Z"/><path class="d" d="M76.94,64.26c2.16-.56,4.36,.73,4.92,2.89,.56,2.16-.73,4.36-2.89,4.92-2.16,.56-4.36-.73-4.92-2.89-.56-2.16,.73-4.36,2.89-4.92Z"/><path class="d" d="M44.24,76.76c.55,2.17-.74,4.35-2.92,4.9-2.18,.55-4.35-.76-4.89-2.93-.53-2.16,.75-4.31,2.9-4.86,2.17-.56,4.35,.73,4.9,2.9Z"/><path class="d" d="M72.31,72.2c2.09-.53,4.26,.75,4.81,2.84,.55,2.11-.77,4.32-2.88,4.83-2.11,.51-4.27-.78-4.79-2.88-.52-2.1,.77-4.26,2.86-4.8Z"/><path class="d" d="M52.05,81.47c.51,2.11-.78,4.27-2.87,4.79-2.12,.53-4.32-.8-4.81-2.91-.49-2.12,.82-4.27,2.91-4.77,2.11-.5,4.27,.8,4.78,2.89Z"/><path class="d" d="M48.91,32.88c-2.13,.53-4.23-.75-4.75-2.88-.51-2.11,.75-4.19,2.86-4.72,2.13-.53,4.23,.75,4.75,2.88,.51,2.11-.75,4.19-2.86,4.72Z"/><path class="d" d="M86.39,59.36c.52,2.09-.75,4.2-2.86,4.71-2.07,.51-4.16-.76-4.68-2.84-.52-2.09,.75-4.2,2.86-4.71,2.07-.51,4.16,.76,4.68,2.84Z"/><path class="d" d="M33.42,76.84c-2.07,.52-4.18-.75-4.7-2.82-.52-2.07,.75-4.18,2.82-4.7,2.07-.52,4.18,.75,4.7,2.82,.52,2.07-.75,4.18-2.82,4.7Z"/><path class="d" d="M69.34,34.28c-2.02,.54-4.14-.7-4.69-2.74-.55-2.04,.72-4.2,2.77-4.72,2.04-.52,4.15,.73,4.67,2.77,.53,2.03-.71,4.14-2.75,4.68Z"/><path class="d" d="M29.79,36.43c2.04-.54,4.15,.71,4.68,2.76,.53,2.04-.72,4.15-2.77,4.67-2.03,.51-4.1-.7-4.65-2.74-.55-2.03,.69-4.15,2.74-4.69Z"/><path class="d" d="M77.17,38.87c-2,.52-4.08-.71-4.59-2.72-.51-2.01,.73-4.08,2.74-4.58,1.99-.5,4.04,.72,4.55,2.7,.52,2-.7,4.08-2.7,4.6Z"/><path class="d" d="M29.72,47.08c.51,1.98-.71,4.05-2.7,4.56-2,.52-4.09-.73-4.58-2.73-.49-1.99,.75-4.05,2.73-4.54,1.99-.5,4.05,.73,4.55,2.71Z"/><path class="d" d="M39,31.38c.5,1.99-.69,3.97-2.69,4.47-1.99,.5-3.96-.7-4.46-2.7-.49-1.97,.69-3.93,2.67-4.44,1.99-.51,3.97,.67,4.48,2.67Z"/><path class="d" d="M59.6,22.31c2-.51,3.98,.68,4.48,2.68,.5,1.99-.69,3.97-2.7,4.47-1.97,.49-3.94-.69-4.45-2.66-.51-2,.67-3.98,2.66-4.49Z"/><path class="d" d="M72.14,83.01c.48,1.93-.71,3.94-2.64,4.42-1.93,.48-3.94-.71-4.42-2.64-.48-1.93,.71-3.94,2.64-4.42,1.93-.48,3.94,.71,4.42,2.64Z"/><path class="d" d="M56.97,90.62c-1.93,.49-3.94-.7-4.43-2.63-.49-1.93,.7-3.94,2.63-4.43,1.93-.49,3.94,.7,4.43,2.63,.49,1.93-.7,3.94-2.63,4.43Z"/><path class="d" d="M83.89,53.32c-.49-1.87,.67-3.83,2.55-4.3,1.86-.47,3.78,.67,4.27,2.53,.49,1.87-.67,3.83-2.55,4.3-1.86,.47-3.78-.67-4.27-2.53Z"/><path class="d" d="M21.23,69.28c-.48-1.87,.63-3.76,2.51-4.25,1.89-.49,3.8,.65,4.27,2.54,.46,1.88-.66,3.76-2.54,4.23-1.88,.47-3.76-.65-4.24-2.52Z"/><path class="d" d="M80.75,40.72c-.46-1.85,.67-3.71,2.53-4.18,1.85-.46,3.71,.67,4.18,2.53,.46,1.85-.67,3.71-2.53,4.18-1.85,.46-3.71-.67-4.18-2.53Z"/><path class="d" d="M22.24,59.22c-1.84,.46-3.73-.69-4.18-2.54-.44-1.82,.7-3.69,2.52-4.14,1.84-.46,3.73,.69,4.18,2.54,.44,1.82-.7,3.69-2.52,4.14Z"/><path class="d" d="M40.94,27.64c-1.77,.46-3.6-.61-4.07-2.37-.47-1.79,.62-3.64,2.41-4.09,1.77-.45,3.59,.64,4.05,2.4,.45,1.77-.62,3.6-2.39,4.06Z"/><path class="d" d="M53.45,24.45c-1.77,.45-3.59-.63-4.05-2.4-.46-1.79,.64-3.63,2.44-4.07,1.77-.44,3.59,.66,4.03,2.43,.44,1.77-.65,3.59-2.42,4.04Z"/><path class="d" d="M86.6,76c-1.77,.44-3.52-.62-3.95-2.41-.42-1.75,.63-3.48,2.39-3.92,1.77-.44,3.52,.62,3.95,2.41,.42,1.75-.63,3.48-2.39,3.92Z"/><path class="d" d="M36.5,88.76c-1.76,.46-3.51-.56-3.97-2.31-.47-1.78,.57-3.54,2.35-3.99,1.76-.44,3.5,.59,3.95,2.35,.45,1.76-.58,3.5-2.33,3.96Z"/><path class="d" d="M84.24,79.92c.43,1.7-.61,3.45-2.31,3.88-1.7,.43-3.45-.61-3.88-2.31-.43-1.7,.61-3.45,2.31-3.88,1.7-.43,3.45,.61,3.88,2.31Z"/><path class="d" d="M46.63,89.48c.44,1.69-.59,3.45-2.29,3.89-1.69,.44-3.45-.59-3.89-2.29-.44-1.69,.59-3.45,2.29-3.89,1.69-.44,3.45,.59,3.89,2.29Z"/><path class="d" d="M93.52,64.19c.43,1.69-.57,3.39-2.27,3.82-1.69,.43-3.38-.59-3.81-2.28-.42-1.67,.58-3.35,2.25-3.78,1.69-.44,3.39,.56,3.83,2.25Z"/><path class="d" d="M28.57,83.97c-1.66,.42-3.36-.59-3.79-2.25-.43-1.68,.6-3.4,2.29-3.81,1.66-.41,3.35,.62,3.77,2.29,.41,1.66-.61,3.36-2.27,3.78Z"/><path class="d" d="M66.96,90.99c.42,1.65-.6,3.38-2.26,3.79-1.65,.41-3.38-.62-3.78-2.27-.4-1.64,.61-3.33,2.24-3.76,1.65-.43,3.38,.59,3.8,2.24Z"/><path class="d" d="M72.29,19.75c1.64-.42,3.27,.56,3.69,2.2,.41,1.64-.57,3.27-2.22,3.68-1.62,.4-3.24-.57-3.65-2.18-.42-1.64,.54-3.28,2.18-3.7Z"/><path class="d" d="M22.18,32.53c1.64-.4,3.26,.6,3.66,2.26,.39,1.61-.61,3.23-2.24,3.63-1.64,.4-3.26-.6-3.66-2.26-.39-1.61,.61-3.23,2.24-3.63Z"/><path class="d" d="M83.78,26.62c.41,1.59-.57,3.23-2.16,3.62-1.58,.39-3.18-.57-3.58-2.14-.41-1.59,.57-3.23,2.16-3.62,1.58-.39,3.18,.57,3.58,2.14Z"/><path class="d" d="M15.36,44.02c-.39-1.59,.57-3.16,2.17-3.55,1.59-.39,3.16,.57,3.55,2.17,.39,1.59-.57,3.16-2.17,3.55-1.59,.39-3.16-.57-3.55-2.17Z"/><path class="d" d="M94.81,43.85c.4,1.59-.53,3.16-2.13,3.56-1.59,.4-3.16-.53-3.56-2.13-.4-1.59,.53-3.16,2.13-3.56,1.59-.4,3.16,.53,3.56,2.13Z"/><path class="d" d="M16.01,60.91c1.59-.41,3.17,.53,3.57,2.12,.39,1.56-.53,3.13-2.1,3.53-1.59,.41-3.17-.53-3.57-2.12-.39-1.56,.53-3.13,2.1-3.53Z"/><path class="d" d="M50.71,92.14c1.55-.38,3.15,.59,3.52,2.15,.36,1.53-.6,3.11-2.13,3.49-1.55,.38-3.15-.59-3.52-2.15-.36-1.53,.6-3.11,2.13-3.49Z"/><path class="d" d="M75.74,85.76c1.54-.41,3.16,.55,3.55,2.1,.39,1.53-.55,3.12-2.08,3.52-1.54,.41-3.16-.55-3.55-2.1-.39-1.53,.55-3.12,2.08-3.52Z"/><path class="d" d="M28.28,30.42c-1.55,.4-3.16-.57-3.54-2.12-.38-1.53,.57-3.11,2.1-3.5,1.55-.4,3.16,.57,3.54,2.12,.38,1.53-.57,3.11-2.1,3.5Z"/><path class="d" d="M67.98,17.3c.4,1.55-.56,3.16-2.11,3.54-1.53,.38-3.11-.57-3.51-2.09-.4-1.55,.56-3.16,2.11-3.54,1.53-.38,3.11,.57,3.51,2.09Z"/><path class="d" d="M94.5,54.39c1.48-.36,3.01,.56,3.37,2.03,.37,1.49-.57,3.05-2.07,3.4-1.48,.34-3-.59-3.35-2.07-.35-1.48,.58-3,2.05-3.36Z"/><path class="d" d="M20.64,78.96c-1.46,.38-3.01-.53-3.38-2-.37-1.47,.55-3.01,2.02-3.38,1.46-.36,2.96,.53,3.35,1.98,.39,1.46-.52,3.01-1.99,3.39Z"/><path class="d" d="M45.44,19.23c-1.47,.37-3.01-.55-3.36-2.02-.36-1.48,.57-3.01,2.04-3.35,1.47-.34,2.96,.55,3.33,2,.38,1.47-.54,3-2,3.37Z"/><path class="d" d="M88.08,29.44c1.4-.38,2.9,.49,3.28,1.9,.38,1.4-.49,2.9-1.9,3.28-1.4,.38-2.9-.49-3.28-1.9-.38-1.4,.49-2.9,1.9-3.28Z"/><path class="d" d="M14.23,53.77c-1.41,.38-2.9-.5-3.25-1.92-.35-1.4,.5-2.84,1.9-3.22,1.41-.38,2.9,.5,3.25,1.92,.35,1.4-.5,2.84-1.9,3.22Z"/><path class="d" d="M57.93,15.82c-1.35,.34-2.74-.49-3.09-1.84-.35-1.36,.51-2.8,1.87-3.11,1.36-.32,2.75,.53,3.07,1.87,.33,1.35-.51,2.75-1.86,3.08Z"/><path class="d" d="M34.7,19.1c.35,1.34-.47,2.74-1.82,3.1-1.35,.36-2.79-.49-3.13-1.85-.33-1.35,.51-2.75,1.85-3.08,1.35-.34,2.74,.49,3.09,1.83Z"/><path class="d" d="M74.11,95.83c.33,1.29-.43,2.58-1.73,2.91-1.27,.32-2.54-.44-2.87-1.71-.33-1.29,.43-2.58,1.73-2.91,1.27-.32,2.54,.44,2.87,1.71Z"/><path class="d" d="M61.58,99.09c.31,1.28-.5,2.56-1.8,2.86-1.26,.29-2.52-.5-2.83-1.78-.31-1.28,.5-2.56,1.8-2.86,1.26-.29,2.52,.5,2.83,1.78Z"/><path class="d" d="M93.12,75.24c1.24-.31,2.53,.46,2.83,1.7,.31,1.24-.46,2.53-1.7,2.83-1.24,.31-2.53-.46-2.83-1.7-.31-1.24,.46-2.53,1.7-2.83Z"/><path class="d" d="M33.23,92.92c.31,1.24-.41,2.47-1.65,2.79-1.26,.33-2.5-.42-2.81-1.69-.3-1.24,.44-2.46,1.68-2.77,1.24-.31,2.46,.43,2.78,1.67Z"/><path class="d" d="M91.2,84.83c.29,1.2-.48,2.45-1.67,2.73-1.19,.27-2.41-.48-2.69-1.65-.29-1.2,.48-2.45,1.67-2.73,1.19-.27,2.41,.48,2.69,1.65Z"/><path class="d" d="M39.41,100.31c-1.18,.3-2.41-.44-2.71-1.61-.3-1.18,.44-2.41,1.61-2.71,1.18-.3,2.41,.44,2.71,1.61,.3,1.18-.44,2.41-1.61,2.71Z"/><path class="d" d="M101.95,48.68c.31,1.18-.37,2.36-1.54,2.67-1.2,.32-2.39-.37-2.7-1.58-.3-1.18,.39-2.35,1.58-2.65,1.18-.3,2.35,.38,2.66,1.56Z"/><path class="d" d="M14.18,71.07c.3,1.19-.4,2.35-1.59,2.64-1.16,.29-2.31-.41-2.61-1.57-.3-1.19,.4-2.35,1.59-2.64,1.16-.29,2.31,.41,2.61,1.57Z"/><path class="d" d="M97.83,67.54c1.18-.3,2.34,.41,2.63,1.6,.28,1.16-.42,2.31-1.58,2.6-1.18,.3-2.34-.41-2.63-1.6-.28-1.16,.42-2.31,1.58-2.6Z"/><path class="d" d="M22.61,86.72c1.16-.3,2.32,.39,2.62,1.55,.31,1.18-.4,2.36-1.59,2.65-1.16,.28-2.31-.42-2.6-1.58-.29-1.16,.4-2.32,1.57-2.61Z"/><path class="d" d="M98.72,36.18c.28,1.14-.44,2.33-1.58,2.61-1.14,.27-2.33-.45-2.6-1.6-.26-1.13,.44-2.29,1.56-2.57,1.14-.29,2.33,.42,2.61,1.56Z"/><path class="d" d="M8.37,57.01c1.12-.28,2.3,.43,2.58,1.55,.28,1.12-.43,2.3-1.55,2.58-1.12,.28-2.3-.43-2.58-1.55-.28-1.12,.43-2.3,1.55-2.58Z"/><path class="d" d="M79.67,14.32c.27,1.06-.4,2.19-1.46,2.46-1.06,.27-2.19-.4-2.46-1.46-.27-1.06,.4-2.19,1.46-2.46,1.06-.27,2.19,.4,2.46,1.46Z"/><path class="d" d="M14.53,28.88c1.06-.28,2.13,.35,2.42,1.41,.29,1.08-.36,2.17-1.45,2.44-1.07,.26-2.13-.37-2.4-1.44-.27-1.07,.36-2.13,1.43-2.41Z"/><path class="d" d="M51.32,8.19c.27,1.04-.37,2.1-1.41,2.36-1.04,.26-2.1-.38-2.35-1.42-.25-1.02,.37-2.06,1.39-2.33,1.04-.27,2.11,.35,2.37,1.39Z"/><path class="d" d="M38.78,11.4c.26,1.04-.37,2.1-1.42,2.36-1.04,.26-2.1-.39-2.35-1.43-.24-1.02,.38-2.06,1.4-2.33,1.04-.27,2.11,.36,2.37,1.4Z"/><path class="d" d="M84.81,95.1c-1.01,.25-2.09-.41-2.33-1.42-.24-1.02,.42-2.09,1.43-2.32,1-.23,2.04,.41,2.29,1.4,.26,1.01-.39,2.09-1.4,2.34Z"/><path class="d" d="M87.45,19.04c.24,1.02-.41,2.08-1.42,2.33-1.02,.24-2.08-.41-2.33-1.42-.24-1.02,.41-2.08,1.42-2.33,1.02-.24,2.08,.41,2.33,1.42Z"/><path class="d" d="M10.84,40.52c-1.01,.26-2.09-.37-2.34-1.38-.26-1.01,.39-2.09,1.4-2.34,1-.24,2.04,.38,2.31,1.37,.27,1-.36,2.09-1.37,2.35Z"/><path class="d" d="M47.21,104.68c-1.01,.26-2.09-.39-2.34-1.4-.25-1.02,.41-2.09,1.42-2.33,1-.23,2.04,.39,2.3,1.38,.27,1.01-.37,2.09-1.38,2.35Z"/><path class="d" d="M20.17,24.72c-1,.27-1.99-.3-2.26-1.29-.28-1.02,.31-2.02,1.33-2.28,1-.25,1.98,.33,2.24,1.32,.26,1-.31,1.99-1.31,2.25Z"/><path class="d" d="M71.63,9.7c.25,1-.33,1.98-1.33,2.24-1.02,.26-2.01-.33-2.26-1.36-.24-1,.36-1.97,1.36-2.22,1-.25,1.97,.34,2.23,1.35Z"/><path class="d" d="M104.78,61.33c.24,.96-.38,1.98-1.33,2.2-.95,.22-1.93-.38-2.17-1.31-.24-.96,.38-1.98,1.33-2.2,.95-.22,1.93,.38,2.17,1.31Z"/><path class="d" d="M15.71,85.85c-.96,.25-1.91-.31-2.15-1.28-.24-.96,.33-1.9,1.3-2.14,.94-.23,1.87,.32,2.11,1.26,.25,.96-.3,1.91-1.26,2.16Z"/><path class="d" d="M94.98,23.74c.23,.84-.3,1.76-1.15,1.97-.83,.21-1.71-.31-1.94-1.13-.23-.84,.3-1.76,1.15-1.97,.83-.21,1.71,.31,1.94,1.13Z"/><path class="d" d="M66.75,102.76c.83-.21,1.71,.31,1.93,1.14,.22,.84-.33,1.76-1.17,1.95-.84,.19-1.71-.35-1.91-1.17-.2-.83,.33-1.71,1.15-1.92Z"/><path class="d" d="M6.07,48.08c-.83,.2-1.71-.32-1.92-1.15-.22-.84,.34-1.76,1.18-1.94,.84-.19,1.71,.35,1.9,1.18,.2,.83-.34,1.71-1.16,1.91Z"/><path class="d" d="M62.36,6.88c-.79,.22-1.59-.25-1.79-1.04-.2-.77,.26-1.55,1.02-1.76,.79-.22,1.59,.25,1.79,1.04,.2,.77-.26,1.55-1.02,1.76Z"/><path class="d" d="M24.7,16.46c-.78,.19-1.53-.27-1.73-1.05-.2-.8,.27-1.57,1.08-1.75,.78-.18,1.52,.3,1.71,1.08,.18,.78-.28,1.53-1.06,1.72Z"/><path class="d" d="M78.37,101.39c-.16-.72,.28-1.42,1.01-1.59,.74-.17,1.46,.29,1.61,1.04,.15,.73-.31,1.41-1.04,1.57-.73,.15-1.42-.29-1.58-1.02Z"/><path class="d" d="M104.85,42.65c-.73,.2-1.43-.21-1.62-.94-.19-.73,.23-1.43,.96-1.61,.71-.18,1.4,.22,1.59,.92,.2,.73-.2,1.44-.92,1.63Z"/><path class="d" d="M5.48,66.59c.2,.73-.21,1.43-.94,1.63-.73,.19-1.43-.22-1.62-.95-.18-.71,.22-1.4,.92-1.59,.73-.2,1.44,.19,1.64,.92Z"/><path class="d" d="M55.89,107.21c.16,.73-.28,1.41-1.02,1.58-.73,.16-1.41-.29-1.56-1.04-.15-.71,.28-1.37,1-1.54,.73-.17,1.42,.26,1.59,1Z"/><path class="d" d="M108.83,53.61c.16,.6-.23,1.27-.84,1.43-.6,.16-1.27-.23-1.43-.84-.16-.6,.23-1.27,.84-1.43,.6-.16,1.27,.23,1.43,.84Z"/><path class="d" d="M8.55,79.22c.13,.61-.29,1.27-.9,1.39-.61,.13-1.27-.29-1.39-.9-.13-.61,.29-1.27,.9-1.39,.61-.13,1.27,.29,1.39,.9Z"/><path class="d" d="M42.65,3.74c.16,.62-.21,1.21-.83,1.35-.6,.14-1.17-.21-1.32-.81-.16-.62,.21-1.21,.83-1.35,.6-.14,1.17,.21,1.32,.81Z"/><path class="d" d="M54.94,.65c.12,.48-.16,.93-.64,1.05-.47,.11-.9-.16-1.02-.63-.12-.48,.16-.93,.64-1.05,.47-.11,.9,.16,1.02,.63Z"/><path class="d" d="M107.08,74.04c.12,.48-.16,.93-.64,1.05-.47,.11-.9-.16-1.02-.63-.12-.48,.16-.93,.64-1.05,.47-.11,.9,.16,1.02,.63Z"/><path class="d" d="M29.87,7.04c.12,.48-.16,.93-.64,1.05-.47,.11-.9-.16-1.02-.63-.12-.48,.16-.93,.64-1.05,.47-.11,.9,.16,1.02,.63Z"/><path class="d" d="M102.59,81.9c.15,.56-.19,1.15-.75,1.31-.57,.16-1.19-.2-1.33-.78-.13-.56,.22-1.15,.78-1.29,.56-.14,1.15,.21,1.3,.77Z"/><path class="d" d="M101.05,27.79c.56-.14,1.15,.22,1.29,.78,.15,.58-.23,1.19-.81,1.32-.56,.12-1.14-.25-1.27-.81-.13-.56,.23-1.15,.79-1.28Z"/><path class="d" d="M27.31,101.1c.14,.56-.19,1.1-.75,1.23-.56,.13-1.09-.2-1.22-.76-.12-.54,.19-1.06,.73-1.2,.56-.15,1.1,.17,1.24,.73Z"/><path class="d" d="M.75,53.42c.56-.15,1.1,.17,1.24,.73,.14,.56-.18,1.1-.74,1.23-.54,.13-1.06-.17-1.21-.71-.16-.56,.15-1.1,.71-1.25Z"/><path class="d" d="M97.11,90.98c-.5,.13-1.04-.19-1.17-.69-.13-.5,.17-1.04,.67-1.18,.52-.15,1.08,.18,1.2,.71,.12,.49-.21,1.04-.71,1.16Z"/><path class="d" d="M33.94,105.09c.5-.14,1.04,.16,1.19,.66,.15,.5-.14,1.05-.64,1.2-.5,.15-1.09-.18-1.23-.68-.13-.5,.17-1.04,.67-1.18Z"/><path class="d" d="M19.34,96.43c.12,.48-.16,.93-.64,1.05-.47,.11-.9-.16-1.02-.63-.12-.48,.16-.93,.64-1.05,.47-.11,.9,.16,1.02,.63Z"/></g></g></g></svg>