<?xml version="1.0" encoding="UTF-8"?><svg xmlns="http://www.w3.org/2000/svg" viewBox="0 0 109.95 109.95"><defs><style>.d{fill:#e6e6e6;}</style></defs><g id="a"/><g id="b"><g id="c"><g><path class="d" d="M41.4,1.71C12.03,9.2-5.78,39.18,1.71,68.55c7.49,29.37,37.47,47.17,66.84,39.69,29.37-7.49,47.17-37.47,39.69-66.84C100.75,12.03,70.77-5.78,41.4,1.71Zm25.92,101.68c-26.7,6.81-53.95-9.38-60.76-36.08C-.25,40.62,15.93,13.36,42.63,6.55,69.33-.25,96.59,15.93,103.39,42.63c6.81,26.7-9.38,53.96-36.08,60.76Z"/><path class="d" d="M68.78,45.78c-4.92,2.35-11.11,5.3-13.06,12.11-4.97-5.04-11.82-4.67-17.26-4.38-7.93,.43-12.16,.3-14.09-7.27l-4.85,1.23c3.03,11.9,12,11.42,19.21,11.03,8.03-.43,14.37-.77,17.28,10.64l4.03,15.82,4.85-1.23-4.03-15.82c-2.91-11.41,2.82-14.15,10.08-17.61,6.51-3.11,14.62-6.98,11.58-18.88l-4.85,1.23c1.93,7.57-1.72,9.71-8.89,13.13Z"/></g></g></g></svg>