<?xml version="1.0" encoding="UTF-8"?><svg xmlns="http://www.w3.org/2000/svg" viewBox="0 0 99.97 100.06"><defs><style>.d{fill:#e6e6e6;}</style></defs><g id="a"/><g id="b"><g id="c"><polygon class="d" points="99.97 51.3 99.85 46.3 66.44 47.15 98.11 36.5 96.52 31.76 64.85 42.41 91.97 22.89 89.05 18.83 61.93 38.35 82.1 11.71 78.11 8.69 57.94 35.33 69.36 3.93 64.66 2.22 53.24 33.62 54.9 .25 49.91 0 48.25 33.37 40 .99 35.15 2.23 43.41 34.61 25.97 6.1 21.71 8.71 39.14 37.22 14.08 15.11 10.77 18.86 35.83 40.96 5.37 27.23 3.32 31.79 33.78 45.52 .62 41.38 0 46.34 33.16 50.48 .25 56.29 1.12 61.22 34.02 55.41 4.29 70.66 6.58 75.11 36.31 59.86 12.39 83.19 15.89 86.77 39.8 63.44 23.83 92.78 28.22 95.17 44.19 65.83 37.58 98.58 42.48 99.57 49.09 66.82 52.43 100.06 57.4 99.56 54.07 66.32 67.05 97.1 71.66 95.16 58.67 64.37 80.16 89.96 83.99 86.75 62.5 61.16 90.58 79.28 93.29 75.08 65.22 56.96 97.38 66 98.74 61.19 66.57 52.14 99.97 51.3"/></g></g></svg>