<?xml version="1.0" encoding="UTF-8"?><svg xmlns="http://www.w3.org/2000/svg" viewBox="0 0 108.33 108.75"><defs><style>.d{fill:#e6e6e6;}</style></defs><g id="a"/><g id="b"><g id="c"><g><path class="d" d="M53.98,34.93q.77,1.21,.82,2.23l2.15-.55c-.36-.51-.63-1.16-.41-1.86,.13-.42,.37-.86,.68-1.18,.65-.68,1.69-.78,2.52-.34,.95,.5,1.3,1.4,1.07,2.86,.87-.84,1.83-1.12,2.88-.54,1.06,.59,1.33,1.55,1.06,2.8,1.02-.86,2.05-1.07,3.09-.32,.95,.69,1.12,1.67,.72,2.79,1.28-.99,2.2-1.13,3.12-.48,.78,.55,1.13,1.55,.84,2.46-.34,1.08-1.13,1.53-2.75,1.54,.59,.67,.82,1.42,.62,2.37,1.16-.78,2.27-.87,3.26,.14,.67,.69,.81,1.55,.42,2.43-.48,1.08-1.39,1.46-2.55,1.34,.16,.37,.37,.71,.46,1.07,.09,.37,.08,.76,.12,1.19,1.1-.72,2.18-.76,3.16,.23,.63,.65,.75,1.63,.37,2.44-.45,.96-1.27,1.35-2.75,1.25,.73,.78,.85,1.65,.58,2.6l-.33,.61c-.67,.57-1.4,.98-2.43,.74,.56,.79,.78,1.55,.53,2.31,.55-.17,1.11-.43,1.69-.49,.62-.07,1.17,.25,1.59,.74,.65,.76,.71,1.86,.13,2.68-.55,.79-1.6,1.13-2.51,.8-1.06-.38-1.52-1.26-1.4-2.78-.64,.59-1.36,.87-2.36,.7,.6,.78,.75,1.56,.46,2.45,1.38-.9,2.4-.91,3.24-.07,.72,.72,.84,1.84,.3,2.7-.54,.85-1.63,1.22-2.58,.88-1.07-.39-1.54-1.35-1.35-2.74-.37,.21-.73,.48-1.13,.61-.39,.12-.83,.09-1.29,.13,.72,.82,.65,1.77,.36,2.74l-.06,.09c-.2,.17-.39,.35-.61,.51-.69,.52-1.45,.6-2.3,.32,.92,1.3,1.01,2.2,.34,3.1-.56,.75-1.54,1.06-2.43,.78-1.08-.35-1.52-1.14-1.51-2.79-.72,.63-1.52,.86-2.34,.65,.17,.55,.41,1.08,.48,1.64,.08,.61-.21,1.15-.65,1.58-.67,.65-1.69,.8-2.53,.38-.97-.49-1.33-1.39-1.08-2.86-.87,.91-1.85,1.05-2.94,.62-.03,0-.06,0-.09-.03-.8-.67-1.23-1.5-1.02-2.66-.79,.64-1.58,.83-2.37,.57,.17,.55,.44,1.12,.52,1.72,.08,.65-.27,1.2-.78,1.62-.76,.62-1.83,.65-2.63,.08-.8-.57-1.12-1.66-.75-2.57,.41-1.03,1.32-1.46,2.81-1.29-.63-.65-.94-1.37-.75-2.38-.78,.57-1.54,.75-2.28,.52,.16,.55,.43,1.13,.49,1.72,.07,.65-.28,1.2-.8,1.61-.77,.62-1.88,.63-2.68,.02-.78-.6-1.07-1.69-.68-2.59,.44-1.02,1.36-1.45,2.76-1.22-.63-.69-.93-1.43-.73-2.45-.82,.64-1.64,.74-2.52,.48l-.51-.33c-.8-.68-1.05-1.53-.78-2.63-1.08,.86-2.17,1.02-3.21,.11-.73-.63-.93-1.48-.59-2.38,.44-1.18,1.38-1.6,2.5-1.48l-.57-2.22c-.99,.67-2.05,.72-3.02-.2-.69-.65-.85-1.67-.45-2.51,.44-.96,1.29-1.38,2.67-1.28-.6-.73-.79-1.51-.58-2.41-1.39,.79-2.35,.77-3.16-.02-.68-.66-.86-1.71-.43-2.56,.51-1.01,1.39-1.34,2.97-1.06-.89-.81-1.23-1.76-.69-2.84,.56-1.12,1.54-1.45,2.85-1.14-.86-1.02-1.08-2.02-.37-3.06,.65-.95,1.6-1.15,2.71-.84-.91-1.31-1-2.21-.35-3.1,.57-.78,1.55-1.11,2.47-.82,1.04,.32,1.5,1.09,1.57,2.52l2.16-.55c-.52-.67-.57-1.48-.35-2.32l.32-.52c.72-.79,1.61-1.06,2.56-.8-.19-.51-.45-1.03-.56-1.58-.11-.58,.14-1.12,.53-1.57,.63-.72,1.67-.93,2.54-.54,1.01,.46,1.42,1.37,1.22,2.63,.52-.19,1.07-.46,1.65-.59,.34-.08,.73,.05,1.1,.09l.52,.33Zm-19.57,14.9c.72,.68,1.01,1.5,.84,2.34l2.02-.68-.49-1.93c-.66,.49-1.47,.61-2.37,.27Zm32.24-5.84l2.13-.35c-.61-.68-.7-1.52-.41-2.45-.62,.74-1.41,.99-2.2,.9l.49,1.91Zm-16.39-8.02c-.71,.67-1.53,.81-2.6,.56,.76,.67,.94,1.41,.92,2.13l2.04-.52c-.46-.64-.52-1.38-.36-2.17Zm6.05,37.58l-.66-2-1.86,.47c.1,.32,.28,.69,.33,1.08,.05,.38-.02,.77-.05,1.2,.65-.73,1.44-.91,2.23-.76Zm3.84-3.14l.35,2.09c.64-.56,1.45-.72,2.5-.39-.77-.68-.99-1.41-.96-2.18l-1.88,.48Zm-21.08-28.4c.76,.7,1,1.44,.9,2.3,.35-.17,.63-.36,.95-.46,.33-.1,.68-.1,.94-.14l-.39-2.04c-.65,.54-1.43,.62-2.4,.33Zm21.4-5.35c-.63,.65-1.38,.86-2.16,.75l.59,1.88,1.93-.39c-.48-.63-.58-1.39-.36-2.24Zm-21.36,9c-.59,.49-1.34,.53-2.27,.34,.7,.7,.93,1.41,.81,2.14l1.85-.58-.39-1.9Zm25.64-4.43c-.48-.59-.54-1.35-.36-2.25-.68,.66-1.39,.88-2.11,.79l.56,1.83,1.9-.37Zm-24.76,21.09l-1.99,.36c.53,.59,.61,1.34,.47,2l1.96-.68-.43-1.68Zm29.95-5.76c.28-.1,.61-.27,.95-.33,.36-.06,.73-.01,1.16-.01-.6-.6-.76-1.32-.67-2.04l-1.89,.62,.45,1.77Zm-33.42-.16l.48,1.89,1.78-.58-.41-1.62-1.85,.31Zm33.66-6.57l-.48-1.88-1.76,.6,.41,1.62,1.82-.33Zm-18.53,19.5l-1.58,.4,.31,1.81,1.82-.46-.55-1.75Zm13.13-1.46l-.58-1.74-1.58,.4,.33,1.72,1.83-.38Zm-20.51-1.59l-.4-1.55-1.75,.34,.45,1.77,1.7-.56Zm9.68-27.57l-1.73,.44,.53,1.69,1.54-.39-.34-1.74Zm-5.94,3.34l-.34-1.74-1.73,.44,.53,1.69,1.55-.39Zm21.37,17.94l-.45-1.75-1.7,.51,.4,1.56,1.75-.33Zm-23.22,7.42l.35,1.72,1.67-.51-.41-1.62-1.6,.41Zm20.87-3.51l-.53-1.68-1.6,.41,.41,1.61,1.71-.34Zm-10.3,5.91l1.65-.42-.51-1.65-1.49,.38,.35,1.69Zm-17.71-17.22l.41,1.59,1.64-.42-.41-1.59-1.64,.42Zm27.06-5.21l-.4-1.58-1.64,.42,.4,1.58,1.64-.42Zm-9.86-5.83l.41,1.59,1.56-.4-.41-1.59-1.56,.4Zm-10.93,2.79l-1.56,.4,.41,1.6,1.56-.4-.41-1.6Zm20.75,9.69l1.59-.41-.39-1.53-1.59,.41,.39,1.53Zm-23.79,4.42l-1.59,.41,.39,1.54,1.59-.41-.39-1.54Zm-.43-8.21l1.55-.4-.4-1.55-1.55,.4,.4,1.55Zm18.33-6.32l.4,1.55,1.55-.4-.4-1.55-1.55,.4Zm-9.73,.81l1.49-.38-.39-1.52-1.49,.38,.39,1.52Zm8.28,19.5l.39,1.52,1.49-.38-.39-1.52-1.49,.38Zm-4.34,2.72l-.39-1.52-1.49,.38,.39,1.52,1.49-.38Zm-9.32-4.28l1.5-.38-.38-1.49-1.5,.38,.38,1.49Zm18.31-6.25l.38,1.49,1.5-.38-.38-1.49-1.5,.38Zm.27-5.11l-.38-1.48-1.48,.38,.38,1.48,1.48-.38Zm-2.59,9.02l.38,1.48,1.48-.38-.38-1.48-1.48,.38Zm-6.22,1.59l.38,1.48,1.48-.38-.38-1.48-1.48,.38Zm-5.84,3.07l1.48-.38-.38-1.48-1.48,.38,.38,1.48Zm2.67-15.51l.38,1.48,1.48-.38-.38-1.48-1.48,.38Zm-3.9-2.32l.38,1.48,1.48-.38-.38-1.48-1.48,.38Zm10.5,2.21l1.48-.38-.38-1.48-1.48,.38,.38,1.48Zm-.73,10.13l1.48-.38-.38-1.48-1.48,.38,.38,1.48Zm-6.22,1.59l1.48-.38-.38-1.48-1.48,.38,.38,1.48Zm-6.33-5.01l-.38-1.49-1.49,.38,.38,1.49,1.49-.38Zm6.22-1.59l-.38-1.48-1.48,.38,.38,1.48,1.48-.38Zm10.13,.73l-.38-1.48-1.48,.38,.38,1.48,1.48-.38Zm-6.22,1.59l-.38-1.48-1.48,.38,.38,1.48,1.48-.38Zm-6.6,.1l-1.48,.38,.38,1.48,1.48-.38-.38-1.48Zm7.33-10.23l-.38-1.48-1.48,.38,.38,1.48,1.48-.38Zm.11,6.6l1.48-.38-.38-1.48-1.48,.38,.38,1.48Zm-8.64-1.11l-.38-1.48-1.48,.38,.38,1.48,1.48-.38Z"/><path class="d" d="M38.74,68.28l.51,.33c.22,.4,.51,.77,.64,1.2,.29,.92-.13,1.87-.96,2.38-.8,.48-1.83,.39-2.53-.23-.71-.63-.93-1.66-.52-2.53,.39-.84,1.3-1.34,2.23-1.22,.21,.03,.42,.05,.63,.07Z"/><path class="d" d="M44.4,36.96l-.32,.52c-.4,.22-.77,.52-1.2,.65-.93,.29-1.87-.13-2.38-.97-.47-.78-.39-1.79,.2-2.49,.61-.73,1.65-.97,2.52-.59,.85,.37,1.38,1.27,1.28,2.2-.02,.23-.06,.46-.1,.68Z"/><path class="d" d="M53.98,34.93l-.52-.33c-.9-.92-1.07-1.95-.48-2.88,.56-.88,1.7-1.24,2.67-.83,.98,.42,1.52,1.51,1.25,2.54-.27,1.01-1.24,1.7-2.29,1.6-.21-.02-.42-.07-.63-.1Z"/><path class="d" d="M73.11,60.01l.33-.61c.4-.22,.77-.51,1.2-.64,.93-.29,1.87,.13,2.38,.97,.48,.8,.38,1.83-.24,2.53-.64,.71-1.67,.92-2.53,.51-.84-.4-1.33-1.31-1.21-2.24,.02-.17,.05-.35,.08-.52Z"/><path class="d" d="M77.98,50.17c.29,1.15-.4,2.31-1.55,2.6-1.15,.29-2.31-.4-2.6-1.55-.29-1.15,.4-2.31,1.55-2.6,1.15-.29,2.31,.4,2.6,1.55Z"/><path class="d" d="M34.42,61.27c.29,1.15-.4,2.31-1.54,2.6-1.15,.29-2.31-.4-2.6-1.54-.29-1.15,.4-2.31,1.54-2.6,1.15-.29,2.31,.4,2.6,1.54Z"/><path class="d" d="M50.66,75.41s.06,.03,.09,.03c.49,.54,.96,1.08,.93,1.9-.05,1.26-1.1,2.21-2.34,2.08-1.21-.12-2.08-1.25-1.89-2.45,.19-1.24,1.38-2.03,2.6-1.74,.21,.05,.41,.12,.61,.18Z"/><path class="d" d="M66.32,71.51l.06-.09c1.07-1.52,2.96-1.17,3.66,.02,.49,.83,.38,1.87-.28,2.57-.65,.69-1.65,.86-2.5,.44-.86-.43-1.32-1.38-1.13-2.32,.04-.21,.12-.41,.19-.61Z"/><path class="d" d="M31.28,57.64c-1.14,.28-2.32-.44-2.59-1.58-.26-1.12,.45-2.28,1.56-2.55,1.14-.28,2.32,.44,2.59,1.58,.26,1.12-.45,2.28-1.56,2.55Z"/><path class="d" d="M76.38,43.96c.28,1.14-.44,2.32-1.58,2.59-1.12,.26-2.28-.44-2.56-1.56-.28-1.14,.44-2.32,1.58-2.59,1.12-.26,2.28,.44,2.56,1.56Z"/><path class="d" d="M34.47,70.05c-1.12,.3-2.29-.39-2.57-1.52-.28-1.11,.39-2.24,1.5-2.53,1.12-.3,2.29,.39,2.57,1.52,.28,1.11-.39,2.24-1.5,2.53Z"/><path class="d" d="M76.99,54.88c1.13-.27,2.29,.44,2.54,1.57,.25,1.12-.44,2.24-1.55,2.51-1.13,.27-2.29-.44-2.54-1.57-.25-1.12,.44-2.24,1.55-2.51Z"/><path class="d" d="M34.35,43.56c-1.11,.3-2.24-.35-2.55-1.46-.31-1.12,.37-2.28,1.5-2.57,1.11-.28,2.24,.38,2.53,1.5,.29,1.11-.37,2.24-1.48,2.54Z"/><path class="d" d="M65.44,35.64c-1.12,.29-2.28-.4-2.55-1.53-.27-1.11,.4-2.23,1.51-2.52,1.12-.29,2.28,.4,2.55,1.53,.27,1.11-.4,2.23-1.51,2.52Z"/><path class="d" d="M61.7,77.51c.29,1.13-.41,2.28-1.54,2.54-1.11,.26-2.23-.41-2.51-1.52-.29-1.13,.41-2.28,1.54-2.54,1.11-.26,2.23,.41,2.51,1.52Z"/><path class="d" d="M69.34,37.95c-1.12,.28-2.23-.37-2.52-1.49-.3-1.14,.38-2.27,1.52-2.54,1.12-.27,2.22,.4,2.5,1.52,.28,1.12-.39,2.23-1.5,2.51Z"/><path class="d" d="M51.42,32.56c-1.12,.3-2.23-.34-2.52-1.46-.3-1.12,.34-2.23,1.46-2.52,1.12-.3,2.23,.34,2.52,1.46,.3,1.12-.34,2.23-1.46,2.52Z"/><path class="d" d="M45.18,34.15c-1.12,.29-2.22-.36-2.51-1.48-.29-1.12,.36-2.22,1.48-2.51,1.12-.29,2.22,.36,2.51,1.48,.29,1.12-.36,2.22-1.48,2.51Z"/><path class="d" d="M33.51,44.96c.27,1.12-.39,2.22-1.51,2.5-1.14,.28-2.26-.4-2.52-1.55-.26-1.12,.42-2.22,1.55-2.48,1.12-.27,2.22,.41,2.49,1.53Z"/><path class="d" d="M60.52,29.3c1.12-.28,2.21,.38,2.49,1.51,.27,1.12-.4,2.21-1.53,2.48-1.1,.26-2.18-.39-2.46-1.5-.29-1.12,.37-2.22,1.5-2.5Z"/><path class="d" d="M66.43,78.42c-1.13,.3-2.23-.35-2.51-1.47-.28-1.1,.36-2.19,1.45-2.48,1.13-.3,2.23,.35,2.51,1.47,.28,1.1-.36,2.19-1.45,2.48Z"/><path class="d" d="M55.43,79.09c.29,1.13-.35,2.23-1.48,2.51-1.1,.28-2.19-.36-2.48-1.46-.29-1.13,.35-2.23,1.48-2.51,1.1-.28,2.19,.36,2.48,1.46Z"/><path class="d" d="M38.11,37.12c.29,1.12-.36,2.22-1.48,2.51-1.12,.29-2.22-.37-2.5-1.5-.27-1.1,.36-2.18,1.46-2.47,1.12-.3,2.23,.34,2.52,1.46Z"/><path class="d" d="M74.7,37.76c.28,1.1-.38,2.2-1.48,2.47-1.1,.28-2.2-.38-2.47-1.48-.28-1.1,.38-2.2,1.48-2.47,1.1-.28,2.2,.38,2.47,1.48Z"/><path class="d" d="M29.67,51.33c-1.09,.27-2.19-.39-2.46-1.49-.27-1.09,.39-2.19,1.49-2.46,1.09-.27,2.19,.39,2.46,1.49,.27,1.09-.39,2.19-1.49,2.46Z"/><path class="d" d="M78.71,48.76c-1.09,.27-2.21-.41-2.47-1.5-.25-1.07,.42-2.17,1.48-2.43,1.09-.27,2.21,.41,2.47,1.5,.25,1.07-.42,2.17-1.48,2.43Z"/><path class="d" d="M30.41,58.98c.27,1.08-.41,2.21-1.49,2.46-1.06,.25-2.16-.41-2.43-1.47-.27-1.08,.41-2.21,1.49-2.46,1.06-.25,2.16,.41,2.43,1.47Z"/><path class="d" d="M29.53,63.75c1.05-.27,2.18,.39,2.45,1.44,.27,1.05-.39,2.18-1.44,2.45-1.05,.27-2.18-.39-2.45-1.44-.27-1.05,.39-2.18,1.44-2.45Z"/><path class="d" d="M81.76,52.5c.28,1.05-.37,2.17-1.42,2.47-1.07,.29-2.22-.38-2.49-1.46-.27-1.06,.4-2.17,1.45-2.45,1.05-.27,2.17,.38,2.46,1.44Z"/><path class="d" d="M72.48,71.44c-.26-1.06,.41-2.18,1.46-2.44,1.06-.26,2.18,.41,2.44,1.46,.26,1.06-.41,2.18-1.46,2.44-1.06,.26-2.18-.41-2.44-1.46Z"/><path class="d" d="M40.4,33.26c.26,1.06-.42,2.18-1.48,2.43-1.06,.26-2.18-.42-2.43-1.48-.26-1.06,.42-2.18,1.48-2.43,1.06-.26,2.18,.42,2.43,1.48Z"/><path class="d" d="M57.59,30.94c-1.06,.26-2.17-.41-2.44-1.47-.27-1.08,.43-2.22,1.51-2.46,1.07-.24,2.17,.45,2.42,1.5,.25,1.07-.43,2.17-1.49,2.43Z"/><path class="d" d="M76.25,65.09c1.05-.27,2.17,.38,2.45,1.44,.29,1.07-.4,2.22-1.47,2.48-1.06,.26-2.17-.41-2.44-1.47-.26-1.06,.4-2.17,1.45-2.44Z"/><path class="d" d="M41.38,76.07c.27,1.06-.4,2.18-1.46,2.45-1.06,.27-2.18-.4-2.45-1.46-.27-1.06,.4-2.18,1.46-2.45,1.06-.27,2.18,.4,2.45,1.46Z"/><path class="d" d="M45.28,78.39c.26,1.06-.41,2.17-1.46,2.43-1.06,.26-2.17-.41-2.43-1.46-.26-1.06,.41-2.17,1.46-2.43,1.06-.26,2.17,.41,2.43,1.46Z"/><path class="d" d="M79.54,65.08c-1.07,.25-2.17-.43-2.41-1.49-.23-1.06,.43-2.13,1.47-2.38,1.07-.25,2.17,.43,2.41,1.49,.23,1.06-.43,2.13-1.47,2.38Z"/><path class="d" d="M35.05,72.31c1.07-.26,2.17,.42,2.4,1.49,.23,1.06-.42,2.12-1.47,2.37-1.07,.26-2.17-.42-2.4-1.49-.23-1.06,.42-2.12,1.47-2.37Z"/><path class="d" d="M26.39,51.35c1.07-.26,2.11,.37,2.38,1.44,.26,1.07-.37,2.11-1.44,2.38-1.07,.26-2.11-.37-2.38-1.44-.26-1.07,.37-2.11,1.44-2.38Z"/><path class="d" d="M76.13,38.67c1.06-.28,2.12,.33,2.41,1.39,.28,1.06-.33,2.13-1.39,2.41-1.06,.28-2.12-.33-2.41-1.39-.28-1.06,.33-2.13,1.39-2.41Z"/><path class="d" d="M71.65,72.95c1.07-.26,2.11,.37,2.37,1.45,.26,1.07-.39,2.11-1.46,2.36-1.05,.25-2.07-.38-2.34-1.43-.27-1.07,.36-2.11,1.43-2.38Z"/><path class="d" d="M47.69,83.1c-1.07,.26-2.11-.38-2.36-1.45-.25-1.07,.39-2.1,1.47-2.35,1.05-.24,2.07,.38,2.33,1.43,.27,1.07-.36,2.11-1.44,2.37Z"/><path class="d" d="M48.87,27.75c.28,1.07-.34,2.11-1.41,2.38-1.05,.26-2.08-.34-2.35-1.39-.28-1.07,.34-2.11,1.41-2.38,1.05-.26,2.08,.34,2.35,1.39Z"/><path class="d" d="M56.88,80.04c1.07-.27,2.11,.36,2.37,1.44,.25,1.05-.37,2.07-1.42,2.34-1.07,.27-2.11-.36-2.37-1.44-.25-1.05,.37-2.07,1.42-2.34Z"/><path class="d" d="M63.1,78.46c1.07-.27,2.11,.36,2.37,1.44,.26,1.05-.36,2.07-1.42,2.34-1.07,.27-2.11-.36-2.37-1.44-.26-1.05,.36-2.07,1.42-2.34Z"/><path class="d" d="M81.88,61.1c-1.04,.27-2.09-.34-2.36-1.37-.27-1.04,.34-2.09,1.37-2.36,1.04-.27,2.09,.34,2.36,1.37,.27,1.04-.34,2.09-1.37,2.36Z"/><path class="d" d="M31.14,70.06c1.04-.27,2.08,.35,2.35,1.39,.27,1.04-.35,2.08-1.39,2.35-1.04,.27-2.08-.35-2.35-1.39-.27-1.04,.35-2.08,1.39-2.35Z"/><path class="d" d="M55.08,26.21c.25,1.04-.39,2.08-1.43,2.33-1.04,.25-2.08-.4-2.32-1.44-.24-1.02,.39-2.04,1.41-2.3,1.04-.26,2.09,.37,2.34,1.41Z"/><path class="d" d="M42.63,29.35c.27,1.03-.35,2.09-1.39,2.35-1.04,.26-2.09-.37-2.34-1.41-.25-1.02,.36-2.05,1.37-2.32,1.03-.28,2.09,.34,2.36,1.37Z"/><path class="d" d="M69.1,29.26c.24,1.01-.39,2.06-1.4,2.31-1.03,.26-2.1-.4-2.33-1.44-.23-1.02,.42-2.06,1.43-2.29,1.01-.24,2.06,.41,2.3,1.42Z"/><path class="d" d="M73,31.56c.26,1-.37,2.06-1.37,2.32-1.02,.27-2.1-.38-2.35-1.4-.24-1.01,.4-2.06,1.4-2.3,1-.25,2.06,.38,2.31,1.38Z"/><path class="d" d="M29.45,42.68c.24,1.01-.4,2.07-1.4,2.31-1.01,.24-2.07-.4-2.31-1.4-.24-1.01,.4-2.07,1.4-2.31,1.01-.24,2.07,.4,2.31,1.4Z"/><path class="d" d="M50.68,81.66c1-.25,2.06,.4,2.31,1.39,.25,1-.4,2.06-1.39,2.31-1,.25-2.06-.4-2.31-1.39-.25-1,.4-2.06,1.39-2.31Z"/><path class="d" d="M29.45,37.37c1.01-.25,2.06,.39,2.31,1.39,.26,1.02-.4,2.1-1.42,2.34-1.01,.23-2.06-.42-2.29-1.42-.24-1.01,.4-2.06,1.4-2.3Z"/><path class="d" d="M69.31,76.92c.99-.27,2.06,.35,2.33,1.35,.27,.99-.35,2.06-1.35,2.33-.99,.27-2.06-.35-2.33-1.35-.27-.99,.35-2.06,1.35-2.33Z"/><path class="d" d="M61.48,27.82c-.23-1.02,.44-2.07,1.44-2.28,1.02-.22,2.07,.45,2.27,1.45,.2,1.01-.44,2.02-1.42,2.25-1.01,.23-2.07-.42-2.29-1.42Z"/><path class="d" d="M26.57,65.23c-1.01,.24-2.07-.41-2.3-1.41-.23-1.01,.43-2.07,1.43-2.29,1-.22,2.02,.41,2.26,1.39,.25,1-.39,2.07-1.4,2.31Z"/><path class="d" d="M83.97,48.65c.25,1-.4,2.07-1.4,2.31-1.01,.24-2.07-.41-2.3-1.41-.23-.99,.4-2.02,1.38-2.28,1-.26,2.07,.38,2.32,1.38Z"/><path class="d" d="M34.05,34.83c.27,1-.35,2.07-1.36,2.33-.99,.25-2.02-.36-2.29-1.34-.27-1,.35-2.07,1.36-2.33,.99-.25,2.02,.36,2.29,1.34Z"/><path class="d" d="M82.36,42.43c.25,.99-.35,2.02-1.35,2.28-1.01,.27-2.07-.37-2.3-1.38-.23-1,.39-2.02,1.38-2.26,1-.24,2.02,.37,2.27,1.36Z"/><path class="d" d="M25.02,58.98c-.99,.26-2.02-.34-2.29-1.33-.28-1,.35-2.07,1.36-2.32,1-.25,2.02,.37,2.27,1.36,.25,.99-.35,2.02-1.34,2.28Z"/><path class="d" d="M24.79,45.24c1.01-.27,2.01,.31,2.28,1.33,.26,1.01-.33,2.01-1.34,2.27-.99,.25-1.97-.32-2.25-1.31-.28-1.01,.3-2.02,1.31-2.29Z"/><path class="d" d="M74.57,32.54c1-.27,2.02,.33,2.28,1.33,.27,1-.33,2.02-1.33,2.28-1,.27-2.02-.33-2.28-1.33-.27-1,.33-2.02,1.33-2.28Z"/><path class="d" d="M28.17,71.39c-1.02,.26-2-.33-2.25-1.35-.24-.99,.34-1.96,1.33-2.21,1.02-.26,2,.33,2.25,1.35,.24,.99-.34,1.96-1.33,2.21Z"/><path class="d" d="M85.49,54.87c.26,1.02-.33,2-1.35,2.25-1,.24-1.96-.34-2.22-1.33-.26-1.02,.33-2,1.35-2.25,1-.24,1.96,.34,2.22,1.33Z"/><path class="d" d="M63.04,83.81c.25,.99-.34,1.97-1.34,2.21-.99,.25-1.97-.34-2.21-1.34-.25-.99,.34-1.97,1.34-2.21,.99-.25,1.97,.34,2.21,1.34Z"/><path class="d" d="M61.21,24.64c.25,.99-.34,1.97-1.34,2.21-.99,.25-1.97-.34-2.21-1.34-.25-.99,.34-1.97,1.34-2.21,.99-.25,1.97,.34,2.21,1.34Z"/><path class="d" d="M36.32,30.97c.25,.99-.33,1.97-1.33,2.22-.99,.25-1.97-.33-2.22-1.33-.25-.99,.33-1.97,1.33-2.22,.99-.25,1.97,.33,2.22,1.33Z"/><path class="d" d="M81.12,71.13c-.99,.26-1.97-.32-2.23-1.3-.26-.99,.32-1.97,1.3-2.23,.99-.26,1.97,.32,2.23,1.3,.26,.99-.32,1.97-1.3,2.23Z"/><path class="d" d="M38.87,80.02c.25,.98-.35,1.97-1.33,2.22-.98,.24-1.97-.36-2.21-1.35-.23-.96,.35-1.93,1.31-2.18,.98-.26,1.98,.33,2.22,1.31Z"/><path class="d" d="M78.79,75.03c-.98,.25-1.97-.35-2.22-1.33-.24-.98,.36-1.97,1.35-2.21,.96-.23,1.93,.35,2.18,1.31,.26,.98-.33,1.98-1.31,2.22Z"/><path class="d" d="M69.24,82.21c.25,.95-.34,1.95-1.29,2.21-.97,.26-1.99-.35-2.23-1.32-.23-.96,.37-1.95,1.32-2.19,.95-.24,1.95,.35,2.2,1.3Z"/><path class="d" d="M49.74,26.11c-.98,.24-1.98-.37-2.21-1.35-.22-.96,.38-1.94,1.33-2.17,.98-.24,1.98,.37,2.21,1.35,.22,.96-.38,1.94-1.33,2.17Z"/><path class="d" d="M83.43,67.21c-.95,.25-1.95-.34-2.21-1.29-.26-.97,.35-1.99,1.32-2.23,.96-.23,1.95,.37,2.19,1.32,.24,.95-.35,1.95-1.3,2.2Z"/><path class="d" d="M80.7,36.2c.25,.95-.33,1.95-1.28,2.21-.97,.26-1.99-.34-2.23-1.31-.24-.95,.36-1.95,1.31-2.19,.95-.24,1.95,.34,2.2,1.29Z"/><path class="d" d="M54.62,84.07c.96-.23,1.95,.37,2.18,1.32,.24,.97-.38,1.99-1.36,2.21-.96,.21-1.94-.4-2.16-1.36-.22-.96,.39-1.95,1.34-2.17Z"/><path class="d" d="M42.78,82.38c.22,.98-.41,1.97-1.4,2.18-.96,.2-1.93-.41-2.15-1.38-.22-.98,.41-1.97,1.4-2.18,.96-.2,1.93,.41,2.15,1.38Z"/><path class="d" d="M44.84,25.48c.25,.98-.36,1.98-1.34,2.22-.96,.23-1.94-.36-2.18-1.32-.25-.98,.36-1.98,1.34-2.22,.96-.23,1.94,.36,2.18,1.32Z"/><path class="d" d="M34.95,77.69c.25,.95-.35,1.96-1.29,2.2-.95,.25-1.96-.35-2.2-1.29-.25-.95,.35-1.96,1.29-2.2,.95-.25,1.96,.35,2.2,1.29Z"/><path class="d" d="M24.7,50.49c.25,.95-.35,1.96-1.3,2.2-.95,.25-1.96-.35-2.2-1.3-.25-.95,.35-1.96,1.3-2.2,.95-.25,1.96,.35,2.2,1.3Z"/><path class="d" d="M76.49,78.91c-.94,.26-1.95-.34-2.2-1.28-.25-.94,.35-1.96,1.3-2.19,.93-.23,1.91,.34,2.17,1.26,.26,.93-.32,1.95-1.26,2.21Z"/><path class="d" d="M46.65,84.66c.24,.94-.36,1.96-1.31,2.19-.95,.23-1.96-.38-2.18-1.32-.22-.93,.36-1.91,1.29-2.15,.94-.25,1.95,.35,2.2,1.29Z"/><path class="d" d="M38.56,27.09c.24,.96-.33,1.89-1.29,2.12-.96,.23-1.89-.34-2.12-1.3-.22-.94,.33-1.85,1.27-2.09,.96-.25,1.89,.31,2.13,1.27Z"/><path class="d" d="M57.22,22.31c.25,.96-.3,1.9-1.25,2.15-.96,.25-1.9-.31-2.14-1.27-.24-.94,.3-1.86,1.23-2.11,.95-.26,1.9,.28,2.15,1.24Z"/><path class="d" d="M23.91,60.61c.26,.96-.29,1.9-1.25,2.15-.96,.25-1.9-.31-2.14-1.27-.24-.94,.3-1.86,1.23-2.11,.95-.26,1.9,.28,2.16,1.23Z"/><path class="d" d="M86.14,44.79c.23,.96-.34,1.89-1.3,2.12-.96,.23-1.89-.35-2.11-1.32-.22-.94,.34-1.85,1.28-2.08,.96-.24,1.89,.32,2.13,1.28Z"/><path class="d" d="M86.44,53.12c-.96,.23-1.88-.34-2.11-1.31-.22-.94,.35-1.85,1.29-2.08,.96-.23,1.88,.34,2.11,1.31,.22,.94-.35,1.85-1.29,2.08Z"/><path class="d" d="M28.89,74.14c.96-.23,1.88,.34,2.1,1.32,.21,.94-.35,1.84-1.3,2.07-.96,.23-1.88-.34-2.1-1.32-.21-.94,.35-1.84,1.3-2.07Z"/><path class="d" d="M86.99,61.1c.25,.96-.3,1.9-1.25,2.15-.96,.25-1.9-.31-2.14-1.27-.24-.94,.3-1.86,1.23-2.11,.95-.26,1.9,.28,2.16,1.24Z"/><path class="d" d="M25.5,66.89c.23,.94-.33,1.85-1.27,2.09-.96,.24-1.88-.33-2.11-1.31-.22-.94,.35-1.84,1.3-2.07,.94-.22,1.85,.34,2.08,1.29Z"/><path class="d" d="M81.19,39.41c-.24-.93,.32-1.87,1.26-2.09,.91-.22,1.83,.33,2.06,1.24,.24,.93-.32,1.87-1.26,2.09-.91,.22-1.83-.33-2.06-1.24Z"/><path class="d" d="M22.31,54.46c.21,.93-.38,1.85-1.32,2.06-.91,.2-1.81-.38-2.02-1.3-.21-.93,.38-1.85,1.32-2.06,.91-.2,1.81,.38,2.02,1.3Z"/><path class="d" d="M50.49,87.01c.23,.93-.34,1.85-1.28,2.08-.93,.22-1.85-.35-2.07-1.29-.21-.91,.35-1.82,1.26-2.04,.93-.23,1.86,.33,2.09,1.26Z"/><path class="d" d="M73.31,79.41c.93-.22,1.85,.35,2.07,1.29,.22,.93-.36,1.85-1.3,2.06-.91,.21-1.81-.35-2.04-1.27-.23-.93,.33-1.85,1.27-2.08Z"/><path class="d" d="M27.67,36.49c.23,.93-.32,1.86-1.26,2.09-.93,.23-1.85-.34-2.08-1.28-.22-.91,.33-1.82,1.24-2.05,.93-.24,1.86,.31,2.1,1.24Z"/><path class="d" d="M69.14,24.14c.93-.24,1.86,.32,2.09,1.26,.23,.93-.34,1.85-1.27,2.08-.91,.22-1.82-.33-2.06-1.24-.24-.93,.31-1.86,1.24-2.1Z"/><path class="d" d="M73.04,26.47c.93-.24,1.86,.33,2.09,1.26,.22,.91-.34,1.82-1.24,2.06-.93,.24-1.86-.33-2.09-1.26-.22-.91,.34-1.82,1.24-2.06Z"/><path class="d" d="M24.07,42.48c-.93,.21-1.85-.38-2.06-1.32-.2-.91,.38-1.81,1.3-2.02,.93-.21,1.85,.38,2.06,1.32,.2,.91-.38,1.81-1.3,2.02Z"/><path class="d" d="M28.73,34.66c-.9,.22-1.84-.35-2.06-1.25-.22-.9,.35-1.84,1.25-2.06,.9-.22,1.84,.35,2.06,1.25,.22,.9-.35,1.84-1.25,2.06Z"/><path class="d" d="M67.3,23.04c.24,.89-.3,1.85-1.2,2.09-.89,.24-1.85-.3-2.09-1.2-.24-.89,.3-1.85,1.2-2.09,.89-.24,1.85,.3,2.09,1.2Z"/><path class="d" d="M60.59,87.75c.22,.9-.37,1.85-1.26,2.06-.9,.21-1.85-.38-2.05-1.28-.2-.89,.37-1.8,1.24-2.02,.9-.23,1.85,.35,2.06,1.24Z"/><path class="d" d="M44.96,20.39c.88-.24,1.85,.33,2.08,1.22,.22,.87-.33,1.81-1.2,2.05-.88,.24-1.85-.33-2.08-1.22-.22-.87,.33-1.81,1.2-2.05Z"/><path class="d" d="M79,30.03c.23,.89-.36,1.85-1.25,2.06-.88,.2-1.81-.36-2.03-1.23-.23-.89,.36-1.85,1.25-2.06,.88-.2,1.81,.36,2.03,1.23Z"/><path class="d" d="M88.05,59.28c-.88,.24-1.85-.33-2.08-1.22-.22-.87,.32-1.81,1.2-2.05,.88-.24,1.85,.33,2.08,1.22,.22,.87-.32,1.81-1.2,2.05Z"/><path class="d" d="M64.72,84.93c.89-.24,1.85,.32,2.08,1.21,.23,.89-.33,1.85-1.23,2.07-.88,.22-1.81-.32-2.05-1.19-.25-.88,.3-1.85,1.2-2.09Z"/><path class="d" d="M25.83,75.14c-.87,.24-1.81-.3-2.06-1.17-.25-.88,.32-1.86,1.21-2.08,.88-.22,1.81,.33,2.04,1.21,.23,.87-.31,1.81-1.19,2.05Z"/><path class="d" d="M21.8,46.34c-.87,.23-1.81-.3-2.06-1.18-.25-.88,.32-1.86,1.22-2.08,.88-.22,1.81,.34,2.04,1.21,.23,.88-.32,1.81-1.2,2.05Z"/><path class="d" d="M63.34,20.75c.24,.9-.28,1.79-1.19,2.02-.88,.22-1.75-.29-1.99-1.17-.24-.9,.28-1.79,1.19-2.02,.88-.22,1.75,.29,1.99,1.17Z"/><path class="d" d="M52.05,22.03c-.9,.24-1.8-.28-2.02-1.18-.22-.88,.29-1.75,1.17-1.99,.9-.24,1.8,.28,2.02,1.18,.22,.88-.29,1.75-1.17,1.99Z"/><path class="d" d="M38.75,22.02c.9-.24,1.79,.28,2.02,1.19,.22,.88-.29,1.75-1.17,1.99-.9,.24-1.79-.28-2.02-1.19-.22-.88,.29-1.75,1.17-1.99Z"/><path class="d" d="M54.3,89.36c.22,.89-.3,1.74-1.19,1.96-.91,.23-1.77-.3-1.98-1.22-.2-.88,.33-1.73,1.22-1.94,.88-.21,1.73,.31,1.95,1.2Z"/><path class="d" d="M32.22,28.68c.24,.89-.26,1.76-1.14,2-.91,.25-1.79-.27-2.02-1.18-.22-.89,.29-1.75,1.17-1.98,.89-.23,1.76,.27,1.99,1.16Z"/><path class="d" d="M84.98,73.25c-.88,.23-1.75-.26-1.99-1.14-.23-.88,.26-1.75,1.14-1.99,.88-.23,1.75,.26,1.99,1.14,.23,.88-.26,1.75-1.14,1.99Z"/><path class="d" d="M72.97,84.59c.22,.89-.29,1.74-1.17,1.97-.91,.23-1.77-.29-1.99-1.21-.21-.88,.31-1.73,1.2-1.95,.89-.22,1.74,.3,1.96,1.19Z"/><path class="d" d="M87.99,45.95c.88-.2,1.73,.34,1.93,1.23,.2,.88-.35,1.73-1.25,1.92-.86,.19-1.69-.34-1.9-1.21-.21-.88,.33-1.73,1.22-1.94Z"/><path class="d" d="M82.65,77.15c-.88,.23-1.75-.29-1.97-1.17-.22-.88,.3-1.74,1.19-1.96,.86-.21,1.71,.29,1.94,1.15,.23,.88-.27,1.75-1.15,1.98Z"/><path class="d" d="M38.27,85.13c.88-.23,1.75,.27,1.98,1.15,.23,.88-.29,1.75-1.17,1.97-.86,.22-1.72-.28-1.95-1.13-.24-.88,.26-1.76,1.14-1.99Z"/><path class="d" d="M34.41,82.8c.88-.21,1.74,.32,1.95,1.21,.21,.88-.33,1.73-1.22,1.94-.86,.2-1.7-.32-1.92-1.19-.22-.88,.3-1.74,1.19-1.96Z"/><path class="d" d="M82.83,32.37c.22,.88-.3,1.74-1.19,1.96-.88,.22-1.74-.31-1.95-1.2-.21-.86,.31-1.71,1.17-1.93,.88-.23,1.75,.29,1.97,1.17Z"/><path class="d" d="M86.36,39.75c.85-.22,1.73,.29,1.95,1.14,.23,.87-.3,1.76-1.17,1.97-.85,.21-1.72-.32-1.93-1.17-.21-.85,.3-1.72,1.16-1.94Z"/><path class="d" d="M31.27,83.61c-.85,.21-1.72-.31-1.94-1.16-.22-.87,.31-1.76,1.19-1.96,.86-.2,1.71,.33,1.92,1.19,.21,.85-.32,1.72-1.17,1.93Z"/><path class="d" d="M20.28,66.54c-.88,.21-1.74-.33-1.94-1.22-.19-.86,.34-1.7,1.2-1.91,.88-.21,1.74,.33,1.94,1.22,.19,.86-.34,1.7-1.2,1.91Z"/><path class="d" d="M20.61,48.24c.22,.88-.32,1.75-1.21,1.95-.86,.2-1.71-.33-1.92-1.19-.22-.88,.32-1.75,1.21-1.95,.86-.2,1.71,.33,1.92,1.19Z"/><path class="d" d="M88.44,67.39c.21,.85-.3,1.72-1.15,1.94-.87,.23-1.76-.31-1.97-1.19-.2-.86,.33-1.72,1.18-1.92,.85-.21,1.72,.31,1.93,1.17Z"/><path class="d" d="M18.71,60.3c-.85,.21-1.73-.31-1.94-1.16-.21-.85,.31-1.73,1.16-1.94,.85-.21,1.73,.31,1.94,1.16,.21,.85-.31,1.73-1.16,1.94Z"/><path class="d" d="M42.18,87.47c.84-.23,1.74,.3,1.96,1.14,.22,.84-.31,1.74-1.16,1.95-.82,.21-1.69-.3-1.92-1.12-.23-.83,.28-1.74,1.12-1.97Z"/><path class="d" d="M81.47,79.11c.21,.84-.33,1.74-1.18,1.94-.85,.2-1.73-.35-1.93-1.19-.19-.83,.34-1.69,1.16-1.9,.84-.22,1.74,.32,1.94,1.16Z"/><path class="d" d="M91.47,53.36c.21,.84-.33,1.74-1.17,1.94-.83,.19-1.7-.33-1.9-1.15-.21-.84,.33-1.74,1.17-1.94,.83-.19,1.7,.33,1.9,1.15Z"/><path class="d" d="M21.12,69.66c.83-.2,1.7,.33,1.9,1.15,.21,.84-.35,1.75-1.19,1.93-.83,.18-1.7-.36-1.88-1.18-.19-.83,.35-1.7,1.17-1.89Z"/><path class="d" d="M59.37,18.45c.22,.81-.29,1.7-1.1,1.93-.83,.24-1.75-.3-1.95-1.14-.2-.82,.32-1.7,1.14-1.91,.82-.21,1.7,.3,1.92,1.12Z"/><path class="d" d="M32.59,23.66c.83-.2,1.7,.33,1.9,1.15,.21,.84-.35,1.75-1.19,1.93-.84,.18-1.7-.37-1.88-1.19-.19-.83,.35-1.7,1.17-1.89Z"/><path class="d" d="M26.58,78.23c.83-.22,1.69,.28,1.91,1.11,.22,.83-.3,1.69-1.13,1.9-.82,.2-1.65-.28-1.88-1.09-.23-.82,.27-1.7,1.1-1.92Z"/><path class="d" d="M90.71,63.5c.21,.84-.31,1.69-1.15,1.89-.84,.2-1.69-.33-1.88-1.16-.19-.82,.31-1.65,1.13-1.86,.83-.22,1.69,.3,1.9,1.13Z"/><path class="d" d="M85.53,36.56c-.83,.21-1.63-.28-1.84-1.12-.21-.83,.28-1.63,1.12-1.84,.83-.21,1.63,.28,1.84,1.12,.21,.83-.28,1.63-1.12,1.84Z"/><path class="d" d="M16.37,51.05c.83-.21,1.63,.28,1.84,1.11,.21,.83-.28,1.63-1.11,1.84-.83,.21-1.63-.28-1.84-1.11-.21-.83,.28-1.63,1.11-1.84Z"/><path class="d" d="M64.34,90.06c.23,.84-.26,1.69-1.11,1.9-.83,.21-1.64-.27-1.87-1.09-.23-.84,.26-1.68,1.11-1.9,.83-.21,1.64,.27,1.87,1.09Z"/><path class="d" d="M46.87,92.79c-.83,.21-1.64-.27-1.84-1.11-.21-.83,.28-1.63,1.12-1.83,.81-.19,1.6,.28,1.81,1.09,.22,.83-.26,1.64-1.09,1.85Z"/><path class="d" d="M56.27,90.59c.83-.2,1.63,.29,1.83,1.13,.2,.83-.3,1.63-1.14,1.82-.81,.19-1.59-.29-1.8-1.11-.21-.83,.27-1.64,1.11-1.84Z"/><path class="d" d="M42.97,19.35c.2,.83-.29,1.63-1.13,1.83-.83,.2-1.62-.31-1.82-1.15-.19-.81,.3-1.59,1.11-1.8,.83-.21,1.63,.28,1.84,1.11Z"/><path class="d" d="M49.19,17.74c.21,.83-.26,1.64-1.09,1.85-.83,.21-1.64-.26-1.85-1.09-.21-.83,.26-1.64,1.09-1.85,.83-.21,1.64,.26,1.85,1.09Z"/><path class="d" d="M68.7,87.42c.83-.21,1.63,.28,1.84,1.11,.2,.83-.29,1.63-1.13,1.83-.81,.19-1.6-.28-1.81-1.09-.22-.83,.26-1.64,1.1-1.85Z"/><path class="d" d="M77.25,81.92c.83-.21,1.63,.28,1.84,1.11,.21,.83-.28,1.63-1.11,1.84-.83,.21-1.63-.28-1.84-1.11-.21-.83,.28-1.63,1.11-1.84Z"/><path class="d" d="M73.33,21.53c.21,.82-.28,1.64-1.11,1.84-.8,.19-1.6-.29-1.81-1.09-.21-.82,.28-1.64,1.11-1.84,.8-.19,1.6,.29,1.81,1.09Z"/><path class="d" d="M19.41,37.05c.8-.21,1.62,.28,1.82,1.08,.21,.8-.28,1.62-1.08,1.82-.8,.21-1.62-.28-1.82-1.08-.21-.8,.28-1.62,1.08-1.82Z"/><path class="d" d="M22.49,36.04c-.8,.21-1.62-.25-1.84-1.05-.23-.82,.26-1.65,1.08-1.86,.8-.2,1.61,.28,1.82,1.08,.21,.8-.26,1.61-1.06,1.83Z"/><path class="d" d="M77.24,23.87c.2,.8-.29,1.61-1.1,1.81-.82,.21-1.64-.3-1.83-1.13-.18-.8,.32-1.6,1.13-1.79,.8-.19,1.6,.31,1.8,1.11Z"/><path class="d" d="M18.9,42.04c.19,.77-.3,1.59-1.06,1.79-.78,.2-1.63-.31-1.81-1.1-.17-.78,.33-1.59,1.09-1.77,.77-.18,1.59,.31,1.78,1.08Z"/><path class="d" d="M66.52,19.94c-.2-.79,.3-1.61,1.09-1.81,.79-.2,1.61,.3,1.81,1.09,.2,.79-.3,1.61-1.09,1.81-.79,.2-1.61-.3-1.81-1.09Z"/><path class="d" d="M24.05,29.24c.79-.2,1.61,.29,1.81,1.08,.2,.79-.29,1.61-1.08,1.81-.79,.2-1.61-.29-1.81-1.08-.2-.79,.29-1.61,1.08-1.81Z"/><path class="d" d="M91.87,61.42c-.79,.19-1.62-.32-1.8-1.11-.18-.8,.33-1.62,1.13-1.79,.78-.17,1.58,.32,1.77,1.09,.2,.79-.3,1.62-1.1,1.81Z"/><path class="d" d="M79.34,25.1c.77-.18,1.59,.31,1.78,1.08,.2,.79-.33,1.64-1.11,1.8-.78,.17-1.59-.34-1.76-1.11-.18-.78,.33-1.59,1.09-1.77Z"/><path class="d" d="M55.37,16.15c.21,.76-.26,1.59-1.03,1.81-.77,.22-1.64-.28-1.83-1.06-.19-.77,.29-1.59,1.06-1.79,.76-.2,1.59,.28,1.8,1.04Z"/><path class="d" d="M35.63,22.73c-.77,.19-1.59-.3-1.79-1.06-.2-.78,.31-1.64,1.1-1.81,.78-.17,1.59,.33,1.77,1.1,.18,.77-.31,1.59-1.08,1.78Z"/><path class="d" d="M24.52,77.07c.19,.79-.32,1.62-1.11,1.8-.79,.18-1.62-.34-1.79-1.13-.17-.78,.33-1.57,1.09-1.76,.79-.2,1.62,.31,1.81,1.09Z"/><path class="d" d="M90.31,42.19c.77-.19,1.59,.31,1.78,1.08,.19,.77-.31,1.59-1.08,1.78-.77,.19-1.59-.31-1.78-1.08-.19-.77,.31-1.59,1.08-1.78Z"/><path class="d" d="M17.43,62.32c.18,.77-.32,1.59-1.09,1.76-.77,.18-1.59-.32-1.76-1.09-.18-.77,.32-1.59,1.09-1.76,.77-.18,1.59,.32,1.76,1.09Z"/><path class="d" d="M93.66,49.49c.19,.78-.29,1.58-1.07,1.77-.78,.19-1.58-.31-1.76-1.09-.17-.76,.3-1.54,1.05-1.73,.77-.2,1.58,.28,1.78,1.05Z"/><path class="d" d="M18.98,68.51c.2,.78-.27,1.58-1.06,1.77-.77,.18-1.53-.28-1.73-1.04-.2-.78,.27-1.58,1.06-1.77,.77-.18,1.53,.28,1.73,1.04Z"/><path class="d" d="M63.73,15.87c.79-.19,1.56,.3,1.74,1.09,.17,.77-.3,1.52-1.07,1.71-.79,.19-1.56-.3-1.74-1.09-.17-.77,.3-1.52,1.07-1.71Z"/><path class="d" d="M76.68,86.92c.21,.78-.25,1.57-1.04,1.77-.77,.19-1.53-.25-1.74-1.02-.21-.78,.25-1.57,1.04-1.77,.77-.19,1.53,.25,1.74,1.02Z"/><path class="d" d="M50.74,95.04c-.79,.19-1.56-.29-1.74-1.09-.17-.77,.3-1.52,1.07-1.71,.79-.19,1.56,.29,1.74,1.09,.17,.77-.3,1.52-1.07,1.71Z"/><path class="d" d="M26.39,25.4c.77-.2,1.53,.25,1.73,1.02,.21,.79-.26,1.57-1.06,1.75-.77,.18-1.52-.28-1.71-1.05-.19-.77,.27-1.53,1.04-1.72Z"/><path class="d" d="M15.78,56.07c.21,.78-.23,1.53-1.01,1.73-.78,.2-1.52-.24-1.72-1.02-.19-.76,.24-1.49,.99-1.7,.78-.21,1.53,.22,1.74,.99Z"/><path class="d" d="M90.45,37.07c.19,.78-.27,1.52-1.06,1.7-.78,.18-1.51-.29-1.69-1.07-.17-.76,.28-1.48,1.04-1.67,.78-.19,1.52,.26,1.71,1.04Z"/><path class="d" d="M32.2,86.9c.75-.15,1.47,.33,1.64,1.09,.16,.77-.34,1.51-1.12,1.66-.75,.14-1.47-.36-1.62-1.12-.15-.75,.34-1.47,1.1-1.63Z"/><path class="d" d="M89.82,73.65c.2,.77-.25,1.53-1.03,1.72-.75,.18-1.49-.26-1.68-1.01-.2-.77,.25-1.53,1.03-1.72,.75-.18,1.49,.26,1.68,1.01Z"/><path class="d" d="M87.5,77.57c.19,.75-.26,1.49-1.01,1.69-.77,.2-1.53-.27-1.71-1.04-.17-.75,.29-1.49,1.04-1.67,.75-.18,1.49,.27,1.68,1.02Z"/><path class="d" d="M37.73,90.26c.18,.75-.26,1.49-1.01,1.68-.77,.2-1.53-.27-1.71-1.05-.17-.75,.29-1.49,1.04-1.66,.75-.18,1.49,.27,1.67,1.03Z"/><path class="d" d="M84.94,28.49c.21,.77-.23,1.53-1.01,1.73-.75,.19-1.49-.24-1.7-.99-.21-.77,.23-1.53,1.01-1.73,.75-.19,1.49,.24,1.7,.99Z"/><path class="d" d="M15.5,47.66c-.77,.2-1.53-.25-1.72-1.03-.18-.75,.26-1.49,1.01-1.68,.77-.2,1.53,.25,1.72,1.03,.18,.75-.26,1.49-1.01,1.68Z"/><path class="d" d="M91.14,71.44c-.74,.2-1.5-.25-1.7-.98-.2-.74,.25-1.5,.98-1.7,.74-.2,1.5,.25,1.7,.98,.2,.74-.25,1.5-.98,1.7Z"/><path class="d" d="M67.11,94.13c-.73,.2-1.51-.26-1.7-.99-.19-.74,.27-1.51,1.01-1.69,.72-.18,1.47,.26,1.67,.97,.21,.73-.24,1.51-.97,1.71Z"/><path class="d" d="M29.92,85.64c.17,.74-.31,1.5-1.04,1.67-.74,.17-1.5-.32-1.66-1.06-.15-.72,.31-1.46,1.02-1.64,.74-.18,1.51,.29,1.68,1.03Z"/><path class="d" d="M60.19,93.03c.74-.19,1.51,.28,1.69,1.01,.18,.74-.29,1.51-1.03,1.68-.72,.17-1.46-.28-1.65-1-.19-.73,.26-1.51,1-1.7Z"/><path class="d" d="M19.52,76.44c-.73,.19-1.51-.27-1.69-1-.18-.74,.28-1.51,1.02-1.68,.72-.17,1.47,.27,1.66,.98,.2,.73-.25,1.51-.99,1.7Z"/><path class="d" d="M94.18,57.41c-.73,.19-1.51-.27-1.69-1.01-.18-.74,.28-1.51,1.02-1.68,.72-.17,1.47,.27,1.66,.99,.2,.73-.26,1.51-.99,1.7Z"/><path class="d" d="M45.15,15.46c.18,.73-.29,1.51-1.02,1.68-.71,.16-1.47-.3-1.65-1-.18-.73,.29-1.51,1.02-1.68,.71-.16,1.47,.3,1.65,1Z"/><path class="d" d="M84.16,83.14c-.71,.17-1.48-.28-1.66-.99-.19-.73,.3-1.52,1.03-1.69,.72-.16,1.48,.31,1.64,1.03,.17,.72-.3,1.48-1.01,1.65Z"/><path class="d" d="M60.5,16.28c-.71,.18-1.48-.28-1.67-.99-.19-.73,.29-1.52,1.02-1.69,.72-.16,1.48,.31,1.65,1.02,.17,.71-.3,1.48-1,1.66Z"/><path class="d" d="M30.38,22.55c.18,.71-.28,1.47-.98,1.66-.72,.19-1.52-.29-1.68-1.02-.16-.72,.31-1.47,1.02-1.64,.71-.17,1.47,.29,1.65,1Z"/><path class="d" d="M41.6,92.55c.19,.7-.25,1.47-.95,1.68-.72,.21-1.52-.26-1.7-.99-.18-.71,.28-1.47,.98-1.66,.7-.18,1.47,.26,1.67,.97Z"/><path class="d" d="M49.77,12.9c.74-.14,1.46,.35,1.58,1.08,.12,.72-.35,1.42-1.06,1.55-.74,.14-1.46-.35-1.58-1.08-.12-.72,.35-1.42,1.06-1.55Z"/><path class="d" d="M94.41,65.93c.14,.74-.34,1.45-1.08,1.58-.72,.13-1.41-.34-1.55-1.05-.14-.74,.34-1.45,1.08-1.58,.72-.13,1.41,.34,1.55,1.05Z"/><path class="d" d="M36.3,17.75c-.2-.72,.24-1.48,.96-1.66,.7-.18,1.43,.25,1.63,.95,.2,.72-.24,1.48-.96,1.66-.7,.18-1.43-.25-1.63-.95Z"/><path class="d" d="M87.14,29.91c.72-.2,1.42,.2,1.61,.92,.2,.72-.2,1.42-.92,1.61-.72,.2-1.42-.2-1.61-.92-.2-.72,.2-1.42,.92-1.61Z"/><path class="d" d="M14.1,49.88c.19,.73-.22,1.42-.95,1.6-.73,.18-1.42-.24-1.59-.97-.17-.71,.23-1.38,.93-1.57,.73-.2,1.42,.21,1.61,.93Z"/><path class="d" d="M25.94,83.29c.19,.71-.21,1.43-.92,1.63-.73,.21-1.46-.22-1.65-.95-.18-.72,.24-1.42,.95-1.61,.71-.19,1.42,.22,1.62,.94Z"/><path class="d" d="M74.25,90.9c.17,.72-.25,1.41-.98,1.58-.72,.17-1.41-.25-1.58-.98-.17-.72,.25-1.41,.98-1.58,.72-.17,1.41,.25,1.58,.98Z"/><path class="d" d="M54,94.68c.72-.17,1.41,.25,1.58,.97,.17,.72-.25,1.41-.97,1.58-.72,.17-1.41-.25-1.58-.97-.17-.72,.25-1.41,.97-1.58Z"/><path class="d" d="M82.77,85.42c.17,.72-.26,1.4-.99,1.56-.7,.15-1.36-.27-1.53-.97-.17-.72,.26-1.4,.99-1.56,.7-.15,1.36,.27,1.53,.97Z"/><path class="d" d="M94.26,44.69c.69-.17,1.38,.24,1.55,.94,.18,.71-.25,1.41-.97,1.58-.69,.16-1.37-.27-1.53-.97-.16-.69,.26-1.37,.95-1.54Z"/><path class="d" d="M45.43,94.9c.19,.72-.22,1.41-.94,1.59-.7,.17-1.38-.23-1.56-.93-.19-.72,.22-1.41,.94-1.59,.7-.17,1.38,.23,1.56,.93Z"/><path class="d" d="M13.99,67.81c-.7,.17-1.38-.25-1.55-.95-.17-.7,.25-1.38,.95-1.55,.7-.17,1.38,.25,1.55,.95,.17,.7-.25,1.38-.95,1.55Z"/><path class="d" d="M73.89,16.76c.68-.16,1.4,.28,1.55,.97,.14,.67-.29,1.36-.95,1.52-.68,.16-1.4-.28-1.55-.97-.14-.67,.29-1.36,.95-1.52Z"/><path class="d" d="M19.43,31.96c.17,.68-.27,1.4-.95,1.56-.66,.15-1.36-.27-1.53-.93-.17-.68,.27-1.4,.95-1.56,.66-.15,1.36,.27,1.53,.93Z"/><path class="d" d="M11.82,59.09c.69-.15,1.4,.31,1.53,1,.13,.67-.32,1.35-.98,1.5-.69,.15-1.4-.31-1.53-1-.13-.67,.32-1.35,.98-1.5Z"/><path class="d" d="M92.65,38.48c.68-.18,1.4,.24,1.57,.93,.17,.68-.26,1.39-.94,1.56-.67,.16-1.36-.25-1.54-.91-.19-.68,.23-1.4,.91-1.58Z"/><path class="d" d="M78.41,21.55c-.66,.17-1.37-.25-1.54-.91-.18-.67,.27-1.41,.94-1.56,.66-.15,1.36,.28,1.52,.94,.16,.66-.27,1.36-.92,1.53Z"/><path class="d" d="M32.6,18.66c.17,.65-.24,1.36-.9,1.54-.67,.18-1.41-.26-1.56-.93-.15-.66,.28-1.36,.93-1.52,.66-.16,1.36,.26,1.53,.91Z"/><path class="d" d="M57.49,12.32c.16,.66-.25,1.37-.91,1.54-.67,.18-1.41-.27-1.56-.95-.15-.66,.29-1.36,.94-1.52,.66-.16,1.36,.27,1.53,.93Z"/><path class="d" d="M21.99,81c.17,.65-.24,1.36-.89,1.54-.67,.18-1.41-.25-1.57-.93-.16-.66,.27-1.36,.93-1.52,.66-.16,1.36,.26,1.53,.91Z"/><path class="d" d="M95.73,63.52c-.66,.16-1.37-.25-1.54-.91-.18-.67,.27-1.41,.95-1.56,.66-.15,1.36,.29,1.52,.94,.16,.66-.27,1.36-.93,1.53Z"/><path class="d" d="M16.19,37.41c-.66,.17-1.37-.25-1.54-.91-.18-.67,.27-1.41,.94-1.56,.66-.15,1.36,.28,1.52,.94,.16,.66-.27,1.36-.92,1.53Z"/><path class="d" d="M20.81,29.59c-.66,.15-1.36-.28-1.52-.93-.15-.66,.28-1.36,.93-1.52,.66-.15,1.36,.28,1.52,.93,.15,.66-.28,1.36-.93,1.52Z"/><path class="d" d="M69.96,14.47c.65-.18,1.36,.24,1.54,.89,.18,.65-.24,1.36-.89,1.54-.65,.18-1.36-.24-1.54-.89-.18-.65,.24-1.36,.89-1.54Z"/><path class="d" d="M16.49,72.48c.16,.66-.26,1.36-.92,1.52-.66,.16-1.36-.26-1.52-.92-.16-.66,.26-1.36,.92-1.52,.66-.16,1.36,.26,1.52,.92Z"/><path class="d" d="M97.38,51.86c.16,.66-.26,1.37-.92,1.53-.66,.16-1.37-.26-1.53-.92-.16-.66,.26-1.37,.92-1.53,.66-.16,1.37,.26,1.53,.92Z"/><path class="d" d="M83.2,22.35c.15,.66-.25,1.32-.9,1.48-.67,.17-1.36-.26-1.5-.94-.14-.66,.28-1.32,.94-1.46,.66-.15,1.32,.27,1.47,.92Z"/><path class="d" d="M14.76,39.85c.13,.67-.29,1.3-.96,1.44-.68,.14-1.34-.31-1.45-.99-.11-.67,.32-1.29,.99-1.41,.67-.12,1.3,.31,1.42,.97Z"/><path class="d" d="M80.37,89.34c.16,.67-.24,1.3-.92,1.46-.67,.15-1.3-.26-1.45-.94-.14-.65,.25-1.26,.9-1.42,.67-.16,1.31,.23,1.47,.9Z"/><path class="d" d="M49.26,97.29c.15,.66-.26,1.29-.93,1.43-.66,.14-1.28-.27-1.42-.95-.13-.65,.26-1.25,.91-1.4,.67-.16,1.29,.24,1.44,.92Z"/><path class="d" d="M23.15,25.61c-.64,.17-1.28-.18-1.46-.82-.19-.66,.19-1.31,.86-1.48,.65-.16,1.27,.21,1.44,.85,.17,.65-.19,1.28-.84,1.45Z"/><path class="d" d="M39.6,12.34c.64-.17,1.28,.2,1.45,.83,.17,.64-.2,1.28-.83,1.45-.64,.17-1.28-.2-1.45-.83-.17-.64,.2-1.28,.83-1.45Z"/><path class="d" d="M66.68,14.52c-.65,.16-1.27-.2-1.44-.85-.18-.67,.21-1.31,.89-1.47,.65-.15,1.27,.23,1.43,.88,.16,.65-.22,1.27-.87,1.43Z"/><path class="d" d="M10.2,52.96c.65-.17,1.28,.18,1.46,.83,.19,.67-.19,1.32-.86,1.48-.65,.16-1.27-.21-1.44-.86-.17-.65,.2-1.28,.84-1.45Z"/><path class="d" d="M91.71,34.65c-.67,.18-1.31-.19-1.48-.87-.16-.65,.2-1.27,.85-1.45,.67-.18,1.31,.19,1.48,.87,.16,.65-.2,1.27-.85,1.45Z"/><path class="d" d="M65.6,96.42c.16,.67-.24,1.3-.92,1.45-.65,.14-1.26-.24-1.42-.9-.16-.67,.24-1.3,.92-1.45,.65-.14,1.26,.24,1.42,.9Z"/><path class="d" d="M45.86,10.75c.64-.16,1.27,.23,1.43,.87,.16,.64-.23,1.27-.87,1.43-.64,.16-1.27-.23-1.43-.87-.16-.64,.23-1.27,.87-1.43Z"/><path class="d" d="M71.8,94.82c.16,.64-.23,1.28-.86,1.44-.64,.15-1.28-.24-1.43-.88-.14-.62,.23-1.24,.84-1.4,.63-.17,1.28,.21,1.44,.85Z"/><path class="d" d="M57.07,98.57c-.16-.64,.22-1.28,.86-1.44,.64-.16,1.28,.24,1.43,.88,.14,.62-.23,1.24-.84,1.41-.63,.17-1.28-.21-1.45-.84Z"/><path class="d" d="M17.13,80.13c-.61,.15-1.26-.25-1.4-.85-.15-.61,.25-1.26,.85-1.4,.61-.15,1.26,.25,1.4,.85,.15,.61-.25,1.26-.85,1.4Z"/><path class="d" d="M98.02,59.51c-.6,.15-1.25-.24-1.41-.83-.16-.62,.25-1.29,.87-1.43,.61-.13,1.25,.27,1.39,.87,.14,.6-.25,1.25-.85,1.4Z"/><path class="d" d="M93.49,76.02c.16,.6-.23,1.26-.83,1.42-.6,.16-1.26-.23-1.42-.83-.16-.6,.23-1.26,.83-1.42,.6-.16,1.26,.23,1.42,.83Z"/><path class="d" d="M87.04,24.66c.16,.63-.23,1.29-.86,1.44-.61,.14-1.25-.24-1.4-.84-.16-.63,.23-1.29,.86-1.44,.61-.14,1.25,.24,1.4,.84Z"/><path class="d" d="M12.38,43.69c.16,.62-.24,1.29-.86,1.43-.61,.14-1.24-.24-1.4-.84-.16-.62,.24-1.29,.86-1.43,.61-.14,1.24,.24,1.4,.84Z"/><path class="d" d="M91.17,79.92c.16,.6-.23,1.26-.83,1.42-.6,.16-1.26-.24-1.41-.84-.14-.58,.23-1.22,.81-1.39,.59-.17,1.26,.21,1.43,.81Z"/><path class="d" d="M33.76,93.38c.6-.16,1.26,.23,1.41,.83,.15,.6-.25,1.26-.85,1.4-.58,.14-1.21-.23-1.38-.81-.17-.59,.22-1.26,.82-1.42Z"/><path class="d" d="M30.45,93.29c-.6,.16-1.26-.23-1.42-.83-.16-.6,.24-1.26,.84-1.41,.58-.14,1.22,.23,1.39,.81,.17,.59-.21,1.26-.81,1.43Z"/><path class="d" d="M52.63,11.41c-.59,.15-1.22-.22-1.37-.81-.16-.61,.23-1.26,.85-1.4,.6-.13,1.21,.25,1.35,.84,.14,.59-.24,1.22-.83,1.36Z"/><path class="d" d="M27.33,89.57c.16,.6-.2,1.21-.79,1.37-.6,.16-1.21-.2-1.37-.79-.16-.6,.2-1.21,.79-1.37,.6-.16,1.21,.2,1.37,.79Z"/><path class="d" d="M62.22,9.96c.6-.15,1.21,.23,1.35,.83,.15,.6-.23,1.21-.83,1.35-.6,.15-1.21-.23-1.35-.83-.15-.6,.23-1.21,.83-1.35Z"/><path class="d" d="M94.4,71.32c.59-.16,1.22,.2,1.38,.79,.17,.6-.22,1.26-.83,1.41-.59,.14-1.22-.23-1.37-.83-.15-.59,.22-1.22,.81-1.38Z"/><path class="d" d="M34.79,14.77c.16,.59-.2,1.22-.79,1.39-.6,.17-1.26-.21-1.41-.82-.14-.59,.23-1.22,.82-1.37,.59-.15,1.22,.21,1.38,.8Z"/><path class="d" d="M26.23,20.3c.15,.6-.21,1.2-.82,1.35-.6,.15-1.2-.21-1.35-.82-.15-.6,.21-1.2,.82-1.35,.6-.15,1.2,.21,1.35,.82Z"/><path class="d" d="M50.94,100.14c-.15-.6,.17-1.16,.77-1.32,.62-.17,1.2,.18,1.34,.8,.14,.6-.2,1.15-.8,1.3-.6,.15-1.16-.19-1.31-.78Z"/><path class="d" d="M12.42,70.21c.14,.59-.21,1.16-.8,1.3-.59,.14-1.16-.21-1.3-.8-.14-.59,.21-1.16,.8-1.3,.59-.14,1.16,.21,1.3,.8Z"/><path class="d" d="M98.73,49.31c-.59,.15-1.16-.19-1.31-.79-.15-.59,.19-1.16,.79-1.31,.59-.15,1.16,.19,1.31,.79,.15,.59-.19,1.16-.79,1.31Z"/><path class="d" d="M77.93,93.24c.16,.6-.17,1.16-.76,1.33-.62,.17-1.2-.17-1.35-.79-.14-.6,.19-1.16,.79-1.31,.6-.15,1.16,.18,1.32,.77Z"/><path class="d" d="M88.8,83.85c.16,.61-.19,1.2-.81,1.35-.61,.15-1.19-.21-1.34-.82-.14-.59,.2-1.16,.79-1.31,.61-.16,1.2,.18,1.36,.79Z"/><path class="d" d="M10.84,63.99c.14,.6-.2,1.16-.79,1.31-.62,.15-1.19-.2-1.33-.83-.13-.6,.22-1.15,.83-1.29,.6-.14,1.15,.21,1.3,.81Z"/><path class="d" d="M97.17,43.1c-.62,.16-1.2-.18-1.35-.8-.15-.6,.19-1.16,.78-1.32,.62-.16,1.2,.18,1.35,.8,.15,.6-.19,1.16-.78,1.32Z"/><path class="d" d="M37.69,95.75c.62-.16,1.2,.2,1.34,.82,.14,.6-.21,1.16-.8,1.31-.62,.16-1.2-.2-1.34-.82-.14-.6,.21-1.16,.8-1.31Z"/><path class="d" d="M98.06,68.27c.14,.59-.21,1.15-.81,1.29-.59,.14-1.15-.21-1.29-.81-.14-.59,.21-1.15,.81-1.29,.59-.14,1.15,.21,1.29,.81Z"/><path class="d" d="M9.96,47.61c.16,.58-.18,1.17-.76,1.32-.58,.15-1.17-.2-1.31-.78-.14-.56,.19-1.13,.74-1.29,.58-.17,1.17,.17,1.33,.75Z"/><path class="d" d="M89.53,26.24c.58-.16,1.17,.18,1.32,.77,.15,.59-.2,1.17-.79,1.31-.57,.14-1.13-.19-1.29-.75-.16-.58,.17-1.17,.75-1.33Z"/><path class="d" d="M95.55,36.85c-.56,.14-1.14-.21-1.29-.77-.15-.57,.22-1.18,.8-1.31,.56-.12,1.14,.24,1.27,.8,.13,.56-.23,1.14-.78,1.28Z"/><path class="d" d="M23.39,87.29c.14,.58-.22,1.16-.8,1.3-.58,.13-1.16-.23-1.29-.82-.12-.56,.22-1.12,.78-1.26,.58-.15,1.16,.2,1.31,.79Z"/><path class="d" d="M86.45,87.79c.12,.55-.25,1.14-.79,1.27-.55,.12-1.14-.25-1.27-.79-.12-.55,.25-1.14,.79-1.27,.55-.12,1.14,.25,1.27,.79Z"/><path class="d" d="M9.22,57.74c.15,.55-.19,1.15-.74,1.3-.55,.15-1.15-.19-1.3-.74-.15-.55,.19-1.15,.74-1.3,.55-.15,1.15,.19,1.3,.74Z"/><path class="d" d="M42.88,98.88c.14,.55-.23,1.15-.78,1.27-.55,.13-1.15-.25-1.26-.79-.11-.53,.23-1.1,.76-1.24,.54-.14,1.15,.22,1.28,.76Z"/><path class="d" d="M100.33,55.47c-.53,.15-1.1-.17-1.26-.7-.16-.55,.18-1.15,.74-1.29,.54-.13,1.1,.2,1.24,.73,.14,.53-.18,1.1-.72,1.25Z"/><path class="d" d="M68.1,98.05c.56-.14,1.08,.18,1.21,.75,.12,.54-.19,1.04-.73,1.18-.56,.14-1.08-.18-1.21-.75-.12-.54,.19-1.04,.73-1.18Z"/><path class="d" d="M18.22,84.26c.56-.13,1.07,.2,1.19,.77,.11,.54-.21,1.03-.75,1.16-.56,.13-1.07-.2-1.19-.77-.11-.54,.21-1.03,.75-1.16Z"/><path class="d" d="M76.27,13.14c.56-.14,1.08,.18,1.2,.75,.12,.54-.19,1.04-.73,1.17-.56,.14-1.08-.18-1.2-.75-.12-.54,.19-1.04,.73-1.17Z"/><path class="d" d="M100.29,64.38c.13,.56-.2,1.07-.76,1.19-.54,.11-1.03-.2-1.16-.74-.13-.56,.2-1.07,.76-1.19,.54-.11,1.03,.2,1.16,.74Z"/><path class="d" d="M59.55,8.47c.15,.55-.17,1.09-.72,1.23-.56,.14-1.09-.18-1.22-.74-.13-.54,.17-1.05,.7-1.2,.55-.16,1.1,.15,1.24,.71Z"/><path class="d" d="M13.92,76.41c.16,.55-.15,1.1-.71,1.24-.55,.15-1.09-.17-1.23-.72-.14-.54,.16-1.06,.69-1.21,.55-.16,1.1,.14,1.25,.69Z"/><path class="d" d="M28.44,16.39c.15,.55-.16,1.09-.72,1.24-.56,.14-1.09-.18-1.23-.73-.13-.54,.17-1.05,.7-1.2,.55-.16,1.1,.15,1.25,.7Z"/><path class="d" d="M63.09,100.39c.12,.56-.22,1.07-.8,1.18-.54,.1-1.03-.23-1.15-.77-.12-.56,.22-1.07,.8-1.18,.54-.1,1.03,.23,1.15,.77Z"/><path class="d" d="M80.63,17.37c-.54,.12-1.04-.19-1.17-.74-.12-.54,.19-1.04,.74-1.17,.54-.12,1.04,.19,1.17,.74,.12,.54-.19,1.04-.74,1.17Z"/><path class="d" d="M43.18,9.34c.13,.54-.17,1.04-.7,1.18-.56,.15-1.08-.17-1.21-.74-.12-.54,.19-1.04,.73-1.16,.54-.13,1.04,.18,1.17,.72Z"/><path class="d" d="M12.92,33.62c.14,.54-.17,1.05-.71,1.19-.54,.14-1.05-.17-1.19-.71-.14-.54,.17-1.05,.71-1.19,.54-.14,1.05,.17,1.19,.71Z"/><path class="d" d="M14.05,29.01c.54-.14,1.05,.16,1.19,.69,.15,.55-.17,1.08-.73,1.21-.54,.13-1.04-.18-1.17-.72-.13-.54,.17-1.04,.71-1.18Z"/><path class="d" d="M56.82,101.97c.11,.5-.22,1.03-.72,1.14-.5,.11-1.03-.22-1.14-.72-.11-.5,.22-1.03,.72-1.14,.5-.11,1.03,.22,1.14,.72Z"/><path class="d" d="M7.52,51.53c.14,.49-.16,1.03-.66,1.18-.49,.14-1.03-.16-1.18-.66-.14-.49,.16-1.03,.66-1.18,.49-.14,1.03,.16,1.18,.66Z"/><path class="d" d="M49.38,7.77c.12,.5-.19,1.03-.7,1.16-.52,.13-1.07-.2-1.18-.73-.11-.51,.22-1.02,.73-1.14,.51-.11,1.02,.21,1.15,.71Z"/><path class="d" d="M94.65,29.38c.12,.51-.21,1.03-.71,1.15-.52,.13-1.07-.22-1.17-.74-.1-.51,.24-1.02,.74-1.13,.51-.11,1.02,.22,1.14,.73Z"/><path class="d" d="M72.86,12.71c-.53,.14-1.06-.16-1.19-.69-.14-.53,.18-1.05,.71-1.18,.51-.13,1.02,.17,1.16,.67,.15,.52-.15,1.06-.67,1.2Z"/><path class="d" d="M46.69,101.23c.12,.5-.21,1.03-.7,1.15-.5,.12-1.03-.21-1.15-.7-.12-.5,.21-1.03,.7-1.15,.5-.12,1.03,.21,1.15,.7Z"/><path class="d" d="M82.87,91.01c.5-.13,1.03,.19,1.16,.69,.13,.5-.19,1.03-.69,1.16-.5,.13-1.03-.19-1.16-.69-.13-.5,.19-1.03,.69-1.16Z"/><path class="d" d="M75.48,97.17c.14,.49-.17,1.03-.66,1.17-.49,.14-1.03-.17-1.17-.66-.14-.49,.17-1.03,.66-1.17,.49-.14,1.03,.17,1.17,.66Z"/><path class="d" d="M36.93,10.91c.14,.5-.15,1.03-.65,1.18-.52,.15-1.07-.16-1.21-.69-.13-.5,.18-1.03,.68-1.16,.5-.13,1.03,.17,1.17,.67Z"/><path class="d" d="M9.89,38.69c-.49,.13-1.03-.19-1.16-.69-.13-.49,.19-1.03,.69-1.16,.49-.13,1.03,.19,1.16,.69,.13,.49-.19,1.03-.69,1.16Z"/><path class="d" d="M16.86,26.98c-.5,.13-1.03-.16-1.17-.66-.15-.52,.16-1.07,.68-1.2,.52-.14,1.06,.19,1.18,.71,.12,.5-.19,1.02-.69,1.15Z"/><path class="d" d="M84.57,19.65c-.5,.14-1.04-.17-1.17-.67-.14-.5,.17-1.04,.67-1.17,.5-.14,1.04,.17,1.17,.67,.14,.5-.17,1.04-.67,1.17Z"/><path class="d" d="M69.6,9.25c.12,.49-.2,1-.68,1.11-.49,.12-1-.2-1.11-.68-.12-.49,.2-1,.68-1.11,.49-.12,1,.2,1.11,.68Z"/><path class="d" d="M19.82,21.93c.11,.49-.2,1-.68,1.11-.49,.11-1-.2-1.11-.68-.11-.49,.2-1,.68-1.11,.49-.11,1,.2,1.11,.68Z"/><path class="d" d="M101.41,59.85c.48-.13,.94,.13,1.07,.61,.13,.48-.12,.94-.59,1.08-.5,.15-.98-.13-1.11-.63-.12-.48,.15-.94,.63-1.06Z"/><path class="d" d="M100.57,43.5c.48-.12,.94,.14,1.07,.62,.14,.5-.15,.97-.65,1.09-.48,.11-.93-.17-1.05-.65-.12-.48,.15-.94,.63-1.06Z"/><path class="d" d="M8.18,41.47c.11,.48-.17,.94-.66,1.04-.48,.11-.93-.19-1.03-.68-.1-.46,.18-.9,.64-1.01,.48-.12,.94,.16,1.05,.65Z"/><path class="d" d="M103.2,50.37c.11,.44-.17,.92-.62,1.03-.44,.11-.92-.17-1.03-.62-.11-.44,.17-.92,.62-1.03,.44-.11,.92,.17,1.03,.62Z"/><path class="d" d="M27.65,95.25c.45-.1,.92,.2,1.01,.64,.1,.45-.2,.92-.64,1.01-.45,.1-.92-.2-1.01-.64-.1-.45,.2-.92,.64-1.01Z"/><path class="d" d="M15.37,82.68c.13,.48-.14,.94-.62,1.07-.48,.12-.94-.15-1.06-.64-.11-.46,.15-.91,.6-1.03,.48-.14,.95,.13,1.08,.61Z"/><path class="d" d="M100.04,37.92c.12,.48-.15,.94-.64,1.06-.48,.12-.94-.17-1.05-.65-.11-.46,.16-.9,.62-1.03,.48-.13,.94,.14,1.07,.62Z"/><path class="d" d="M96.08,77.81c.45-.11,.92,.18,1.02,.63,.11,.45-.18,.92-.63,1.02-.45,.11-.92-.18-1.02-.63-.11-.45,.18-.92,.63-1.02Z"/><path class="d" d="M7.7,68.98c-.48,.13-.94-.12-1.07-.6-.13-.48,.12-.94,.6-1.08,.48-.13,.94,.12,1.07,.6,.13,.48-.12,.94-.6,1.08Z"/><path class="d" d="M94.18,83.36c-.44,.12-.92-.15-1.04-.6-.12-.44,.15-.92,.6-1.04,.44-.12,.92,.15,1.04,.6,.12,.44-.15,.92-.6,1.04Z"/><path class="d" d="M6.06,62.76c-.48,.11-.94-.19-1.03-.67-.09-.46,.2-.9,.65-1,.48-.11,.94,.19,1.03,.67,.09,.46-.2,.9-.65,1Z"/><path class="d" d="M29.55,11.93c.47-.13,.95,.14,1.07,.62,.11,.45-.15,.91-.6,1.03-.47,.13-.95-.14-1.07-.62-.11-.45,.15-.91,.6-1.03Z"/><path class="d" d="M55.51,6.19c.12,.48-.16,.94-.64,1.05-.46,.1-.9-.17-1.02-.62-.12-.48,.16-.94,.64-1.05,.46-.1,.9,.17,1.02,.62Z"/><path class="d" d="M89.07,20.85c.12,.48-.16,.93-.64,1.05-.48,.12-.93-.16-1.05-.64-.12-.48,.16-.93,.64-1.05,.48-.12,.93,.16,1.05,.64Z"/><path class="d" d="M31.54,97.59c.44-.11,.93,.2,1.02,.63,.09,.42-.2,.89-.62,.99-.44,.11-.93-.2-1.02-.63-.09-.42,.2-.89,.62-.99Z"/><path class="d" d="M22.06,18.06c.1,.44-.22,.93-.66,1.01-.43,.08-.88-.22-.98-.64-.1-.44,.22-.93,.66-1.01,.43-.08,.88,.22,.98,.64Z"/><path class="d" d="M65.01,7.95c-.44,.11-.93-.19-1.02-.63-.09-.42,.19-.89,.61-.99,.44-.11,.93,.19,1.02,.63,.09,.42-.19,.89-.61,.99Z"/><path class="d" d="M8.84,73.55c.44-.11,.93,.2,1.02,.63,.09,.42-.2,.89-.62,.99-.44,.11-.93-.2-1.02-.63-.09-.42,.2-.89,.62-.99Z"/><path class="d" d="M98.36,73.94c.41-.12,.89,.14,1.02,.55,.14,.43-.15,.93-.59,1.04-.42,.11-.89-.17-1-.58-.11-.42,.15-.89,.57-1.01Z"/><path class="d" d="M23.74,92.97c.43-.1,.89,.18,.99,.61,.1,.43-.18,.89-.61,.99-.43,.1-.89-.18-.99-.61-.1-.43,.18-.89,.61-.99Z"/><path class="d" d="M80.57,95.05c.42-.12,.89,.15,1.01,.58,.12,.42-.15,.89-.58,1.01-.42,.12-.89-.15-1.01-.58-.12-.42,.15-.89,.58-1.01Z"/><path class="d" d="M48.88,103.96c-.1-.43,.18-.89,.61-.99,.43-.1,.89,.18,.99,.61,.1,.43-.18,.89-.61,.99-.43,.1-.89-.18-.99-.61Z"/><path class="d" d="M35.84,101.49c-.44,.11-.87-.15-.97-.6-.09-.43,.16-.83,.58-.93,.44-.11,.87,.15,.97,.6,.09,.43-.16,.83-.58,.93Z"/><path class="d" d="M92.41,86.25c.11,.44-.15,.87-.6,.97-.43,.09-.83-.16-.94-.58-.11-.44,.15-.87,.6-.97,.43-.09,.83,.15,.94,.58Z"/><path class="d" d="M101.64,70.62c.11,.4-.1,.8-.5,.93-.42,.13-.84-.1-.96-.52-.12-.42,.12-.84,.55-.94,.41-.1,.8,.13,.91,.53Z"/><path class="d" d="M92.34,24.11c-.43,.12-.83-.1-.95-.53-.12-.43,.1-.83,.53-.95,.43-.12,.83,.1,.95,.53,.12,.43-.1,.83-.53,.95Z"/><path class="d" d="M66.22,103.65c-.43,.12-.83-.12-.94-.54-.11-.43,.13-.83,.56-.93,.41-.1,.79,.12,.91,.52,.12,.42-.1,.83-.53,.95Z"/><path class="d" d="M5.23,46.3c-.42,.12-.84-.12-.94-.55-.1-.41,.13-.8,.53-.91,.42-.12,.84,.12,.94,.55,.1,.41-.13,.8-.53,.91Z"/><path class="d" d="M98.36,31.71c.11,.43-.12,.83-.55,.94-.43,.11-.83-.12-.94-.55-.11-.43,.12-.83,.55-.94,.43-.11,.83,.12,.94,.55Z"/><path class="d" d="M5.04,55.51c.11,.43-.12,.83-.56,.94-.43,.11-.83-.12-.94-.56-.11-.43,.12-.83,.56-.94,.43-.11,.83,.12,.94,.56Z"/><path class="d" d="M19.84,90.72c.4-.1,.8,.13,.91,.53,.11,.41-.14,.84-.56,.93-.4,.09-.8-.16-.89-.56-.1-.4,.15-.8,.54-.9Z"/><path class="d" d="M39.04,7.06c.11,.38-.13,.82-.52,.92-.39,.1-.83-.14-.91-.54-.09-.42,.09-.73,.5-.88,.37-.14,.82,.11,.93,.5Z"/><path class="d" d="M44.71,6.4c-.39,.08-.81-.19-.89-.58-.08-.39,.2-.82,.59-.87,.43-.05,.73,.14,.85,.55,.11,.38-.17,.81-.56,.89Z"/><path class="d" d="M40.25,102.87c.09,.37-.16,.78-.54,.87-.37,.09-.78-.16-.87-.54-.09-.37,.16-.78,.54-.87,.37-.09,.78,.16,.87,.54Z"/><path class="d" d="M89.52,91.05c-.36,.11-.78-.12-.9-.48-.12-.38,.13-.82,.52-.92,.37-.09,.78,.15,.88,.51,.1,.36-.13,.78-.5,.89Z"/><path class="d" d="M10.47,79.89c.37-.09,.78,.16,.86,.54,.09,.37-.16,.78-.54,.86-.37,.09-.78-.16-.87-.54-.09-.37,.16-.78,.54-.87Z"/><path class="d" d="M59.64,103.78c.39-.08,.81,.19,.88,.58,.08,.39-.2,.82-.59,.87-.42,.05-.72-.14-.84-.55-.11-.38,.17-.81,.56-.89Z"/><path class="d" d="M104.12,57.52c-.39,.08-.81-.19-.88-.57-.08-.39,.2-.82,.59-.87,.42-.05,.72,.14,.84,.55,.11,.38-.17,.81-.55,.89Z"/><path class="d" d="M72.44,102.04c-.38,.11-.81-.14-.92-.53-.1-.39,.15-.83,.54-.9,.42-.08,.73,.1,.88,.51,.13,.37-.12,.82-.51,.92Z"/><path class="d" d="M23.7,15.02c-.39,.08-.76-.18-.81-.57-.05-.42,.15-.68,.55-.78,.38-.09,.75,.18,.81,.57,.06,.37-.18,.71-.55,.79Z"/><path class="d" d="M61.09,5.49c-.41,.11-.8-.13-.87-.52-.07-.41,.1-.69,.5-.81,.38-.11,.77,.13,.84,.52,.07,.41-.11,.68-.48,.81Z"/><path class="d" d="M31.96,8.2c.38-.05,.66,.09,.77,.47,.11,.37-.11,.72-.48,.81-.37,.09-.73-.14-.79-.52-.06-.4,.12-.64,.5-.76Z"/><path class="d" d="M103.87,66.77c.05,.39-.09,.66-.48,.78-.37,.11-.74-.12-.8-.5-.06-.4,.11-.67,.5-.75,.39-.09,.65,.11,.78,.48Z"/><path class="d" d="M16.31,89.76c-.39,.07-.68-.05-.81-.44-.12-.36,.09-.74,.46-.82,.39-.08,.67,.08,.78,.46,.11,.39-.08,.65-.43,.8Z"/><path class="d" d="M51.42,3.96c.05,.38-.09,.65-.48,.76-.37,.11-.72-.11-.8-.49-.08-.37,.15-.72,.52-.78,.4-.06,.64,.13,.76,.51Z"/><path class="d" d="M75.01,8.59c-.23-.17-.52-.31-.67-.53-.18-.27,.09-.72,.42-.78,.36-.07,.69,.08,.73,.44,.03,.26-.16,.54-.26,.81l-.23,.07Z"/><path class="d" d="M11.02,27.48c.03,.41-.12,.7-.51,.78-.39,.07-.67-.12-.74-.51-.06-.36,.11-.64,.48-.72,.39-.09,.64,.12,.77,.46Z"/><path class="d" d="M78.69,9.56c.39-.03,.68,.12,.75,.51,.07,.39-.12,.67-.51,.74-.36,.06-.64-.11-.72-.48-.09-.39,.11-.64,.48-.78Z"/><path class="d" d="M8.79,31.49c-.19,.22-.33,.5-.57,.64-.28,.16-.71-.13-.76-.46-.05-.36,.11-.68,.47-.71,.26-.02,.53,.19,.8,.3l.06,.24Z"/><path class="d" d="M83.36,12.36c.04,.39-.1,.68-.49,.77-.39,.08-.67-.1-.75-.49-.07-.36,.1-.64,.46-.73,.39-.1,.65,.09,.79,.46Z"/><path class="d" d="M3.42,49.41c-.18,.22-.33,.51-.56,.64-.28,.16-.71-.12-.76-.45-.05-.36,.11-.68,.46-.71,.26-.02,.53,.18,.8,.29l.06,.23Z"/><path class="d" d="M96.75,25.64c-.19,.22-.34,.5-.58,.63-.29,.16-.71-.14-.75-.47-.04-.36,.12-.68,.48-.7,.26-.01,.53,.2,.79,.31l.05,.24Z"/><path class="d" d="M78.27,99.12c.42-.05,.72,.08,.81,.47,.09,.39-.09,.68-.48,.76-.36,.08-.64-.09-.74-.44-.11-.39,.09-.64,.42-.79Z"/><path class="d" d="M53.77,106.94c-.37-.32-.68-.46-.78-.7-.15-.35,.06-.67,.44-.76,.38-.09,.71,.11,.73,.49,.01,.26-.2,.52-.4,.97Z"/><path class="d" d="M4.27,65.74c-.17,.23-.31,.52-.53,.67-.27,.18-.72-.09-.78-.42-.07-.36,.08-.69,.44-.73,.26-.03,.54,.16,.81,.26l.07,.23Z"/><path class="d" d="M103.19,41.17c-.23-.18-.52-.31-.66-.54-.17-.27,.1-.72,.43-.78,.36-.07,.69,.09,.73,.44,.03,.26-.17,.54-.26,.81l-.23,.07Z"/><path class="d" d="M13.4,23.72c-.2,.2-.38,.53-.6,.56-.2,.03-.56-.22-.65-.44-.14-.33,.09-.67,.46-.68,.24,0,.49,.2,.74,.31l.05,.24Z"/><path class="d" d="M44.14,105.29c-.18,.21-.34,.56-.56,.61-.2,.04-.58-.18-.68-.39-.16-.32,.04-.67,.41-.71,.24-.03,.51,.16,.76,.26l.07,.23Z"/><path class="d" d="M87.7,94.22c-.19,.21-.36,.55-.58,.58-.2,.04-.57-.2-.66-.41-.15-.33,.07-.67,.44-.7,.24-.02,.5,.19,.75,.29l.06,.24Z"/><path class="d" d="M105.39,46.65c-.2,.2-.37,.54-.6,.57-.2,.03-.57-.22-.66-.43-.14-.33,.08-.67,.45-.69,.24-.01,.5,.2,.74,.31l.06,.24Z"/><path class="d" d="M5.84,72c-.19,.21-.36,.55-.58,.59-.2,.04-.57-.2-.67-.41-.15-.33,.06-.67,.43-.7,.24-.02,.5,.18,.75,.28l.06,.24Z"/><path class="d" d="M101.51,33.59c.18,.17,.48,.33,.5,.52,.02,.2-.18,.53-.37,.62-.32,.15-.62-.05-.64-.4-.01-.22,.17-.46,.26-.69l.24-.05Z"/><path class="d" d="M5.8,36.1c-.2-.17-.48-.31-.57-.53-.14-.32,.05-.64,.4-.65,.22,0,.57,.19,.63,.37,.07,.2-.12,.49-.2,.74l-.25,.07Z"/><path class="d" d="M87.3,14.8c-.18,.19-.33,.46-.55,.56-.33,.13-.64-.07-.64-.42,0-.22,.21-.56,.39-.62,.2-.06,.49,.14,.73,.23l.06,.26Z"/><path class="d" d="M2.61,59.57c-.16,.19-.29,.45-.5,.54-.33,.14-.64-.05-.65-.39,0-.21,.21-.54,.4-.61,.18-.07,.46,.13,.69,.22l.06,.24Z"/><path class="d" d="M15.65,19.78c-.17,.19-.31,.49-.5,.53-.18,.04-.41-.21-.62-.33,.13-.22,.21-.54,.4-.63,.15-.07,.44,.13,.66,.21l.07,.22Z"/><path class="d" d="M105.59,63.64c-.19-.17-.48-.32-.52-.51-.04-.18,.21-.57,.34-.58,.21-.01,.53,.18,.62,.37,.07,.15-.14,.43-.23,.66l-.22,.07Z"/><path class="d" d="M71.01,4.93c.18,.17,.49,.34,.5,.53,.01,.2-.21,.52-.41,.59-.13,.05-.51-.2-.56-.37-.05-.19,.14-.46,.23-.69l.24-.05Z"/><path class="d" d="M57.7,2.3c-.27,.33-.4,.64-.58,.66-.19,.03-.42-.2-.63-.32,.12-.21,.19-.53,.37-.6,.17-.07,.44,.12,.84,.26Z"/><path class="d" d="M25.9,11.03c-.17-.17-.47-.32-.48-.5-.01-.19,.21-.49,.4-.56,.13-.05,.49,.19,.53,.36,.05,.19-.14,.44-.23,.66l-.21,.05Z"/><path class="d" d="M7.32,78.25c-.17,.17-.32,.47-.5,.48-.19,.01-.49-.21-.56-.39-.05-.12,.19-.49,.35-.53,.19-.05,.44,.14,.66,.23l.05,.21Z"/><path class="d" d="M106.32,53.48c-.18-.16-.48-.3-.5-.48-.02-.19,.18-.5,.37-.58,.12-.05,.5,.17,.55,.33,.06,.18-.12,.44-.2,.67l-.21,.06Z"/><path class="d" d="M91.13,17.11c-.16,.18-.3,.48-.48,.5-.19,.02-.5-.19-.58-.37-.05-.12,.17-.5,.33-.54,.18-.06,.44,.12,.67,.2l.06,.21Z"/><path class="d" d="M12.81,86.77c-.16,.18-.31,.48-.48,.5-.19,.02-.5-.19-.57-.38-.05-.12,.17-.49,.34-.54,.19-.05,.44,.13,.67,.21l.05,.21Z"/><path class="d" d="M4.09,39.17c-.26,.3-.38,.57-.54,.59-.17,.02-.49-.16-.53-.31-.04-.15,.15-.47,.31-.53,.15-.06,.4,.11,.77,.24Z"/><path class="d" d="M64.37,106.68c-.27,.28-.41,.55-.57,.57-.17,.02-.36-.21-.55-.33,.12-.18,.21-.47,.37-.52,.15-.05,.39,.14,.75,.29Z"/><path class="d" d="M70.12,105.88c-.31-.25-.58-.36-.61-.52-.03-.17,.14-.5,.29-.54,.15-.04,.47,.13,.54,.29,.07,.15-.1,.4-.22,.77Z"/><path class="d" d="M100.79,80.79c-.23,.28-.35,.55-.49,.56-.18,0-.37-.19-.55-.3,.11-.17,.18-.43,.34-.49,.14-.05,.37,.11,.71,.23Z"/><path class="d" d="M25.64,100.58c-.25-.25-.48-.37-.51-.53-.02-.14,.2-.44,.3-.44,.17,0,.42,.17,.48,.33,.05,.12-.13,.33-.27,.65Z"/><path class="d" d="M99.82,27.41c.25,.25,.48,.38,.5,.54,.02,.14-.2,.44-.3,.44-.17,0-.41-.17-.48-.33-.05-.12,.13-.33,.28-.65Z"/><path class="d" d="M.55,53.97c-.27-.23-.5-.34-.54-.5-.03-.13,.17-.32,.26-.49,.18,.1,.43,.17,.5,.32,.06,.11-.11,.34-.22,.67Z"/><path class="d" d="M47.98,107.54c-.25,.27-.38,.53-.52,.53-.18,0-.36-.21-.54-.33,.12-.17,.21-.42,.36-.47,.15-.05,.36,.13,.69,.27Z"/><path class="d" d="M46.98,2.37c-.25-.25-.47-.38-.5-.54-.02-.14,.2-.44,.3-.44,.17,.01,.41,.18,.48,.33,.05,.12-.14,.33-.28,.64Z"/><path class="d" d="M98.45,84.72c-.24,.26-.36,.49-.52,.52-.13,.03-.45-.18-.45-.28,0-.17,.16-.42,.31-.49,.12-.05,.34,.12,.66,.25Z"/><path class="d" d="M84.85,98.77c-.28-.23-.55-.35-.56-.49,0-.18,.19-.37,.3-.55,.17,.11,.43,.19,.49,.34,.05,.14-.11,.37-.23,.71Z"/><path class="d" d="M102.38,76.46c.25,.25,.48,.38,.5,.54,.02,.14-.2,.44-.3,.44-.17,0-.41-.17-.48-.33-.05-.12,.13-.33,.28-.65Z"/><path class="d" d="M40.79,3.98c-.27-.24-.54-.38-.54-.51,0-.18,.2-.36,.32-.54,.17,.12,.43,.2,.48,.36,.05,.15-.12,.36-.26,.7Z"/><path class="d" d="M35.01,4.78c-.23,.27-.34,.51-.49,.55-.13,.03-.33-.16-.49-.26,.1-.18,.16-.43,.32-.51,.11-.06,.34,.1,.67,.22Z"/><path class="d" d="M17.22,15.33c.25,.24,.48,.37,.51,.53,.03,.13-.19,.45-.29,.44-.17,0-.42-.16-.49-.32-.05-.12,.13-.34,.26-.65Z"/><path class="d" d="M67.7,3.09c-.23,.26-.35,.5-.51,.53-.13,.03-.45-.17-.46-.27,0-.17,.15-.42,.3-.5,.12-.06,.34,.11,.66,.24Z"/><path class="d" d="M29.59,102.89c-.27-.23-.51-.33-.55-.49-.04-.13,.16-.33,.25-.5,.18,.1,.43,.16,.51,.31,.06,.11-.1,.34-.21,.67Z"/><path class="d" d="M95.63,89.31c-.22-.23-.43-.35-.45-.5-.02-.13,.18-.28,.28-.43,.15,.11,.38,.19,.44,.34,.04,.11-.13,.3-.27,.59Z"/><path class="d" d="M33.87,104.52c-.22,.22-.34,.44-.49,.46-.12,.02-.41-.18-.41-.27,0-.16,.16-.38,.3-.45,.11-.05,.31,.12,.59,.26Z"/><path class="d" d="M94.95,19.32c-.17,.23-.27,.47-.38,.48-.16,.01-.33-.15-.5-.24,.1-.16,.16-.39,.31-.46,.1-.05,.31,.11,.58,.21Z"/><path class="d" d="M76.29,104.16c-.23-.17-.47-.27-.48-.38-.01-.16,.15-.33,.24-.5,.16,.1,.39,.16,.46,.31,.05,.1-.11,.31-.21,.58Z"/><path class="d" d="M57.99,108.26c-.17,.23-.27,.48-.38,.49-.16,.01-.33-.15-.5-.23,.1-.16,.16-.39,.3-.46,.1-.05,.31,.11,.58,.21Z"/><path class="d" d="M21.51,97.12c.23,.22,.44,.34,.47,.49,.02,.12-.18,.41-.27,.41-.16,0-.39-.15-.45-.3-.05-.11,.12-.31,.25-.6Z"/><path class="d" d="M.99,42.79c.21,.17,.42,.26,.42,.36,0,.14-.15,.29-.24,.43-.13-.09-.33-.15-.37-.26-.04-.11,.09-.28,.18-.53Z"/><path class="d" d="M105.28,73.04c-.17,.2-.28,.41-.37,.41-.14,0-.28-.16-.42-.25,.09-.13,.16-.33,.28-.36,.11-.03,.28,.1,.52,.21Z"/><path class="d" d="M8.21,84.03c.2,.18,.41,.28,.41,.38,0,.14-.16,.28-.26,.42-.13-.09-.32-.16-.36-.28-.03-.11,.1-.28,.21-.52Z"/><path class="d" d="M108.33,59.04c-.18,.19-.3,.4-.39,.39-.14-.01-.27-.18-.41-.27,.1-.12,.18-.32,.3-.35,.11-.03,.27,.12,.51,.23Z"/><path class="d" d="M17.86,95.8c-.22-.15-.44-.24-.44-.34,0-.14,.14-.3,.22-.44,.13,.08,.34,.13,.38,.24,.04,.11-.08,.28-.16,.54Z"/><path class="d" d="M1.35,70.19c-.16-.2-.29-.28-.3-.38-.01-.12,.07-.26,.12-.38,.12,.07,.31,.12,.35,.23,.04,.1-.07,.26-.17,.53Z"/><path class="d" d="M106.93,42.29c.16,.24,.27,.35,.29,.47,.01,.1-.09,.21-.15,.32-.12-.08-.3-.14-.34-.25-.03-.1,.09-.26,.2-.54Z"/><path class="d" d="M52.63,.28c.2-.15,.29-.28,.38-.28,.13,0,.26,.09,.38,.14-.08,.12-.14,.3-.25,.33-.1,.03-.26-.09-.52-.19Z"/><path class="d" d="M28.32,6.95l-.41-.31c.09-.1,.16-.25,.28-.3,.08-.03,.3,.08,.3,.13,0,.13-.08,.26-.17,.48Z"/></g></g></g></svg>