<?xml version="1.0" encoding="UTF-8"?><svg xmlns="http://www.w3.org/2000/svg" viewBox="0 0 109.95 109.95"><defs><style>.d{fill:#e6e6e6;}</style></defs><g id="a"/><g id="b"><g id="c"><path class="d" d="M41.4,1.71C12.03,9.2-5.78,39.18,1.71,68.55c7.49,29.37,37.47,47.17,66.84,39.69,29.37-7.49,47.17-37.47,39.69-66.84C100.75,12.03,70.77-5.78,41.4,1.71Zm61.32,38.51l-18.9,4.82c-5.24-18.7-14.92-33.26-25.5-39.92,20.17,1.36,38.2,14.97,44.41,35.1ZM40.39,7.37l11.67,45.77-22.31,5.69c-5.41-23.83-.69-46.13,10.65-51.46Zm12.9,50.61l11.67,45.77c-12.51,.76-27.32-16.57-33.98-40.08l22.31-5.69Zm16.5,44.49l-11.65-45.72,22.06-5.62c5.37,23.66,.76,45.82-10.4,51.34Zm-12.89-50.57L45.25,6.18c12.45-.49,27.1,16.76,33.71,40.1l-22.06,5.62ZM28.19,12.8c-6.1,10.91-7.64,28.33-3.28,47.25l-18.9,4.82C1.81,44.24,11.13,23.65,28.19,12.8ZM7.23,69.72l18.9-4.82c5.24,18.7,14.92,33.26,25.51,39.92-20.17-1.36-38.2-14.97-44.41-35.1Zm74.52,27.42c6.1-10.91,7.64-28.33,3.29-47.26l18.9-4.82c4.19,20.64-5.13,41.22-22.19,52.07Z"/></g></g></svg>