<?xml version="1.0" encoding="UTF-8"?><svg xmlns="http://www.w3.org/2000/svg" viewBox="0 0 749.06 527.63"><defs><style>.d{fill:#e6e6e6;}</style></defs><g id="a"/><g id="b"><g id="c"><g><g><path class="d" d="M154.83,32.45l10.46-2.5-1.27-5.29c-.95-4.02-1.25-7.4-.86-10.14,.39-2.74,1.24-4.98,2.56-6.73,1.31-1.75,2.97-3.09,4.94-4.05,2-.95,4.14-1.7,6.44-2.25,4.51-1.08,7.86-1.58,10.05-1.49l2.62,10.96c-.96-.03-1.97,.01-3.03,.13-1.05,.13-2.28,.35-3.66,.68-1.9,.45-3.41,1.29-4.54,2.51-1.14,1.23-1.39,3.16-.76,5.78l1.55,6.52,11.95-2.85,2.49,10.47-11.94,2.85,12.7,53.19-14.05,3.35-12.69-53.19-10.46,2.5-2.5-10.47Z"/><path class="d" d="M346.67,124.76c-4.18-3.14-7.4-6.63-9.63-10.47-2.24-3.84-3.58-7.82-4.02-11.95-.44-4.13,0-8.32,1.36-12.58,1.34-4.27,3.54-8.42,6.57-12.47,2.98-3.99,6.33-7.23,10.05-9.71,3.71-2.49,7.61-4.11,11.7-4.85,4.08-.73,8.28-.57,12.59,.51,4.31,1.07,8.56,3.17,12.75,6.31,4.19,3.14,7.41,6.62,9.64,10.47,2.23,3.83,3.58,7.82,4.02,11.95,.44,4.12-.02,8.31-1.36,12.58-1.35,4.26-3.52,8.38-6.51,12.37-3.03,4.05-6.41,7.32-10.12,9.82-3.71,2.49-7.61,4.1-11.69,4.84-4.08,.74-8.29,.57-12.6-.5-4.31-1.08-8.57-3.18-12.75-6.31Zm6.83-9.12c2.57,1.92,5.2,3.05,7.91,3.39,2.69,.33,5.31,.08,7.84-.76,2.53-.85,4.91-2.15,7.13-3.92,2.23-1.76,4.19-3.79,5.91-6.09,1.67-2.23,3.06-4.67,4.15-7.33,1.1-2.66,1.69-5.31,1.76-7.94,.07-2.63-.43-5.2-1.5-7.7-1.08-2.5-2.91-4.71-5.47-6.63-2.57-1.93-5.2-3.06-7.9-3.4-2.7-.33-5.31-.1-7.82,.72-2.5,.81-4.88,2.12-7.12,3.92-2.25,1.8-4.21,3.81-5.88,6.05-1.72,2.29-3.11,4.75-4.18,7.37-1.07,2.63-1.65,5.27-1.76,7.95-.1,2.66,.39,5.25,1.48,7.75,1.07,2.5,2.91,4.7,5.47,6.63Z"/><path class="d" d="M488.05,258.59v13.54h-12.66v.26c1.77,.42,3.5,1.25,5.19,2.47,1.69,1.22,3.22,2.69,4.62,4.43,1.39,1.74,2.51,3.65,3.35,5.77,.84,2.1,1.27,4.26,1.26,6.45,0,1.69-.03,2.85-.12,3.48-.08,.63-.18,1.28-.25,1.96h-13.93c.16-1.02,.31-2.04,.44-3.1,.13-1.05,.19-2.09,.19-3.1,0-2.45-.48-4.74-1.45-6.89-.97-2.16-2.41-4.04-4.31-5.64-1.89-1.61-4.23-2.87-7.03-3.79-2.78-.94-5.99-1.4-9.61-1.4h-31.14v-14.43h65.45Z"/><path class="d" d="M390.04,425.21c-1.67-1.91-3.56-3.51-5.64-4.82-2.11-1.31-4.27-2.15-6.52-2.54-2.25-.39-4.54-.26-6.89,.4-2.35,.65-4.66,1.97-6.95,3.97-3.18,2.78-5.13,5.7-5.87,8.76-.74,3.07-.39,6.38,1.05,9.94l-10.28,9.01c-1.76-3.17-2.87-6.41-3.31-9.73-.43-3.31-.31-6.55,.43-9.7,.71-3.16,1.97-6.17,3.78-9.03,1.81-2.87,4.04-5.47,6.71-7.8,3.87-3.4,7.85-5.76,11.95-7.1,4.1-1.35,8.17-1.78,12.24-1.3,4.07,.49,8,1.84,11.83,4.11,3.84,2.25,7.42,5.29,10.76,9.1,3.05,3.49,5.41,7.3,7.05,11.41,1.63,4.11,2.46,8.26,2.48,12.45,.03,4.19-.82,8.27-2.52,12.22-1.69,3.95-4.39,7.54-8.07,10.76-3.87,3.39-8.06,5.62-12.56,6.7-4.5,1.08-8.93,1.17-13.3,.29-4.36-.89-8.52-2.67-12.48-5.32-3.94-2.65-7.31-6.02-10.1-10.09l36.2-31.68Zm-19.09,29.32c1.63,1.6,3.44,2.94,5.43,3.99,1.99,1.06,4.02,1.72,6.1,1.98,2.08,.26,4.19,.1,6.32-.48,2.14-.58,4.12-1.67,5.96-3.28,1.9-1.67,3.35-3.52,4.31-5.55,.97-2.03,1.5-4.12,1.58-6.27,.09-2.14-.23-4.31-.95-6.48-.73-2.17-1.86-4.2-3.4-6.1l-25.34,22.18Z"/><path class="d" d="M220.61,527.63l-15.44-2.86-7.11-52.45-.26-.04-24.85,46.5-14.69-2.73,34.98-60.07,15.93,2.96,11.44,68.69Z"/><path class="d" d="M51.4,388.48c2.24-1.18,4.23-2.64,5.99-4.38,1.76-1.74,3.09-3.65,3.99-5.75,.91-2.1,1.31-4.36,1.21-6.79-.09-2.44-.84-4.99-2.26-7.68-1.96-3.73-4.35-6.32-7.16-7.75-2.81-1.43-6.11-1.86-9.91-1.29l-6.38-12.1c3.5-.97,6.9-1.3,10.23-.95,3.33,.35,6.45,1.23,9.34,2.65,2.9,1.44,5.55,3.36,7.92,5.78,2.37,2.43,4.38,5.2,6.03,8.34,2.41,4.55,3.78,8.98,4.13,13.28,.36,4.3-.16,8.36-1.57,12.21-1.41,3.85-3.66,7.36-6.74,10.56-3.08,3.21-6.86,5.98-11.34,8.35-4.11,2.16-8.35,3.57-12.74,4.21-4.38,.65-8.61,.49-12.69-.46-4.08-.95-7.84-2.72-11.3-5.28-3.46-2.57-6.32-6.02-8.59-10.34-2.41-4.55-3.61-9.14-3.62-13.77,0-4.61,.93-8.96,2.81-13,1.87-4.04,4.56-7.67,8.07-10.91,3.5-3.22,7.55-5.71,12.15-7.47l22.43,42.56Zm-24.09-25.37c-1.94,1.21-3.66,2.67-5.15,4.35-1.5,1.7-2.6,3.52-3.33,5.48-.74,1.96-1.06,4.04-1,6.25,.06,2.21,.67,4.4,1.81,6.56,1.18,2.24,2.65,4.07,4.4,5.48,1.75,1.42,3.65,2.42,5.73,2.99,2.07,.58,4.25,.77,6.53,.57,2.28-.2,4.52-.84,6.73-1.9l-15.7-29.79Z"/><path class="d" d="M0,179.33l5.74-12.27,11.47,5.36,.1-.22c-1.42-1.14-2.65-2.61-3.65-4.43-1.01-1.83-1.78-3.81-2.31-5.97-.53-2.15-.73-4.37-.6-6.64,.13-2.27,.66-4.4,1.59-6.38,.71-1.54,1.25-2.56,1.59-3.1,.34-.54,.7-1.09,1.06-1.67l12.61,5.9c-.58,.84-1.14,1.72-1.71,2.62s-1.06,1.81-1.48,2.73c-1.04,2.23-1.57,4.51-1.61,6.87-.03,2.36,.48,4.68,1.51,6.92,1.04,2.26,2.63,4.4,4.76,6.42,2.14,2.02,4.85,3.8,8.13,5.34l28.21,13.18-6.1,13.08L0,179.33Z"/></g><g><path class="d" d="M607.27,271.41c-.35-2.37-1.3-4.16-2.86-5.38-1.56-1.21-3.52-1.82-5.9-1.82-1.09,0-2.25,.19-3.49,.56-1.24,.37-2.37,1.07-3.41,2.08-1.04,1.01-1.9,2.42-2.59,4.23-.69,1.81-1.04,4.17-1.04,7.08,0,1.58,.19,3.16,.56,4.75,.37,1.58,.96,2.99,1.78,4.23s1.87,2.24,3.15,3.01c1.28,.77,2.84,1.15,4.67,1.15,2.47,0,4.51-.76,6.12-2.3,1.61-1.53,2.61-3.68,3-6.45h8.46c-.79,4.99-2.68,8.81-5.67,11.46-2.99,2.65-6.96,3.97-11.9,3.97-3.02,0-5.68-.51-7.97-1.52-2.3-1.01-4.24-2.4-5.82-4.15-1.58-1.75-2.78-3.85-3.6-6.27-.82-2.42-1.22-5.05-1.22-7.86s.39-5.56,1.19-8.09c.79-2.52,1.98-4.71,3.56-6.56s3.55-3.31,5.9-4.38c2.35-1.06,5.11-1.59,8.27-1.59,2.23,0,4.34,.28,6.34,.85,2,.57,3.78,1.42,5.34,2.56,1.56,1.14,2.83,2.57,3.82,4.3,.99,1.73,1.58,3.78,1.78,6.16h-8.46Z"/><path class="d" d="M626.06,243.97h8.46v19.66h.15c1.04-1.73,2.58-3.18,4.64-4.34,2.05-1.16,4.34-1.74,6.86-1.74,4.2,0,7.52,1.09,9.94,3.26,2.42,2.18,3.63,5.44,3.63,9.79v26.33h-8.46v-24.11c-.1-3.02-.74-5.2-1.93-6.57-1.19-1.36-3.04-2.04-5.56-2.04-1.44,0-2.72,.26-3.86,.78-1.14,.52-2.1,1.24-2.89,2.15-.79,.91-1.41,1.99-1.85,3.22-.44,1.24-.67,2.55-.67,3.93v22.62h-8.46v-52.96Z"/><path class="d" d="M672.09,243.97h8.46v8.01h-8.46v-8.01Zm0,14.61h8.46v38.35h-8.46v-38.35Z"/><path class="d" d="M693.06,243.97h8.46v52.96h-8.46v-52.96Z"/><path class="d" d="M720.71,279.94c0,1.48,.21,2.92,.63,4.3,.42,1.39,1.05,2.6,1.89,3.63,.84,1.04,1.9,1.87,3.19,2.49,1.28,.62,2.82,.93,4.6,.93,2.47,0,4.46-.53,5.97-1.6,1.51-1.06,2.63-2.65,3.37-4.78h8.01c-.44,2.08-1.21,3.93-2.3,5.56-1.09,1.63-2.4,3-3.93,4.12-1.53,1.11-3.25,1.95-5.15,2.52-1.9,.57-3.9,.85-5.97,.85-3.02,0-5.69-.5-8.01-1.48-2.33-.99-4.29-2.37-5.9-4.15-1.61-1.78-2.82-3.91-3.63-6.38-.82-2.47-1.22-5.19-1.22-8.16,0-2.72,.43-5.3,1.3-7.75,.86-2.45,2.1-4.6,3.71-6.45,1.61-1.85,3.55-3.33,5.82-4.42,2.27-1.09,4.85-1.63,7.71-1.63,3.02,0,5.72,.63,8.12,1.89,2.4,1.26,4.39,2.93,5.97,5,1.58,2.08,2.73,4.46,3.45,7.16,.72,2.7,.9,5.48,.56,8.35h-28.19Zm19.73-5.56c-.1-1.34-.38-2.62-.85-3.86-.47-1.24-1.11-2.31-1.93-3.23-.82-.91-1.81-1.66-2.97-2.22-1.16-.57-2.46-.85-3.89-.85s-2.83,.26-4.04,.78c-1.21,.52-2.25,1.24-3.11,2.15-.87,.91-1.56,1.99-2.08,3.22-.52,1.24-.8,2.57-.85,4.01h19.73Z"/></g></g></g></g></svg>